G04 #@! TF.FileFunction,Legend,Top*
%FSLAX46Y46*%
G04 Gerber Fmt 4.6, Leading zero omitted, Abs format (unit mm)*
G04 Created by KiCad (PCBNEW 4.0.6) date 04/23/17 17:59:47*
%MOMM*%
%LPD*%
G01*
G04 APERTURE LIST*
%ADD10C,0.100000*%
%ADD11C,0.120000*%
%ADD12C,0.150000*%
G04 APERTURE END LIST*
D10*
D11*
X98619000Y-112014000D02*
X98619000Y-119694000D01*
X98619000Y-119694000D02*
X101279000Y-119694000D01*
X101279000Y-119694000D02*
X101279000Y-112014000D01*
X101279000Y-112014000D02*
X98619000Y-112014000D01*
X98619000Y-110744000D02*
X98619000Y-109414000D01*
X98619000Y-109414000D02*
X99949000Y-109414000D01*
X107280000Y-96003000D02*
X106080000Y-96003000D01*
X106080000Y-94243000D02*
X107280000Y-94243000D01*
X118364000Y-79696000D02*
X105604000Y-79696000D01*
X105604000Y-79696000D02*
X105604000Y-82356000D01*
X105604000Y-82356000D02*
X118364000Y-82356000D01*
X118364000Y-82356000D02*
X118364000Y-79696000D01*
X119634000Y-79696000D02*
X120964000Y-79696000D01*
X120964000Y-79696000D02*
X120964000Y-81026000D01*
X101853000Y-96647000D02*
X101853000Y-99187000D01*
X103633000Y-99187000D02*
X103633000Y-96647000D01*
X103633000Y-99187000D02*
X101853000Y-99187000D01*
X101853000Y-96647000D02*
X103633000Y-96647000D01*
X98619000Y-94869000D02*
X98619000Y-107629000D01*
X98619000Y-107629000D02*
X101279000Y-107629000D01*
X101279000Y-107629000D02*
X101279000Y-94869000D01*
X101279000Y-94869000D02*
X98619000Y-94869000D01*
X98619000Y-93599000D02*
X98619000Y-92269000D01*
X98619000Y-92269000D02*
X99949000Y-92269000D01*
X107110000Y-133710000D02*
X103290000Y-133710000D01*
X103290000Y-133710000D02*
X103290000Y-135490000D01*
X103290000Y-135490000D02*
X107110000Y-135490000D01*
X107110000Y-133710000D02*
X107110000Y-135490000D01*
X109064000Y-84780600D02*
X104564000Y-84780600D01*
X110314000Y-88780600D02*
X110314000Y-87280600D01*
X104564000Y-91280600D02*
X109064000Y-91280600D01*
X103314000Y-87280600D02*
X103314000Y-88780600D01*
X114819000Y-82845000D02*
X113019000Y-82845000D01*
X113019000Y-86065000D02*
X115469000Y-86065000D01*
D12*
X115766000Y-102293000D02*
X115541000Y-102293000D01*
X115766000Y-109543000D02*
X115441000Y-109543000D01*
X108516000Y-109543000D02*
X108841000Y-109543000D01*
X108516000Y-102293000D02*
X108841000Y-102293000D01*
X115766000Y-102293000D02*
X115766000Y-102618000D01*
X108516000Y-102293000D02*
X108516000Y-102618000D01*
X108516000Y-109543000D02*
X108516000Y-109218000D01*
X115766000Y-109543000D02*
X115766000Y-109218000D01*
X115541000Y-102293000D02*
X115541000Y-100868000D01*
D11*
X126750000Y-136500000D02*
X151550000Y-136500000D01*
X126750000Y-83300000D02*
X126750000Y-136500000D01*
X151550000Y-83300000D02*
X126750000Y-83300000D01*
X151550000Y-136500000D02*
X151550000Y-83300000D01*
X130260000Y-99970000D02*
X135340000Y-99970000D01*
X135340000Y-99970000D02*
X135340000Y-117750000D01*
X135340000Y-117750000D02*
X134070000Y-117750000D01*
X134070000Y-117750000D02*
X134070000Y-119020000D01*
X134070000Y-119020000D02*
X131530000Y-119020000D01*
X131530000Y-119020000D02*
X131530000Y-117750000D01*
X131530000Y-117750000D02*
X130260000Y-117750000D01*
X130260000Y-117750000D02*
X130260000Y-99970000D01*
X146770000Y-119020000D02*
X142960000Y-119020000D01*
X142960000Y-119020000D02*
X142960000Y-101240000D01*
X142960000Y-101240000D02*
X144230000Y-101240000D01*
X144230000Y-101240000D02*
X144230000Y-99970000D01*
X144230000Y-99970000D02*
X146770000Y-99970000D01*
X146770000Y-99970000D02*
X146770000Y-101240000D01*
X146770000Y-101240000D02*
X148040000Y-101240000D01*
X148040000Y-101240000D02*
X148040000Y-119020000D01*
X148040000Y-119020000D02*
X146770000Y-119020000D01*
X139404000Y-84730000D02*
X139404000Y-107590000D01*
X139404000Y-107590000D02*
X138896000Y-107590000D01*
X138896000Y-107590000D02*
X138896000Y-84730000D01*
X139404000Y-134260000D02*
X139404000Y-111400000D01*
X139404000Y-111400000D02*
X138896000Y-111400000D01*
X138896000Y-111400000D02*
X138896000Y-134260000D01*
X128990000Y-99970000D02*
X127720000Y-99970000D01*
X127720000Y-99970000D02*
X127720000Y-119020000D01*
X127720000Y-119020000D02*
X128990000Y-119020000D01*
X149310000Y-131720000D02*
X149310000Y-119020000D01*
X149310000Y-119020000D02*
X150580000Y-119020000D01*
X150580000Y-119020000D02*
X150580000Y-99970000D01*
X150580000Y-99970000D02*
X149310000Y-99970000D01*
X128990000Y-131720000D02*
X128990000Y-119020000D01*
X149310000Y-87270000D02*
X149310000Y-99970000D01*
X149310000Y-87270000D02*
X150580000Y-87270000D01*
X150580000Y-87270000D02*
X150580000Y-84730000D01*
X150580000Y-84730000D02*
X127720000Y-84730000D01*
X127720000Y-84730000D02*
X127720000Y-87270000D01*
X127720000Y-87270000D02*
X128990000Y-87270000D01*
X128990000Y-87270000D02*
X128990000Y-99970000D01*
X150580000Y-134260000D02*
X150580000Y-131720000D01*
X150580000Y-131720000D02*
X149310000Y-131720000D01*
X150580000Y-134260000D02*
X127720000Y-134260000D01*
X127720000Y-134260000D02*
X127720000Y-131720000D01*
X127720000Y-131720000D02*
X128990000Y-131720000D01*
X98672400Y-125432300D02*
X98672400Y-129032300D01*
X98683922Y-125393822D02*
G75*
G02X103122400Y-127232300I1838478J-1838478D01*
G01*
X98683922Y-129070778D02*
G75*
G03X103122400Y-127232300I1838478J1838478D01*
G01*
X107750000Y-100150000D02*
X109900000Y-100150000D01*
X107750000Y-98450000D02*
X109900000Y-98450000D01*
D10*
X100230000Y-90932000D02*
X99230000Y-90932000D01*
X101430000Y-91582000D02*
X99230000Y-91582000D01*
X99230000Y-91582000D02*
X99230000Y-90282000D01*
X99230000Y-90282000D02*
X101430000Y-90282000D01*
D11*
X110950000Y-97000000D02*
X110950000Y-98000000D01*
X112650000Y-98000000D02*
X112650000Y-97000000D01*
X116625000Y-84082000D02*
X116625000Y-85082000D01*
X118325000Y-85082000D02*
X118325000Y-84082000D01*
X109200000Y-96450000D02*
X108200000Y-96450000D01*
X108200000Y-98150000D02*
X109200000Y-98150000D01*
X110350000Y-114800000D02*
X110350000Y-113800000D01*
X108650000Y-113800000D02*
X108650000Y-114800000D01*
X112850000Y-97000000D02*
X112850000Y-98000000D01*
X114550000Y-98000000D02*
X114550000Y-97000000D01*
X107450000Y-84289000D02*
X108450000Y-84289000D01*
X108450000Y-82589000D02*
X107450000Y-82589000D01*
X111950000Y-114800000D02*
X111950000Y-113800000D01*
X110250000Y-113800000D02*
X110250000Y-114800000D01*
X113880000Y-127754000D02*
X113880000Y-126754000D01*
X112180000Y-126754000D02*
X112180000Y-127754000D01*
X115046000Y-89364000D02*
X113046000Y-89364000D01*
X113046000Y-86404000D02*
X115046000Y-86404000D01*
X101863000Y-101438000D02*
X101863000Y-100238000D01*
X103623000Y-100238000D02*
X103623000Y-101438000D01*
X120895000Y-101889000D02*
X120895000Y-103089000D01*
X119135000Y-103089000D02*
X119135000Y-101889000D01*
X120895000Y-106461000D02*
X120895000Y-107661000D01*
X119135000Y-107661000D02*
X119135000Y-106461000D01*
X107280000Y-94225000D02*
X106080000Y-94225000D01*
X106080000Y-92465000D02*
X107280000Y-92465000D01*
X108570000Y-140030000D02*
X118790000Y-140030000D01*
X118790000Y-140030000D02*
X118790000Y-137370000D01*
X118790000Y-137370000D02*
X108570000Y-137370000D01*
X108570000Y-137370000D02*
X108570000Y-140030000D01*
X107300000Y-140030000D02*
X105970000Y-140030000D01*
X105970000Y-140030000D02*
X105970000Y-138700000D01*
D12*
X108850000Y-135850000D02*
X107600000Y-135850000D01*
X107600000Y-135850000D02*
X107600000Y-134600000D01*
X110100000Y-133350000D02*
X117600000Y-133350000D01*
X117600000Y-133350000D02*
X117600000Y-135850000D01*
X117600000Y-135850000D02*
X110100000Y-135850000D01*
X110100000Y-135850000D02*
X110100000Y-133350000D01*
X111628000Y-128904000D02*
X108228000Y-128904000D01*
X111628000Y-128904000D02*
X111628000Y-128004000D01*
X108228000Y-125604000D02*
X111228000Y-125604000D01*
X99682334Y-108400905D02*
X99682334Y-108972333D01*
X99644238Y-109086619D01*
X99568048Y-109162810D01*
X99453762Y-109200905D01*
X99377572Y-109200905D01*
X99987096Y-108400905D02*
X100520429Y-108400905D01*
X100177572Y-109200905D01*
X102361905Y-116580952D02*
X101561905Y-116580952D01*
X101638095Y-116238095D02*
X101600000Y-116200000D01*
X101561905Y-116123809D01*
X101561905Y-115933333D01*
X101600000Y-115857143D01*
X101638095Y-115819047D01*
X101714286Y-115780952D01*
X101790476Y-115780952D01*
X101904762Y-115819047D01*
X102361905Y-116276190D01*
X102361905Y-115780952D01*
X102285714Y-114980952D02*
X102323810Y-115019047D01*
X102361905Y-115133333D01*
X102361905Y-115209523D01*
X102323810Y-115323809D01*
X102247619Y-115400000D01*
X102171429Y-115438095D01*
X102019048Y-115476190D01*
X101904762Y-115476190D01*
X101752381Y-115438095D01*
X101676190Y-115400000D01*
X101600000Y-115323809D01*
X101561905Y-115209523D01*
X101561905Y-115133333D01*
X101600000Y-115019047D01*
X101638095Y-114980952D01*
X104166667Y-95461905D02*
X103900000Y-95080952D01*
X103709524Y-95461905D02*
X103709524Y-94661905D01*
X104014286Y-94661905D01*
X104090477Y-94700000D01*
X104128572Y-94738095D01*
X104166667Y-94814286D01*
X104166667Y-94928571D01*
X104128572Y-95004762D01*
X104090477Y-95042857D01*
X104014286Y-95080952D01*
X103709524Y-95080952D01*
X104852381Y-94928571D02*
X104852381Y-95461905D01*
X104661905Y-94623810D02*
X104471429Y-95195238D01*
X104966667Y-95195238D01*
X117261905Y-87466666D02*
X117833333Y-87466666D01*
X117947619Y-87504762D01*
X118023810Y-87580952D01*
X118061905Y-87695238D01*
X118061905Y-87771428D01*
X118061905Y-86666666D02*
X118061905Y-87123809D01*
X118061905Y-86895238D02*
X117261905Y-86895238D01*
X117376190Y-86971428D01*
X117452381Y-87047619D01*
X117490476Y-87123809D01*
X121989857Y-87318714D02*
X122027952Y-87204428D01*
X122066048Y-87166333D01*
X122142238Y-87128238D01*
X122256524Y-87128238D01*
X122332714Y-87166333D01*
X122370810Y-87204428D01*
X122408905Y-87280619D01*
X122408905Y-87585381D01*
X121608905Y-87585381D01*
X121608905Y-87318714D01*
X121647000Y-87242524D01*
X121685095Y-87204428D01*
X121761286Y-87166333D01*
X121837476Y-87166333D01*
X121913667Y-87204428D01*
X121951762Y-87242524D01*
X121989857Y-87318714D01*
X121989857Y-87585381D01*
X122180333Y-86823476D02*
X122180333Y-86442524D01*
X122408905Y-86899667D02*
X121608905Y-86633000D01*
X122408905Y-86366333D01*
X121608905Y-86213953D02*
X121608905Y-85756810D01*
X122408905Y-85985381D02*
X121608905Y-85985381D01*
X122104143Y-85490143D02*
X122104143Y-84880619D01*
X122408905Y-85185381D02*
X121799381Y-85185381D01*
X117361905Y-90966666D02*
X117933333Y-90966666D01*
X118047619Y-91004762D01*
X118123810Y-91080952D01*
X118161905Y-91195238D01*
X118161905Y-91271428D01*
X117438095Y-90623809D02*
X117400000Y-90585714D01*
X117361905Y-90509523D01*
X117361905Y-90319047D01*
X117400000Y-90242857D01*
X117438095Y-90204761D01*
X117514286Y-90166666D01*
X117590476Y-90166666D01*
X117704762Y-90204761D01*
X118161905Y-90661904D01*
X118161905Y-90166666D01*
X121989857Y-92398714D02*
X122027952Y-92284428D01*
X122066048Y-92246333D01*
X122142238Y-92208238D01*
X122256524Y-92208238D01*
X122332714Y-92246333D01*
X122370810Y-92284428D01*
X122408905Y-92360619D01*
X122408905Y-92665381D01*
X121608905Y-92665381D01*
X121608905Y-92398714D01*
X121647000Y-92322524D01*
X121685095Y-92284428D01*
X121761286Y-92246333D01*
X121837476Y-92246333D01*
X121913667Y-92284428D01*
X121951762Y-92322524D01*
X121989857Y-92398714D01*
X121989857Y-92665381D01*
X122180333Y-91903476D02*
X122180333Y-91522524D01*
X122408905Y-91979667D02*
X121608905Y-91713000D01*
X122408905Y-91446333D01*
X121608905Y-91293953D02*
X121608905Y-90836810D01*
X122408905Y-91065381D02*
X121608905Y-91065381D01*
X122104143Y-90570143D02*
X122104143Y-89960619D01*
X121227905Y-81292666D02*
X121799333Y-81292666D01*
X121913619Y-81330762D01*
X121989810Y-81406952D01*
X122027905Y-81521238D01*
X122027905Y-81597428D01*
X121227905Y-80987904D02*
X121227905Y-80492666D01*
X121532667Y-80759333D01*
X121532667Y-80645047D01*
X121570762Y-80568857D01*
X121608857Y-80530761D01*
X121685048Y-80492666D01*
X121875524Y-80492666D01*
X121951714Y-80530761D01*
X121989810Y-80568857D01*
X122027905Y-80645047D01*
X122027905Y-80873619D01*
X121989810Y-80949809D01*
X121951714Y-80987904D01*
X105323810Y-82780952D02*
X105361905Y-82666666D01*
X105361905Y-82476190D01*
X105323810Y-82400000D01*
X105285714Y-82361904D01*
X105209524Y-82323809D01*
X105133333Y-82323809D01*
X105057143Y-82361904D01*
X105019048Y-82400000D01*
X104980952Y-82476190D01*
X104942857Y-82628571D01*
X104904762Y-82704762D01*
X104866667Y-82742857D01*
X104790476Y-82780952D01*
X104714286Y-82780952D01*
X104638095Y-82742857D01*
X104600000Y-82704762D01*
X104561905Y-82628571D01*
X104561905Y-82438095D01*
X104600000Y-82323809D01*
X105323810Y-81676190D02*
X105361905Y-81752380D01*
X105361905Y-81904761D01*
X105323810Y-81980952D01*
X105247619Y-82019047D01*
X104942857Y-82019047D01*
X104866667Y-81980952D01*
X104828571Y-81904761D01*
X104828571Y-81752380D01*
X104866667Y-81676190D01*
X104942857Y-81638095D01*
X105019048Y-81638095D01*
X105095238Y-82019047D01*
X105361905Y-81295238D02*
X104828571Y-81295238D01*
X104980952Y-81295238D02*
X104904762Y-81257143D01*
X104866667Y-81219047D01*
X104828571Y-81142857D01*
X104828571Y-81066666D01*
X105361905Y-80800000D02*
X104828571Y-80800000D01*
X104561905Y-80800000D02*
X104600000Y-80838095D01*
X104638095Y-80800000D01*
X104600000Y-80761905D01*
X104561905Y-80800000D01*
X104638095Y-80800000D01*
X105361905Y-80076191D02*
X104942857Y-80076191D01*
X104866667Y-80114286D01*
X104828571Y-80190476D01*
X104828571Y-80342857D01*
X104866667Y-80419048D01*
X105323810Y-80076191D02*
X105361905Y-80152381D01*
X105361905Y-80342857D01*
X105323810Y-80419048D01*
X105247619Y-80457143D01*
X105171429Y-80457143D01*
X105095238Y-80419048D01*
X105057143Y-80342857D01*
X105057143Y-80152381D01*
X105019048Y-80076191D01*
X105361905Y-79580952D02*
X105323810Y-79657143D01*
X105247619Y-79695238D01*
X104561905Y-79695238D01*
X103955905Y-98183666D02*
X104527333Y-98183666D01*
X104641619Y-98221762D01*
X104717810Y-98297952D01*
X104755905Y-98412238D01*
X104755905Y-98488428D01*
X104222571Y-97459857D02*
X104755905Y-97459857D01*
X103917810Y-97650333D02*
X104489238Y-97840809D01*
X104489238Y-97345571D01*
X101288905Y-93992666D02*
X101860333Y-93992666D01*
X101974619Y-94030762D01*
X102050810Y-94106952D01*
X102088905Y-94221238D01*
X102088905Y-94297428D01*
X101288905Y-93230761D02*
X101288905Y-93611714D01*
X101669857Y-93649809D01*
X101631762Y-93611714D01*
X101593667Y-93535523D01*
X101593667Y-93345047D01*
X101631762Y-93268857D01*
X101669857Y-93230761D01*
X101746048Y-93192666D01*
X101936524Y-93192666D01*
X102012714Y-93230761D01*
X102050810Y-93268857D01*
X102088905Y-93345047D01*
X102088905Y-93535523D01*
X102050810Y-93611714D01*
X102012714Y-93649809D01*
X102361905Y-104180952D02*
X101561905Y-104180952D01*
X102323810Y-103838095D02*
X102361905Y-103723809D01*
X102361905Y-103533333D01*
X102323810Y-103457143D01*
X102285714Y-103419047D01*
X102209524Y-103380952D01*
X102133333Y-103380952D01*
X102057143Y-103419047D01*
X102019048Y-103457143D01*
X101980952Y-103533333D01*
X101942857Y-103685714D01*
X101904762Y-103761905D01*
X101866667Y-103800000D01*
X101790476Y-103838095D01*
X101714286Y-103838095D01*
X101638095Y-103800000D01*
X101600000Y-103761905D01*
X101561905Y-103685714D01*
X101561905Y-103495238D01*
X101600000Y-103380952D01*
X102361905Y-103038095D02*
X101561905Y-103038095D01*
X101561905Y-102733333D01*
X101600000Y-102657142D01*
X101638095Y-102619047D01*
X101714286Y-102580952D01*
X101828571Y-102580952D01*
X101904762Y-102619047D01*
X101942857Y-102657142D01*
X101980952Y-102733333D01*
X101980952Y-103038095D01*
X104933334Y-132461905D02*
X104933334Y-133033333D01*
X104895238Y-133147619D01*
X104819048Y-133223810D01*
X104704762Y-133261905D01*
X104628572Y-133261905D01*
X105657143Y-132461905D02*
X105504762Y-132461905D01*
X105428572Y-132500000D01*
X105390477Y-132538095D01*
X105314286Y-132652381D01*
X105276191Y-132804762D01*
X105276191Y-133109524D01*
X105314286Y-133185714D01*
X105352381Y-133223810D01*
X105428572Y-133261905D01*
X105580953Y-133261905D01*
X105657143Y-133223810D01*
X105695239Y-133185714D01*
X105733334Y-133109524D01*
X105733334Y-132919048D01*
X105695239Y-132842857D01*
X105657143Y-132804762D01*
X105580953Y-132766667D01*
X105428572Y-132766667D01*
X105352381Y-132804762D01*
X105314286Y-132842857D01*
X105276191Y-132919048D01*
X103966667Y-135861905D02*
X104233334Y-136661905D01*
X104500001Y-135861905D01*
X105223810Y-136585714D02*
X105185715Y-136623810D01*
X105071429Y-136661905D01*
X104995239Y-136661905D01*
X104880953Y-136623810D01*
X104804762Y-136547619D01*
X104766667Y-136471429D01*
X104728572Y-136319048D01*
X104728572Y-136204762D01*
X104766667Y-136052381D01*
X104804762Y-135976190D01*
X104880953Y-135900000D01*
X104995239Y-135861905D01*
X105071429Y-135861905D01*
X105185715Y-135900000D01*
X105223810Y-135938095D01*
X106023810Y-136585714D02*
X105985715Y-136623810D01*
X105871429Y-136661905D01*
X105795239Y-136661905D01*
X105680953Y-136623810D01*
X105604762Y-136547619D01*
X105566667Y-136471429D01*
X105528572Y-136319048D01*
X105528572Y-136204762D01*
X105566667Y-136052381D01*
X105604762Y-135976190D01*
X105680953Y-135900000D01*
X105795239Y-135861905D01*
X105871429Y-135861905D01*
X105985715Y-135900000D01*
X106023810Y-135938095D01*
X106366667Y-136357143D02*
X106976191Y-136357143D01*
X107319048Y-136623810D02*
X107433334Y-136661905D01*
X107623810Y-136661905D01*
X107700000Y-136623810D01*
X107738096Y-136585714D01*
X107776191Y-136509524D01*
X107776191Y-136433333D01*
X107738096Y-136357143D01*
X107700000Y-136319048D01*
X107623810Y-136280952D01*
X107471429Y-136242857D01*
X107395238Y-136204762D01*
X107357143Y-136166667D01*
X107319048Y-136090476D01*
X107319048Y-136014286D01*
X107357143Y-135938095D01*
X107395238Y-135900000D01*
X107471429Y-135861905D01*
X107661905Y-135861905D01*
X107776191Y-135900000D01*
X108119048Y-136661905D02*
X108119048Y-136128571D01*
X108119048Y-136280952D02*
X108157143Y-136204762D01*
X108195239Y-136166667D01*
X108271429Y-136128571D01*
X108347620Y-136128571D01*
X108957143Y-136623810D02*
X108880953Y-136661905D01*
X108728572Y-136661905D01*
X108652381Y-136623810D01*
X108614286Y-136585714D01*
X108576191Y-136509524D01*
X108576191Y-136280952D01*
X108614286Y-136204762D01*
X108652381Y-136166667D01*
X108728572Y-136128571D01*
X108880953Y-136128571D01*
X108957143Y-136166667D01*
X105695333Y-88318410D02*
X105809619Y-88356505D01*
X106000095Y-88356505D01*
X106076285Y-88318410D01*
X106114381Y-88280314D01*
X106152476Y-88204124D01*
X106152476Y-88127933D01*
X106114381Y-88051743D01*
X106076285Y-88013648D01*
X106000095Y-87975552D01*
X105847714Y-87937457D01*
X105771523Y-87899362D01*
X105733428Y-87861267D01*
X105695333Y-87785076D01*
X105695333Y-87708886D01*
X105733428Y-87632695D01*
X105771523Y-87594600D01*
X105847714Y-87556505D01*
X106038190Y-87556505D01*
X106152476Y-87594600D01*
X106419143Y-87556505D02*
X106609619Y-88356505D01*
X106762000Y-87785076D01*
X106914381Y-88356505D01*
X107104857Y-87556505D01*
X107828667Y-88356505D02*
X107371524Y-88356505D01*
X107600095Y-88356505D02*
X107600095Y-87556505D01*
X107523905Y-87670790D01*
X107447714Y-87746981D01*
X107371524Y-87785076D01*
X110661905Y-84409524D02*
X111309524Y-84409524D01*
X111385714Y-84371429D01*
X111423810Y-84333333D01*
X111461905Y-84257143D01*
X111461905Y-84104762D01*
X111423810Y-84028571D01*
X111385714Y-83990476D01*
X111309524Y-83952381D01*
X110661905Y-83952381D01*
X111461905Y-83152381D02*
X111461905Y-83609524D01*
X111461905Y-83380953D02*
X110661905Y-83380953D01*
X110776190Y-83457143D01*
X110852381Y-83533334D01*
X110890476Y-83609524D01*
X111561905Y-106009524D02*
X112209524Y-106009524D01*
X112285714Y-105971429D01*
X112323810Y-105933333D01*
X112361905Y-105857143D01*
X112361905Y-105704762D01*
X112323810Y-105628571D01*
X112285714Y-105590476D01*
X112209524Y-105552381D01*
X111561905Y-105552381D01*
X111638095Y-105209524D02*
X111600000Y-105171429D01*
X111561905Y-105095238D01*
X111561905Y-104904762D01*
X111600000Y-104828572D01*
X111638095Y-104790476D01*
X111714286Y-104752381D01*
X111790476Y-104752381D01*
X111904762Y-104790476D01*
X112361905Y-105247619D01*
X112361905Y-104752381D01*
X145607143Y-120861428D02*
X145607143Y-119718571D01*
X145607143Y-99271428D02*
X145607143Y-98128571D01*
X146178571Y-98700000D02*
X145035714Y-98700000D01*
X132907143Y-120861428D02*
X132907143Y-119718571D01*
X133478571Y-120290000D02*
X132335714Y-120290000D01*
X132907143Y-99271428D02*
X132907143Y-98128571D01*
X145607143Y-82761428D02*
X145607143Y-81618571D01*
X146178571Y-82190000D02*
X145035714Y-82190000D01*
X132907143Y-82761428D02*
X132907143Y-81618571D01*
X99068305Y-127841824D02*
X99715924Y-127841824D01*
X99792114Y-127803729D01*
X99830210Y-127765633D01*
X99868305Y-127689443D01*
X99868305Y-127537062D01*
X99830210Y-127460871D01*
X99792114Y-127422776D01*
X99715924Y-127384681D01*
X99068305Y-127384681D01*
X99068305Y-126660872D02*
X99068305Y-126813253D01*
X99106400Y-126889443D01*
X99144495Y-126927538D01*
X99258781Y-127003729D01*
X99411162Y-127041824D01*
X99715924Y-127041824D01*
X99792114Y-127003729D01*
X99830210Y-126965634D01*
X99868305Y-126889443D01*
X99868305Y-126737062D01*
X99830210Y-126660872D01*
X99792114Y-126622776D01*
X99715924Y-126584681D01*
X99525448Y-126584681D01*
X99449257Y-126622776D01*
X99411162Y-126660872D01*
X99373067Y-126737062D01*
X99373067Y-126889443D01*
X99411162Y-126965634D01*
X99449257Y-127003729D01*
X99525448Y-127041824D01*
X104440305Y-129492586D02*
X103640305Y-129492586D01*
X103640305Y-129302110D01*
X103678400Y-129187824D01*
X103754590Y-129111633D01*
X103830781Y-129073538D01*
X103983162Y-129035443D01*
X104097448Y-129035443D01*
X104249829Y-129073538D01*
X104326019Y-129111633D01*
X104402210Y-129187824D01*
X104440305Y-129302110D01*
X104440305Y-129492586D01*
X104402210Y-128730681D02*
X104440305Y-128616395D01*
X104440305Y-128425919D01*
X104402210Y-128349729D01*
X104364114Y-128311633D01*
X104287924Y-128273538D01*
X104211733Y-128273538D01*
X104135543Y-128311633D01*
X104097448Y-128349729D01*
X104059352Y-128425919D01*
X104021257Y-128578300D01*
X103983162Y-128654491D01*
X103945067Y-128692586D01*
X103868876Y-128730681D01*
X103792686Y-128730681D01*
X103716495Y-128692586D01*
X103678400Y-128654491D01*
X103640305Y-128578300D01*
X103640305Y-128387824D01*
X103678400Y-128273538D01*
X104440305Y-127511633D02*
X104440305Y-127968776D01*
X104440305Y-127740205D02*
X103640305Y-127740205D01*
X103754590Y-127816395D01*
X103830781Y-127892586D01*
X103868876Y-127968776D01*
X103983162Y-127054490D02*
X103945067Y-127130681D01*
X103906971Y-127168776D01*
X103830781Y-127206871D01*
X103792686Y-127206871D01*
X103716495Y-127168776D01*
X103678400Y-127130681D01*
X103640305Y-127054490D01*
X103640305Y-126902109D01*
X103678400Y-126825919D01*
X103716495Y-126787823D01*
X103792686Y-126749728D01*
X103830781Y-126749728D01*
X103906971Y-126787823D01*
X103945067Y-126825919D01*
X103983162Y-126902109D01*
X103983162Y-127054490D01*
X104021257Y-127130681D01*
X104059352Y-127168776D01*
X104135543Y-127206871D01*
X104287924Y-127206871D01*
X104364114Y-127168776D01*
X104402210Y-127130681D01*
X104440305Y-127054490D01*
X104440305Y-126902109D01*
X104402210Y-126825919D01*
X104364114Y-126787823D01*
X104287924Y-126749728D01*
X104135543Y-126749728D01*
X104059352Y-126787823D01*
X104021257Y-126825919D01*
X103983162Y-126902109D01*
X104021257Y-126140204D02*
X104059352Y-126025918D01*
X104097448Y-125987823D01*
X104173638Y-125949728D01*
X104287924Y-125949728D01*
X104364114Y-125987823D01*
X104402210Y-126025918D01*
X104440305Y-126102109D01*
X104440305Y-126406871D01*
X103640305Y-126406871D01*
X103640305Y-126140204D01*
X103678400Y-126064014D01*
X103716495Y-126025918D01*
X103792686Y-125987823D01*
X103868876Y-125987823D01*
X103945067Y-126025918D01*
X103983162Y-126064014D01*
X104021257Y-126140204D01*
X104021257Y-126406871D01*
X103716495Y-125644966D02*
X103678400Y-125606871D01*
X103640305Y-125530680D01*
X103640305Y-125340204D01*
X103678400Y-125264014D01*
X103716495Y-125225918D01*
X103792686Y-125187823D01*
X103868876Y-125187823D01*
X103983162Y-125225918D01*
X104440305Y-125683061D01*
X104440305Y-125187823D01*
X103640305Y-124692585D02*
X103640305Y-124616394D01*
X103678400Y-124540204D01*
X103716495Y-124502109D01*
X103792686Y-124464013D01*
X103945067Y-124425918D01*
X104135543Y-124425918D01*
X104287924Y-124464013D01*
X104364114Y-124502109D01*
X104402210Y-124540204D01*
X104440305Y-124616394D01*
X104440305Y-124692585D01*
X104402210Y-124768775D01*
X104364114Y-124806871D01*
X104287924Y-124844966D01*
X104135543Y-124883061D01*
X103945067Y-124883061D01*
X103792686Y-124844966D01*
X103716495Y-124806871D01*
X103678400Y-124768775D01*
X103640305Y-124692585D01*
X98780715Y-123577333D02*
X99161667Y-123577333D01*
X98704524Y-123805905D02*
X98971191Y-123005905D01*
X99237858Y-123805905D01*
X99504524Y-123805905D02*
X99504524Y-123005905D01*
X99961667Y-123805905D01*
X99961667Y-123005905D01*
X100228333Y-123005905D02*
X100685476Y-123005905D01*
X100456905Y-123805905D02*
X100456905Y-123005905D01*
X107519048Y-100880952D02*
X107519048Y-101261905D01*
X107252381Y-100461905D02*
X107519048Y-100880952D01*
X107785715Y-100461905D01*
X108471429Y-101261905D02*
X108014286Y-101261905D01*
X108242857Y-101261905D02*
X108242857Y-100461905D01*
X108166667Y-100576190D01*
X108090476Y-100652381D01*
X108014286Y-100690476D01*
X99688524Y-89955905D02*
X99688524Y-89155905D01*
X99879000Y-89155905D01*
X99993286Y-89194000D01*
X100069477Y-89270190D01*
X100107572Y-89346381D01*
X100145667Y-89498762D01*
X100145667Y-89613048D01*
X100107572Y-89765429D01*
X100069477Y-89841619D01*
X99993286Y-89917810D01*
X99879000Y-89955905D01*
X99688524Y-89955905D01*
X100907572Y-89955905D02*
X100450429Y-89955905D01*
X100679000Y-89955905D02*
X100679000Y-89155905D01*
X100602810Y-89270190D01*
X100526619Y-89346381D01*
X100450429Y-89384476D01*
X112085714Y-95133333D02*
X112123810Y-95171428D01*
X112161905Y-95285714D01*
X112161905Y-95361904D01*
X112123810Y-95476190D01*
X112047619Y-95552381D01*
X111971429Y-95590476D01*
X111819048Y-95628571D01*
X111704762Y-95628571D01*
X111552381Y-95590476D01*
X111476190Y-95552381D01*
X111400000Y-95476190D01*
X111361905Y-95361904D01*
X111361905Y-95285714D01*
X111400000Y-95171428D01*
X111438095Y-95133333D01*
X112161905Y-94371428D02*
X112161905Y-94828571D01*
X112161905Y-94600000D02*
X111361905Y-94600000D01*
X111476190Y-94676190D01*
X111552381Y-94752381D01*
X111590476Y-94828571D01*
X119411714Y-84842333D02*
X119449810Y-84880428D01*
X119487905Y-84994714D01*
X119487905Y-85070904D01*
X119449810Y-85185190D01*
X119373619Y-85261381D01*
X119297429Y-85299476D01*
X119145048Y-85337571D01*
X119030762Y-85337571D01*
X118878381Y-85299476D01*
X118802190Y-85261381D01*
X118726000Y-85185190D01*
X118687905Y-85070904D01*
X118687905Y-84994714D01*
X118726000Y-84880428D01*
X118764095Y-84842333D01*
X118764095Y-84537571D02*
X118726000Y-84499476D01*
X118687905Y-84423285D01*
X118687905Y-84232809D01*
X118726000Y-84156619D01*
X118764095Y-84118523D01*
X118840286Y-84080428D01*
X118916476Y-84080428D01*
X119030762Y-84118523D01*
X119487905Y-84575666D01*
X119487905Y-84080428D01*
X108566667Y-96185714D02*
X108528572Y-96223810D01*
X108414286Y-96261905D01*
X108338096Y-96261905D01*
X108223810Y-96223810D01*
X108147619Y-96147619D01*
X108109524Y-96071429D01*
X108071429Y-95919048D01*
X108071429Y-95804762D01*
X108109524Y-95652381D01*
X108147619Y-95576190D01*
X108223810Y-95500000D01*
X108338096Y-95461905D01*
X108414286Y-95461905D01*
X108528572Y-95500000D01*
X108566667Y-95538095D01*
X108833334Y-95461905D02*
X109328572Y-95461905D01*
X109061905Y-95766667D01*
X109176191Y-95766667D01*
X109252381Y-95804762D01*
X109290477Y-95842857D01*
X109328572Y-95919048D01*
X109328572Y-96109524D01*
X109290477Y-96185714D01*
X109252381Y-96223810D01*
X109176191Y-96261905D01*
X108947619Y-96261905D01*
X108871429Y-96223810D01*
X108833334Y-96185714D01*
X109785714Y-116973333D02*
X109823810Y-117011428D01*
X109861905Y-117125714D01*
X109861905Y-117201904D01*
X109823810Y-117316190D01*
X109747619Y-117392381D01*
X109671429Y-117430476D01*
X109519048Y-117468571D01*
X109404762Y-117468571D01*
X109252381Y-117430476D01*
X109176190Y-117392381D01*
X109100000Y-117316190D01*
X109061905Y-117201904D01*
X109061905Y-117125714D01*
X109100000Y-117011428D01*
X109138095Y-116973333D01*
X109328571Y-116287619D02*
X109861905Y-116287619D01*
X109023810Y-116478095D02*
X109595238Y-116668571D01*
X109595238Y-116173333D01*
X114085714Y-95133333D02*
X114123810Y-95171428D01*
X114161905Y-95285714D01*
X114161905Y-95361904D01*
X114123810Y-95476190D01*
X114047619Y-95552381D01*
X113971429Y-95590476D01*
X113819048Y-95628571D01*
X113704762Y-95628571D01*
X113552381Y-95590476D01*
X113476190Y-95552381D01*
X113400000Y-95476190D01*
X113361905Y-95361904D01*
X113361905Y-95285714D01*
X113400000Y-95171428D01*
X113438095Y-95133333D01*
X113361905Y-94409523D02*
X113361905Y-94790476D01*
X113742857Y-94828571D01*
X113704762Y-94790476D01*
X113666667Y-94714285D01*
X113666667Y-94523809D01*
X113704762Y-94447619D01*
X113742857Y-94409523D01*
X113819048Y-94371428D01*
X114009524Y-94371428D01*
X114085714Y-94409523D01*
X114123810Y-94447619D01*
X114161905Y-94523809D01*
X114161905Y-94714285D01*
X114123810Y-94790476D01*
X114085714Y-94828571D01*
X105276667Y-83851714D02*
X105238572Y-83889810D01*
X105124286Y-83927905D01*
X105048096Y-83927905D01*
X104933810Y-83889810D01*
X104857619Y-83813619D01*
X104819524Y-83737429D01*
X104781429Y-83585048D01*
X104781429Y-83470762D01*
X104819524Y-83318381D01*
X104857619Y-83242190D01*
X104933810Y-83166000D01*
X105048096Y-83127905D01*
X105124286Y-83127905D01*
X105238572Y-83166000D01*
X105276667Y-83204095D01*
X105962381Y-83127905D02*
X105810000Y-83127905D01*
X105733810Y-83166000D01*
X105695715Y-83204095D01*
X105619524Y-83318381D01*
X105581429Y-83470762D01*
X105581429Y-83775524D01*
X105619524Y-83851714D01*
X105657619Y-83889810D01*
X105733810Y-83927905D01*
X105886191Y-83927905D01*
X105962381Y-83889810D01*
X106000477Y-83851714D01*
X106038572Y-83775524D01*
X106038572Y-83585048D01*
X106000477Y-83508857D01*
X105962381Y-83470762D01*
X105886191Y-83432667D01*
X105733810Y-83432667D01*
X105657619Y-83470762D01*
X105619524Y-83508857D01*
X105581429Y-83585048D01*
X111512714Y-117033333D02*
X111550810Y-117071428D01*
X111588905Y-117185714D01*
X111588905Y-117261904D01*
X111550810Y-117376190D01*
X111474619Y-117452381D01*
X111398429Y-117490476D01*
X111246048Y-117528571D01*
X111131762Y-117528571D01*
X110979381Y-117490476D01*
X110903190Y-117452381D01*
X110827000Y-117376190D01*
X110788905Y-117261904D01*
X110788905Y-117185714D01*
X110827000Y-117071428D01*
X110865095Y-117033333D01*
X110788905Y-116766666D02*
X110788905Y-116233333D01*
X111588905Y-116576190D01*
X114885714Y-127433333D02*
X114923810Y-127471428D01*
X114961905Y-127585714D01*
X114961905Y-127661904D01*
X114923810Y-127776190D01*
X114847619Y-127852381D01*
X114771429Y-127890476D01*
X114619048Y-127928571D01*
X114504762Y-127928571D01*
X114352381Y-127890476D01*
X114276190Y-127852381D01*
X114200000Y-127776190D01*
X114161905Y-127661904D01*
X114161905Y-127585714D01*
X114200000Y-127471428D01*
X114238095Y-127433333D01*
X114504762Y-126976190D02*
X114466667Y-127052381D01*
X114428571Y-127090476D01*
X114352381Y-127128571D01*
X114314286Y-127128571D01*
X114238095Y-127090476D01*
X114200000Y-127052381D01*
X114161905Y-126976190D01*
X114161905Y-126823809D01*
X114200000Y-126747619D01*
X114238095Y-126709523D01*
X114314286Y-126671428D01*
X114352381Y-126671428D01*
X114428571Y-126709523D01*
X114466667Y-126747619D01*
X114504762Y-126823809D01*
X114504762Y-126976190D01*
X114542857Y-127052381D01*
X114580952Y-127090476D01*
X114657143Y-127128571D01*
X114809524Y-127128571D01*
X114885714Y-127090476D01*
X114923810Y-127052381D01*
X114961905Y-126976190D01*
X114961905Y-126823809D01*
X114923810Y-126747619D01*
X114885714Y-126709523D01*
X114809524Y-126671428D01*
X114657143Y-126671428D01*
X114580952Y-126709523D01*
X114542857Y-126747619D01*
X114504762Y-126823809D01*
X114039667Y-90531905D02*
X113658714Y-90531905D01*
X113658714Y-89731905D01*
X114725381Y-90531905D02*
X114268238Y-90531905D01*
X114496809Y-90531905D02*
X114496809Y-89731905D01*
X114420619Y-89846190D01*
X114344428Y-89922381D01*
X114268238Y-89960476D01*
X104754905Y-100971333D02*
X104373952Y-101238000D01*
X104754905Y-101428476D02*
X103954905Y-101428476D01*
X103954905Y-101123714D01*
X103993000Y-101047523D01*
X104031095Y-101009428D01*
X104107286Y-100971333D01*
X104221571Y-100971333D01*
X104297762Y-101009428D01*
X104335857Y-101047523D01*
X104373952Y-101123714D01*
X104373952Y-101428476D01*
X104754905Y-100209428D02*
X104754905Y-100666571D01*
X104754905Y-100438000D02*
X103954905Y-100438000D01*
X104069190Y-100514190D01*
X104145381Y-100590381D01*
X104183476Y-100666571D01*
X118726905Y-102622333D02*
X118345952Y-102889000D01*
X118726905Y-103079476D02*
X117926905Y-103079476D01*
X117926905Y-102774714D01*
X117965000Y-102698523D01*
X118003095Y-102660428D01*
X118079286Y-102622333D01*
X118193571Y-102622333D01*
X118269762Y-102660428D01*
X118307857Y-102698523D01*
X118345952Y-102774714D01*
X118345952Y-103079476D01*
X118003095Y-102317571D02*
X117965000Y-102279476D01*
X117926905Y-102203285D01*
X117926905Y-102012809D01*
X117965000Y-101936619D01*
X118003095Y-101898523D01*
X118079286Y-101860428D01*
X118155476Y-101860428D01*
X118269762Y-101898523D01*
X118726905Y-102355666D01*
X118726905Y-101860428D01*
X118726905Y-107194333D02*
X118345952Y-107461000D01*
X118726905Y-107651476D02*
X117926905Y-107651476D01*
X117926905Y-107346714D01*
X117965000Y-107270523D01*
X118003095Y-107232428D01*
X118079286Y-107194333D01*
X118193571Y-107194333D01*
X118269762Y-107232428D01*
X118307857Y-107270523D01*
X118345952Y-107346714D01*
X118345952Y-107651476D01*
X117926905Y-106927666D02*
X117926905Y-106432428D01*
X118231667Y-106699095D01*
X118231667Y-106584809D01*
X118269762Y-106508619D01*
X118307857Y-106470523D01*
X118384048Y-106432428D01*
X118574524Y-106432428D01*
X118650714Y-106470523D01*
X118688810Y-106508619D01*
X118726905Y-106584809D01*
X118726905Y-106813381D01*
X118688810Y-106889571D01*
X118650714Y-106927666D01*
X104166667Y-93761905D02*
X103900000Y-93380952D01*
X103709524Y-93761905D02*
X103709524Y-92961905D01*
X104014286Y-92961905D01*
X104090477Y-93000000D01*
X104128572Y-93038095D01*
X104166667Y-93114286D01*
X104166667Y-93228571D01*
X104128572Y-93304762D01*
X104090477Y-93342857D01*
X104014286Y-93380952D01*
X103709524Y-93380952D01*
X104890477Y-92961905D02*
X104509524Y-92961905D01*
X104471429Y-93342857D01*
X104509524Y-93304762D01*
X104585715Y-93266667D01*
X104776191Y-93266667D01*
X104852381Y-93304762D01*
X104890477Y-93342857D01*
X104928572Y-93419048D01*
X104928572Y-93609524D01*
X104890477Y-93685714D01*
X104852381Y-93723810D01*
X104776191Y-93761905D01*
X104585715Y-93761905D01*
X104509524Y-93723810D01*
X104471429Y-93685714D01*
X119180905Y-139093666D02*
X119752333Y-139093666D01*
X119866619Y-139131762D01*
X119942810Y-139207952D01*
X119980905Y-139322238D01*
X119980905Y-139398428D01*
X119523762Y-138598428D02*
X119485667Y-138674619D01*
X119447571Y-138712714D01*
X119371381Y-138750809D01*
X119333286Y-138750809D01*
X119257095Y-138712714D01*
X119219000Y-138674619D01*
X119180905Y-138598428D01*
X119180905Y-138446047D01*
X119219000Y-138369857D01*
X119257095Y-138331761D01*
X119333286Y-138293666D01*
X119371381Y-138293666D01*
X119447571Y-138331761D01*
X119485667Y-138369857D01*
X119523762Y-138446047D01*
X119523762Y-138598428D01*
X119561857Y-138674619D01*
X119599952Y-138712714D01*
X119676143Y-138750809D01*
X119828524Y-138750809D01*
X119904714Y-138712714D01*
X119942810Y-138674619D01*
X119980905Y-138598428D01*
X119980905Y-138446047D01*
X119942810Y-138369857D01*
X119904714Y-138331761D01*
X119828524Y-138293666D01*
X119676143Y-138293666D01*
X119599952Y-138331761D01*
X119561857Y-138369857D01*
X119523762Y-138446047D01*
X117838095Y-134152381D02*
X117838095Y-134961905D01*
X117885714Y-135057143D01*
X117933333Y-135104762D01*
X118028571Y-135152381D01*
X118219048Y-135152381D01*
X118314286Y-135104762D01*
X118361905Y-135057143D01*
X118409524Y-134961905D01*
X118409524Y-134152381D01*
X119361905Y-134152381D02*
X118885714Y-134152381D01*
X118838095Y-134628571D01*
X118885714Y-134580952D01*
X118980952Y-134533333D01*
X119219048Y-134533333D01*
X119314286Y-134580952D01*
X119361905Y-134628571D01*
X119409524Y-134723810D01*
X119409524Y-134961905D01*
X119361905Y-135057143D01*
X119314286Y-135104762D01*
X119219048Y-135152381D01*
X118980952Y-135152381D01*
X118885714Y-135104762D01*
X118838095Y-135057143D01*
X106889905Y-127863524D02*
X107537524Y-127863524D01*
X107613714Y-127825429D01*
X107651810Y-127787333D01*
X107689905Y-127711143D01*
X107689905Y-127558762D01*
X107651810Y-127482571D01*
X107613714Y-127444476D01*
X107537524Y-127406381D01*
X106889905Y-127406381D01*
X107156571Y-126682572D02*
X107689905Y-126682572D01*
X106851810Y-126873048D02*
X107423238Y-127063524D01*
X107423238Y-126568286D01*
M02*
