G04 #@! TF.FileFunction,Copper,L1,Top,Signal*
%FSLAX46Y46*%
G04 Gerber Fmt 4.6, Leading zero omitted, Abs format (unit mm)*
G04 Created by KiCad (PCBNEW 4.0.6) date 04/23/17 17:59:47*
%MOMM*%
%LPD*%
G01*
G04 APERTURE LIST*
%ADD10C,0.100000*%
%ADD11C,0.300000*%
%ADD12R,1.700000X1.700000*%
%ADD13O,1.700000X1.700000*%
%ADD14R,0.700000X1.300000*%
%ADD15C,2.500000*%
%ADD16R,1.270000X0.970000*%
%ADD17R,0.970000X1.270000*%
%ADD18C,2.000000*%
%ADD19R,1.560000X0.650000*%
%ADD20R,0.550000X1.600000*%
%ADD21R,1.600000X0.550000*%
%ADD22R,2.000000X2.000000*%
%ADD23O,1.800000X1.300000*%
%ADD24C,2.200000*%
%ADD25R,1.000000X1.800000*%
%ADD26R,0.700000X0.400000*%
%ADD27R,1.250000X1.000000*%
%ADD28R,1.000000X1.250000*%
%ADD29R,0.900000X2.500000*%
%ADD30R,1.300000X0.700000*%
%ADD31O,2.286000X1.524000*%
%ADD32C,1.778000*%
%ADD33R,1.778000X1.778000*%
%ADD34R,0.600000X0.400000*%
%ADD35C,0.800000*%
%ADD36C,0.700000*%
%ADD37C,0.400000*%
%ADD38C,0.250000*%
%ADD39C,0.500000*%
%ADD40C,0.254000*%
G04 APERTURE END LIST*
D10*
D11*
X157831429Y-97118572D02*
X159331429Y-97118572D01*
X158617143Y-97118572D02*
X158617143Y-97975715D01*
X157831429Y-97975715D02*
X159331429Y-97975715D01*
X157831429Y-98690001D02*
X159331429Y-98690001D01*
X158260000Y-99190001D01*
X159331429Y-99690001D01*
X157831429Y-99690001D01*
X158402857Y-100404287D02*
X158402857Y-101547144D01*
X157902857Y-102190001D02*
X157831429Y-102404287D01*
X157831429Y-102761430D01*
X157902857Y-102904287D01*
X157974286Y-102975716D01*
X158117143Y-103047144D01*
X158260000Y-103047144D01*
X158402857Y-102975716D01*
X158474286Y-102904287D01*
X158545714Y-102761430D01*
X158617143Y-102475716D01*
X158688571Y-102332858D01*
X158760000Y-102261430D01*
X158902857Y-102190001D01*
X159045714Y-102190001D01*
X159188571Y-102261430D01*
X159260000Y-102332858D01*
X159331429Y-102475716D01*
X159331429Y-102832858D01*
X159260000Y-103047144D01*
X157902857Y-104261429D02*
X157831429Y-104118572D01*
X157831429Y-103832858D01*
X157902857Y-103690001D01*
X158045714Y-103618572D01*
X158617143Y-103618572D01*
X158760000Y-103690001D01*
X158831429Y-103832858D01*
X158831429Y-104118572D01*
X158760000Y-104261429D01*
X158617143Y-104332858D01*
X158474286Y-104332858D01*
X158331429Y-103618572D01*
X158831429Y-104975715D02*
X157831429Y-104975715D01*
X158688571Y-104975715D02*
X158760000Y-105047143D01*
X158831429Y-105190001D01*
X158831429Y-105404286D01*
X158760000Y-105547143D01*
X158617143Y-105618572D01*
X157831429Y-105618572D01*
X157902857Y-106261429D02*
X157831429Y-106404286D01*
X157831429Y-106690001D01*
X157902857Y-106832858D01*
X158045714Y-106904286D01*
X158117143Y-106904286D01*
X158260000Y-106832858D01*
X158331429Y-106690001D01*
X158331429Y-106475715D01*
X158402857Y-106332858D01*
X158545714Y-106261429D01*
X158617143Y-106261429D01*
X158760000Y-106332858D01*
X158831429Y-106475715D01*
X158831429Y-106690001D01*
X158760000Y-106832858D01*
X157831429Y-107761430D02*
X157902857Y-107618572D01*
X157974286Y-107547144D01*
X158117143Y-107475715D01*
X158545714Y-107475715D01*
X158688571Y-107547144D01*
X158760000Y-107618572D01*
X158831429Y-107761430D01*
X158831429Y-107975715D01*
X158760000Y-108118572D01*
X158688571Y-108190001D01*
X158545714Y-108261430D01*
X158117143Y-108261430D01*
X157974286Y-108190001D01*
X157902857Y-108118572D01*
X157831429Y-107975715D01*
X157831429Y-107761430D01*
X157831429Y-108904287D02*
X158831429Y-108904287D01*
X158545714Y-108904287D02*
X158688571Y-108975715D01*
X158760000Y-109047144D01*
X158831429Y-109190001D01*
X158831429Y-109332858D01*
X157831429Y-111832858D02*
X158545714Y-111332858D01*
X157831429Y-110975715D02*
X159331429Y-110975715D01*
X159331429Y-111547143D01*
X159260000Y-111690001D01*
X159188571Y-111761429D01*
X159045714Y-111832858D01*
X158831429Y-111832858D01*
X158688571Y-111761429D01*
X158617143Y-111690001D01*
X158545714Y-111547143D01*
X158545714Y-110975715D01*
X157902857Y-113047143D02*
X157831429Y-112904286D01*
X157831429Y-112618572D01*
X157902857Y-112475715D01*
X158045714Y-112404286D01*
X158617143Y-112404286D01*
X158760000Y-112475715D01*
X158831429Y-112618572D01*
X158831429Y-112904286D01*
X158760000Y-113047143D01*
X158617143Y-113118572D01*
X158474286Y-113118572D01*
X158331429Y-112404286D01*
X158831429Y-113618572D02*
X157831429Y-113975715D01*
X158831429Y-114332857D01*
X159188571Y-115975714D02*
X159260000Y-116047143D01*
X159331429Y-116190000D01*
X159331429Y-116547143D01*
X159260000Y-116690000D01*
X159188571Y-116761429D01*
X159045714Y-116832857D01*
X158902857Y-116832857D01*
X158688571Y-116761429D01*
X157831429Y-115904286D01*
X157831429Y-116832857D01*
X157974286Y-117475714D02*
X157902857Y-117547142D01*
X157831429Y-117475714D01*
X157902857Y-117404285D01*
X157974286Y-117475714D01*
X157831429Y-117475714D01*
X159331429Y-118475714D02*
X159331429Y-118618571D01*
X159260000Y-118761428D01*
X159188571Y-118832857D01*
X159045714Y-118904286D01*
X158760000Y-118975714D01*
X158402857Y-118975714D01*
X158117143Y-118904286D01*
X157974286Y-118832857D01*
X157902857Y-118761428D01*
X157831429Y-118618571D01*
X157831429Y-118475714D01*
X157902857Y-118332857D01*
X157974286Y-118261428D01*
X158117143Y-118190000D01*
X158402857Y-118118571D01*
X158760000Y-118118571D01*
X159045714Y-118190000D01*
X159188571Y-118261428D01*
X159260000Y-118332857D01*
X159331429Y-118475714D01*
X157831429Y-120261428D02*
X158617143Y-120261428D01*
X158760000Y-120189999D01*
X158831429Y-120047142D01*
X158831429Y-119761428D01*
X158760000Y-119618571D01*
X157902857Y-120261428D02*
X157831429Y-120118571D01*
X157831429Y-119761428D01*
X157902857Y-119618571D01*
X158045714Y-119547142D01*
X158188571Y-119547142D01*
X158331429Y-119618571D01*
X158402857Y-119761428D01*
X158402857Y-120118571D01*
X158474286Y-120261428D01*
D12*
X99949000Y-110744000D03*
D13*
X99949000Y-113284000D03*
X99949000Y-115824000D03*
X99949000Y-118364000D03*
D14*
X105730000Y-95123000D03*
X107630000Y-95123000D03*
D15*
X119888000Y-87376000D03*
X119888000Y-90805000D03*
D12*
X119634000Y-81026000D03*
D13*
X117094000Y-81026000D03*
X114554000Y-81026000D03*
X112014000Y-81026000D03*
X109474000Y-81026000D03*
X106934000Y-81026000D03*
D16*
X102743000Y-97277000D03*
X102743000Y-98557000D03*
D12*
X99949000Y-93599000D03*
D13*
X99949000Y-96139000D03*
X99949000Y-98679000D03*
X99949000Y-101219000D03*
X99949000Y-103759000D03*
X99949000Y-106299000D03*
D17*
X106470000Y-134600000D03*
X105200000Y-134600000D03*
X103930000Y-134600000D03*
D18*
X110064000Y-85780600D03*
X110064000Y-90280600D03*
X103564000Y-85780600D03*
X103564000Y-90280600D03*
D19*
X115269000Y-85405000D03*
X115269000Y-84455000D03*
X115269000Y-83505000D03*
X112569000Y-83505000D03*
X112569000Y-85405000D03*
D20*
X114941000Y-101668000D03*
X114141000Y-101668000D03*
X113341000Y-101668000D03*
X112541000Y-101668000D03*
X111741000Y-101668000D03*
X110941000Y-101668000D03*
X110141000Y-101668000D03*
X109341000Y-101668000D03*
D21*
X107891000Y-103118000D03*
X107891000Y-103918000D03*
X107891000Y-104718000D03*
X107891000Y-105518000D03*
X107891000Y-106318000D03*
X107891000Y-107118000D03*
X107891000Y-107918000D03*
X107891000Y-108718000D03*
D20*
X109341000Y-110168000D03*
X110141000Y-110168000D03*
X110941000Y-110168000D03*
X111741000Y-110168000D03*
X112541000Y-110168000D03*
X113341000Y-110168000D03*
X114141000Y-110168000D03*
X114941000Y-110168000D03*
D21*
X116391000Y-108718000D03*
X116391000Y-107918000D03*
X116391000Y-107118000D03*
X116391000Y-106318000D03*
X116391000Y-105518000D03*
X116391000Y-104718000D03*
X116391000Y-103918000D03*
X116391000Y-103118000D03*
D22*
X145500000Y-86000000D03*
D18*
X132800000Y-86000000D03*
D23*
X102300400Y-127232300D03*
X100268400Y-125454300D03*
X100268400Y-129010300D03*
D24*
X99695000Y-121412000D03*
D25*
X107600000Y-99300000D03*
X110100000Y-99300000D03*
D26*
X100980000Y-91282000D03*
X99680000Y-91282000D03*
X100980000Y-90582000D03*
X99680000Y-90582000D03*
D27*
X111800000Y-98500000D03*
X111800000Y-96500000D03*
X117475000Y-85582000D03*
X117475000Y-83582000D03*
D28*
X107700000Y-97300000D03*
X109700000Y-97300000D03*
D27*
X109500000Y-113300000D03*
X109500000Y-115300000D03*
X113700000Y-98500000D03*
X113700000Y-96500000D03*
D28*
X108950000Y-83439000D03*
X106950000Y-83439000D03*
D27*
X111100000Y-113300000D03*
X111100000Y-115300000D03*
X113030000Y-126254000D03*
X113030000Y-128254000D03*
D29*
X112596000Y-87884000D03*
X115496000Y-87884000D03*
D30*
X102743000Y-99888000D03*
X102743000Y-101788000D03*
X120015000Y-103439000D03*
X120015000Y-101539000D03*
X120015000Y-108011000D03*
X120015000Y-106111000D03*
D14*
X105730000Y-93345000D03*
X107630000Y-93345000D03*
D12*
X107300000Y-138700000D03*
D13*
X109840000Y-138700000D03*
X112380000Y-138700000D03*
X114920000Y-138700000D03*
X117460000Y-138700000D03*
D31*
X121235000Y-126897000D03*
X121235000Y-124897000D03*
X121235000Y-122897000D03*
X121235000Y-120897000D03*
X121235000Y-118897000D03*
X121235000Y-116897000D03*
X121235000Y-114897000D03*
X121235000Y-112897000D03*
X102235000Y-123397000D03*
X102235000Y-120897000D03*
X102235000Y-118397000D03*
X119485000Y-112897000D03*
X119485000Y-114897000D03*
X119485000Y-116897000D03*
X119485000Y-118897000D03*
X119485000Y-120897000D03*
X119485000Y-122897000D03*
X119485000Y-124897000D03*
X119485000Y-126897000D03*
D32*
X111350000Y-134600000D03*
X113850000Y-134600000D03*
X116350000Y-134600000D03*
D33*
X108850000Y-134600000D03*
D34*
X108328000Y-128254000D03*
X108328000Y-127254000D03*
X108328000Y-126254000D03*
X111128000Y-128254000D03*
X111128000Y-127254000D03*
X111128000Y-126254000D03*
D35*
X121700000Y-97790000D03*
X113030000Y-129667000D03*
X102108000Y-113093500D03*
X114000000Y-99900000D03*
X121700000Y-104700000D03*
X118100000Y-89300000D03*
X120000000Y-99800000D03*
X115834978Y-113800000D03*
X113100000Y-118000000D03*
X102155010Y-109621345D03*
X113900000Y-103600002D03*
X109728000Y-122047000D03*
X108204000Y-131508500D03*
X114800000Y-108400000D03*
X104514594Y-99858084D03*
D36*
X118400000Y-103700000D03*
X118400000Y-104700000D03*
X110099990Y-120900000D03*
X108000000Y-113000000D03*
X109500000Y-120000000D03*
X107500000Y-111000000D03*
X109289128Y-106080779D03*
X114500000Y-116900000D03*
X111800000Y-107502976D03*
X105940989Y-107943883D03*
X115000000Y-104600000D03*
D35*
X103805010Y-107200000D03*
X103800000Y-132500000D03*
D36*
X118400000Y-105700000D03*
X113028419Y-105363657D03*
X115000000Y-99700000D03*
X112700006Y-95100000D03*
X114900000Y-103300000D03*
X113460541Y-93201692D03*
X110000000Y-104200000D03*
X110100004Y-92400000D03*
X102988646Y-105579101D03*
X104504112Y-110923786D03*
X105384978Y-110716127D03*
X106997500Y-116903500D03*
X114173000Y-112458500D03*
X115734978Y-131700000D03*
X116699998Y-109412990D03*
X117700000Y-109412990D03*
X106900006Y-114500000D03*
X107759500Y-130047998D03*
X114796046Y-107177215D03*
X114899151Y-106212578D03*
X106680000Y-115506500D03*
X115129968Y-128600000D03*
X110939568Y-111760645D03*
X113326250Y-112075524D03*
X115129968Y-127429801D03*
D37*
X100972000Y-120897000D02*
X100457000Y-121412000D01*
X100457000Y-121412000D02*
X99695000Y-121412000D01*
X102235000Y-120897000D02*
X100972000Y-120897000D01*
D38*
X110100000Y-99300000D02*
X111000000Y-99300000D01*
X111000000Y-99300000D02*
X111800000Y-98500000D01*
X110100000Y-99300000D02*
X110100000Y-101627000D01*
X110100000Y-101627000D02*
X110141000Y-101668000D01*
X108727500Y-96202500D02*
X106489500Y-96202500D01*
D39*
X109700000Y-97300000D02*
X109700000Y-97175000D01*
X109700000Y-97175000D02*
X108727500Y-96202500D01*
D38*
X113665000Y-137287000D02*
X113665000Y-139827000D01*
D39*
X115461001Y-135490999D02*
X113665000Y-137287000D01*
X116350000Y-134600000D02*
X115461001Y-135488999D01*
X115461001Y-135488999D02*
X115461001Y-135490999D01*
X112541000Y-110168000D02*
X112541000Y-111468000D01*
X112521249Y-114790249D02*
X112628000Y-114897000D01*
X112521249Y-111487751D02*
X112521249Y-114790249D01*
X112541000Y-111468000D02*
X112521249Y-111487751D01*
X119485000Y-114897000D02*
X113900000Y-114897000D01*
X113900000Y-114897000D02*
X112628000Y-114897000D01*
X116220010Y-111679990D02*
X113900000Y-114000000D01*
X113900000Y-114000000D02*
X113900000Y-114897000D01*
X121900000Y-110200000D02*
X120420010Y-111679990D01*
X120420010Y-111679990D02*
X116220010Y-111679990D01*
X121900000Y-105465685D02*
X121900000Y-110200000D01*
X121700000Y-104700000D02*
X121700000Y-105265685D01*
X121700000Y-105265685D02*
X121900000Y-105465685D01*
X112628000Y-114897000D02*
X112225000Y-115300000D01*
X112225000Y-115300000D02*
X111100000Y-115300000D01*
X121235000Y-114897000D02*
X119485000Y-114897000D01*
X109500000Y-115300000D02*
X111100000Y-115300000D01*
X109500000Y-115300000D02*
X109375000Y-115300000D01*
X109375000Y-115300000D02*
X108375000Y-114300000D01*
X108375000Y-114300000D02*
X107891404Y-114300000D01*
X107891404Y-114300000D02*
X106691404Y-113100000D01*
X106691404Y-113100000D02*
X102114500Y-113100000D01*
X102114500Y-113100000D02*
X102108000Y-113093500D01*
X101300000Y-109575998D02*
X101300000Y-112285500D01*
X99949000Y-106299000D02*
X99949000Y-108224998D01*
X99949000Y-108224998D02*
X101300000Y-109575998D01*
X101300000Y-112285500D02*
X102108000Y-113093500D01*
X111128000Y-127254000D02*
X110646000Y-127254000D01*
X110646000Y-127254000D02*
X108700000Y-129200000D01*
X108700000Y-129200000D02*
X107600000Y-129200000D01*
X107600000Y-129200000D02*
X103878000Y-125478000D01*
X103878000Y-125478000D02*
X103878000Y-122135000D01*
X113341000Y-102793598D02*
X113341000Y-101668000D01*
X113039609Y-103094989D02*
X113341000Y-102793598D01*
X112221279Y-103094989D02*
X113039609Y-103094989D01*
X111741000Y-102614710D02*
X112221279Y-103094989D01*
X111741000Y-101668000D02*
X111741000Y-102614710D01*
X117475000Y-83582000D02*
X118600000Y-83582000D01*
X118600000Y-83582000D02*
X121593001Y-86575001D01*
X121593001Y-86575001D02*
X121593001Y-89099999D01*
X121593001Y-89099999D02*
X119888000Y-90805000D01*
X112712500Y-90805000D02*
X110064000Y-88156500D01*
X110064000Y-88156500D02*
X110064000Y-85780600D01*
X117095000Y-90805000D02*
X112712500Y-90805000D01*
X99680000Y-91282000D02*
X99680000Y-90582000D01*
X113030000Y-128254000D02*
X113030000Y-129667000D01*
X110064000Y-85780600D02*
X108180600Y-85780600D01*
X108180600Y-85780600D02*
X106950000Y-84550000D01*
X106950000Y-84550000D02*
X106950000Y-83439000D01*
X103564000Y-85780600D02*
X103564000Y-87636000D01*
X101500000Y-89700000D02*
X100400000Y-89700000D01*
X100400000Y-89700000D02*
X99680000Y-90420000D01*
X103564000Y-87636000D02*
X101500000Y-89700000D01*
X99680000Y-90420000D02*
X99680000Y-90582000D01*
X113341000Y-101668000D02*
X113341000Y-100559000D01*
X113341000Y-100559000D02*
X114000000Y-99900000D01*
X113700000Y-96500000D02*
X114825000Y-96500000D01*
X114825000Y-96500000D02*
X117095000Y-94230000D01*
X117095000Y-94230000D02*
X117095000Y-90805000D01*
X111800000Y-96500000D02*
X113700000Y-96500000D01*
X109700000Y-97300000D02*
X111000000Y-97300000D01*
X111000000Y-97300000D02*
X111800000Y-96500000D01*
X113030000Y-128254000D02*
X112030000Y-127254000D01*
X112030000Y-127254000D02*
X111128000Y-127254000D01*
X102235000Y-123397000D02*
X102616000Y-123397000D01*
X102616000Y-123397000D02*
X103878000Y-122135000D01*
X103878000Y-122135000D02*
X103878000Y-119659000D01*
X100268400Y-125454300D02*
X100268400Y-125363600D01*
X100268400Y-125363600D02*
X102235000Y-123397000D01*
X102616000Y-118397000D02*
X102235000Y-118397000D01*
X103878000Y-119659000D02*
X102616000Y-118397000D01*
X102235000Y-118397000D02*
X99982000Y-118397000D01*
X99982000Y-118397000D02*
X99949000Y-118364000D01*
X117593000Y-83700000D02*
X117475000Y-83582000D01*
X106950000Y-83439000D02*
X106950000Y-84564000D01*
X105733400Y-85780600D02*
X103564000Y-85780600D01*
X106950000Y-84564000D02*
X105733400Y-85780600D01*
X106950000Y-83439000D02*
X106950000Y-81042000D01*
X106950000Y-81042000D02*
X106934000Y-81026000D01*
X117475000Y-83582000D02*
X116602000Y-84455000D01*
X116602000Y-84455000D02*
X115269000Y-84455000D01*
X119888000Y-90805000D02*
X117095000Y-90805000D01*
X118094000Y-85582000D02*
X117475000Y-85582000D01*
X119888000Y-87376000D02*
X118094000Y-85582000D01*
X115269000Y-85405000D02*
X114294998Y-85405000D01*
X114294998Y-85405000D02*
X114033999Y-85144001D01*
X114294998Y-83505000D02*
X115269000Y-83505000D01*
X114033999Y-85144001D02*
X114033999Y-83765999D01*
X114033999Y-83765999D02*
X114294998Y-83505000D01*
X118100000Y-89164000D02*
X118100000Y-89300000D01*
X119888000Y-87376000D02*
X118100000Y-89164000D01*
X119888000Y-87376000D02*
X119900000Y-87364000D01*
X119888000Y-87376000D02*
X119776000Y-87376000D01*
X117982000Y-85582000D02*
X117475000Y-85582000D01*
X120000000Y-99800000D02*
X120000000Y-101524000D01*
X120000000Y-101524000D02*
X120015000Y-101539000D01*
X117475000Y-85582000D02*
X115446000Y-85582000D01*
X115446000Y-85582000D02*
X115269000Y-85405000D01*
X115496000Y-87884000D02*
X115496000Y-85632000D01*
X115496000Y-85632000D02*
X115269000Y-85405000D01*
D38*
X107600000Y-99300000D02*
X107600000Y-99700000D01*
X107600000Y-99700000D02*
X109341000Y-101441000D01*
X109341000Y-101441000D02*
X109341000Y-101668000D01*
X107700000Y-97300000D02*
X107700000Y-99200000D01*
X107700000Y-99200000D02*
X107600000Y-99300000D01*
D39*
X119485000Y-112897000D02*
X121235000Y-112897000D01*
X115834978Y-113800000D02*
X116737978Y-112897000D01*
X116737978Y-112897000D02*
X119485000Y-112897000D01*
X109728000Y-122047000D02*
X108694999Y-121013999D01*
X110308598Y-118000000D02*
X113100000Y-118000000D01*
X108694999Y-121013999D02*
X108694999Y-119613599D01*
X108694999Y-119613599D02*
X110308598Y-118000000D01*
X109500000Y-113300000D02*
X109500000Y-112300000D01*
X109500000Y-112300000D02*
X110141000Y-111659000D01*
X110141000Y-111659000D02*
X110141000Y-110168000D01*
X102155010Y-109357401D02*
X102155010Y-109621345D01*
X101254001Y-104953323D02*
X101254001Y-108456392D01*
X104514594Y-101692730D02*
X101254001Y-104953323D01*
X104514594Y-99858084D02*
X104514594Y-101692730D01*
X101254001Y-108456392D02*
X102155010Y-109357401D01*
X110941000Y-101668000D02*
X110941000Y-102968000D01*
X110941000Y-102968000D02*
X111773000Y-103800000D01*
X113700002Y-103800000D02*
X113900000Y-103600002D01*
X111773000Y-103800000D02*
X113700002Y-103800000D01*
X113900000Y-107500000D02*
X113900000Y-103600002D01*
X114800000Y-108400000D02*
X113900000Y-107500000D01*
X114287001Y-108912999D02*
X114800000Y-108400000D01*
X110141000Y-109073998D02*
X110301999Y-108912999D01*
X110141000Y-110168000D02*
X110141000Y-109073998D01*
X110301999Y-108912999D02*
X114287001Y-108912999D01*
X106470000Y-133242500D02*
X108204000Y-131508500D01*
X106470000Y-134600000D02*
X106470000Y-133242500D01*
X110100000Y-110209000D02*
X110141000Y-110168000D01*
X112569000Y-83505000D02*
X112600000Y-83474000D01*
X112600000Y-83474000D02*
X112600000Y-83000000D01*
X112600000Y-83000000D02*
X112000000Y-82400000D01*
X112000000Y-82400000D02*
X112014000Y-82386000D01*
X112014000Y-82386000D02*
X112014000Y-81026000D01*
X113700000Y-98500000D02*
X114825000Y-98500000D01*
X114825000Y-98500000D02*
X122450001Y-90874999D01*
X122450001Y-90874999D02*
X122450001Y-83891999D01*
X122450001Y-83891999D02*
X121185001Y-82626999D01*
X121185001Y-82626999D02*
X112573001Y-82626999D01*
X112573001Y-82626999D02*
X112569000Y-82631000D01*
X112569000Y-82631000D02*
X112569000Y-83505000D01*
X113575000Y-98500000D02*
X113700000Y-98500000D01*
X112541000Y-99534000D02*
X113575000Y-98500000D01*
X112541000Y-100159000D02*
X112541000Y-99534000D01*
X104484678Y-99888000D02*
X104514594Y-99858084D01*
X102743000Y-99888000D02*
X104484678Y-99888000D01*
X110941000Y-101668000D02*
X110941000Y-100669002D01*
X110941000Y-100669002D02*
X111451002Y-100159000D01*
X111451002Y-100159000D02*
X112541000Y-100159000D01*
X102743000Y-99888000D02*
X102743000Y-98557000D01*
X112541000Y-100159000D02*
X112541000Y-101668000D01*
X112569000Y-83505000D02*
X109016000Y-83505000D01*
X109016000Y-83505000D02*
X108950000Y-83439000D01*
D37*
X111100000Y-113300000D02*
X111741000Y-112659000D01*
X111741000Y-112659000D02*
X111741000Y-110168000D01*
X105730000Y-95123000D02*
X104221000Y-95123000D01*
X104221000Y-95123000D02*
X100980000Y-91882000D01*
X100980000Y-91882000D02*
X100980000Y-91282000D01*
X105730000Y-93345000D02*
X104493000Y-93345000D01*
X104493000Y-93345000D02*
X101730000Y-90582000D01*
X101730000Y-90582000D02*
X100980000Y-90582000D01*
X118400000Y-103700000D02*
X118182000Y-103918000D01*
X118182000Y-103918000D02*
X116391000Y-103918000D01*
X118382000Y-104718000D02*
X118400000Y-104700000D01*
X116391000Y-104718000D02*
X118382000Y-104718000D01*
X116409000Y-104700000D02*
X118400000Y-104700000D01*
X99949000Y-96139000D02*
X101605000Y-96139000D01*
X101605000Y-96139000D02*
X102743000Y-97277000D01*
X110102990Y-120897000D02*
X110099990Y-120900000D01*
X119485000Y-120897000D02*
X110102990Y-120897000D01*
X121235000Y-120897000D02*
X119485000Y-120897000D01*
X106744998Y-110539002D02*
X106744998Y-111744998D01*
X106744998Y-111744998D02*
X108000000Y-113000000D01*
X107891000Y-109393000D02*
X106744998Y-110539002D01*
X99949000Y-93599000D02*
X101199000Y-93599000D01*
X101199000Y-93599000D02*
X105349999Y-97749999D01*
X105349999Y-97749999D02*
X105349999Y-102050001D01*
X105349999Y-102050001D02*
X102100000Y-105300000D01*
X102100000Y-105300000D02*
X102100000Y-108376066D01*
X102100000Y-108376066D02*
X102999977Y-109276043D01*
X102999977Y-109276043D02*
X102999977Y-110999977D01*
X102999977Y-110999977D02*
X104000000Y-112000000D01*
X104000000Y-112000000D02*
X105300000Y-112000000D01*
X105300000Y-112000000D02*
X107891000Y-109409000D01*
X107891000Y-109409000D02*
X107891000Y-109393000D01*
X107891000Y-109393000D02*
X107891000Y-108718000D01*
X119485000Y-118897000D02*
X118652010Y-119729990D01*
X118652010Y-119729990D02*
X118620609Y-119729990D01*
X118620609Y-119729990D02*
X118350599Y-120000000D01*
X118350599Y-120000000D02*
X109500000Y-120000000D01*
X121235000Y-118897000D02*
X119485000Y-118897000D01*
X108332000Y-110168000D02*
X107500000Y-111000000D01*
X109341000Y-110168000D02*
X108332000Y-110168000D01*
X113000000Y-107100000D02*
X111980779Y-106080779D01*
X111980779Y-106080779D02*
X109289128Y-106080779D01*
X113000000Y-107910004D02*
X113000000Y-107100000D01*
X112652016Y-108257988D02*
X113000000Y-107910004D01*
X110030685Y-108257988D02*
X112652016Y-108257988D01*
X109341000Y-108947673D02*
X110030685Y-108257988D01*
X109341000Y-110168000D02*
X109341000Y-108947673D01*
X114503000Y-116897000D02*
X114500000Y-116900000D01*
X119485000Y-116897000D02*
X114503000Y-116897000D01*
X121235000Y-116897000D02*
X119485000Y-116897000D01*
X109930083Y-107502976D02*
X111800000Y-107502976D01*
X107891000Y-107918000D02*
X109515059Y-107918000D01*
X109515059Y-107918000D02*
X109930083Y-107502976D01*
X105966872Y-107918000D02*
X105940989Y-107943883D01*
X107891000Y-107918000D02*
X105966872Y-107918000D01*
X115000000Y-105094974D02*
X115000000Y-104600000D01*
X116391000Y-105518000D02*
X115423026Y-105518000D01*
X115423026Y-105518000D02*
X115000000Y-105094974D01*
X102743000Y-101788000D02*
X102743000Y-102538000D01*
X102743000Y-102538000D02*
X101522000Y-103759000D01*
X101522000Y-103759000D02*
X99949000Y-103759000D01*
D39*
X104687010Y-106318000D02*
X103805010Y-107200000D01*
X107891000Y-106318000D02*
X104687010Y-106318000D01*
X103800000Y-132500000D02*
X103800000Y-134470000D01*
X103800000Y-134470000D02*
X103930000Y-134600000D01*
D37*
X112596000Y-87884000D02*
X112596000Y-85432000D01*
X112596000Y-85432000D02*
X112569000Y-85405000D01*
X120015000Y-106111000D02*
X120511000Y-106111000D01*
X120511000Y-106111000D02*
X121200000Y-106800000D01*
X121200000Y-106800000D02*
X121200000Y-109117402D01*
X121200000Y-109117402D02*
X120149402Y-110168000D01*
X120149402Y-110168000D02*
X114941000Y-110168000D01*
X120015000Y-103439000D02*
X120000000Y-103454000D01*
X120000000Y-103454000D02*
X120000000Y-106096000D01*
X120000000Y-106096000D02*
X120015000Y-106111000D01*
X120015000Y-108011000D02*
X118400000Y-106396000D01*
X118400000Y-106396000D02*
X118400000Y-105700000D01*
X112281061Y-105363657D02*
X113028419Y-105363657D01*
X109015000Y-104598001D02*
X109144998Y-104468003D01*
X109144998Y-104468003D02*
X109144998Y-103737598D01*
X110262402Y-103344998D02*
X112281061Y-105363657D01*
X109537598Y-103344998D02*
X110262402Y-103344998D01*
X109144998Y-103737598D02*
X109537598Y-103344998D01*
X108010999Y-104598001D02*
X109015000Y-104598001D01*
X107891000Y-104718000D02*
X108010999Y-104598001D01*
X114941000Y-99759000D02*
X115000000Y-99700000D01*
X114941000Y-101668000D02*
X114941000Y-99759000D01*
X112677006Y-95123000D02*
X112700006Y-95100000D01*
X107630000Y-95123000D02*
X112677006Y-95123000D01*
X114141000Y-102541000D02*
X114900000Y-103300000D01*
X114141000Y-101668000D02*
X114141000Y-102541000D01*
X113317233Y-93345000D02*
X113460541Y-93201692D01*
X107630000Y-93345000D02*
X113317233Y-93345000D01*
X107891000Y-105518000D02*
X108781012Y-105518000D01*
X108781012Y-105518000D02*
X109096001Y-105203011D01*
X109096001Y-105203011D02*
X109491963Y-105203011D01*
X110000000Y-104694974D02*
X110000000Y-104200000D01*
X109491963Y-105203011D02*
X110000000Y-104694974D01*
X110064000Y-90280600D02*
X110064000Y-92363996D01*
X110064000Y-92363996D02*
X110100004Y-92400000D01*
X103564000Y-90280600D02*
X110064000Y-90280600D01*
X102988646Y-105579101D02*
X105467747Y-103100000D01*
X105467747Y-103100000D02*
X105485747Y-103118000D01*
X105485747Y-103118000D02*
X107891000Y-103118000D01*
X107891000Y-103918000D02*
X105767149Y-103918000D01*
X104504112Y-109769816D02*
X104504112Y-110923786D01*
X102900000Y-108165704D02*
X104504112Y-109769816D01*
X102900000Y-106785149D02*
X102900000Y-108165704D01*
X105767149Y-103918000D02*
X102900000Y-106785149D01*
X119485000Y-126897000D02*
X119104000Y-126897000D01*
X119104000Y-126897000D02*
X115651000Y-123444000D01*
X115651000Y-123444000D02*
X109410500Y-123444000D01*
X109410500Y-123444000D02*
X106997500Y-121031000D01*
X106997500Y-121031000D02*
X106997500Y-116903500D01*
X121235000Y-126897000D02*
X119485000Y-126897000D01*
X104900000Y-107400000D02*
X104900000Y-109000000D01*
X105384978Y-109484978D02*
X105384978Y-110716127D01*
X104900000Y-109000000D02*
X105384978Y-109484978D01*
X105182000Y-107118000D02*
X104900000Y-107400000D01*
X107891000Y-107118000D02*
X105182000Y-107118000D01*
X114141000Y-112426500D02*
X114173000Y-112458500D01*
X114141000Y-110168000D02*
X114141000Y-112426500D01*
X114465978Y-132969000D02*
X115734978Y-131700000D01*
X112649000Y-132969000D02*
X114465978Y-132969000D01*
X108267500Y-136398000D02*
X107300000Y-137365500D01*
X107300000Y-137365500D02*
X107300000Y-138700000D01*
X112104998Y-136398000D02*
X108267500Y-136398000D01*
X112630999Y-135871999D02*
X112104998Y-136398000D01*
D38*
X112649000Y-132969000D02*
X112630999Y-132987001D01*
X112630999Y-132987001D02*
X112630999Y-135871999D01*
D37*
X116391000Y-109393000D02*
X116410990Y-109412990D01*
X116391000Y-108718000D02*
X116391000Y-109393000D01*
X116410990Y-109412990D02*
X116699998Y-109412990D01*
X117591000Y-107918000D02*
X117700000Y-108027000D01*
X116391000Y-107918000D02*
X117591000Y-107918000D01*
X117700000Y-108027000D02*
X117700000Y-109412990D01*
X111128000Y-128254000D02*
X111128000Y-128472000D01*
X108254474Y-130047998D02*
X107759500Y-130047998D01*
X111128000Y-128472000D02*
X109552000Y-130048000D01*
X109552000Y-130048000D02*
X108254476Y-130048000D01*
X108254476Y-130048000D02*
X108254474Y-130047998D01*
X101165000Y-114500000D02*
X106900006Y-114500000D01*
X99949000Y-113284000D02*
X101165000Y-114500000D01*
X116391000Y-107118000D02*
X114855261Y-107118000D01*
X114855261Y-107118000D02*
X114796046Y-107177215D01*
X108328000Y-128254000D02*
X107954000Y-128254000D01*
X107954000Y-128254000D02*
X104985990Y-125285990D01*
X104985990Y-125285990D02*
X104985990Y-115526990D01*
X104985990Y-115526990D02*
X104965500Y-115506500D01*
X101993500Y-115506500D02*
X101676000Y-115824000D01*
X101676000Y-115824000D02*
X99949000Y-115824000D01*
X104965500Y-115506500D02*
X101993500Y-115506500D01*
X115004573Y-106318000D02*
X114899151Y-106212578D01*
X116391000Y-106318000D02*
X115004573Y-106318000D01*
X106680000Y-115506500D02*
X104965500Y-115506500D01*
X116391000Y-103118000D02*
X117591000Y-103118000D01*
X122783010Y-114413609D02*
X122783010Y-115380391D01*
X122778010Y-114408609D02*
X122783010Y-114413609D01*
X117591000Y-103118000D02*
X118209000Y-102500000D01*
X122778010Y-120408609D02*
X122783010Y-120413609D01*
X122778010Y-112408609D02*
X122783010Y-112413609D01*
X121200000Y-102500000D02*
X122778010Y-104078010D01*
X122783010Y-118413609D02*
X122783010Y-119380391D01*
X122783010Y-117380391D02*
X122778010Y-117385391D01*
X118209000Y-102500000D02*
X121200000Y-102500000D01*
X122778010Y-118408609D02*
X122783010Y-118413609D01*
X122778010Y-104078010D02*
X122778010Y-112408609D01*
X122778010Y-117385391D02*
X122778010Y-118408609D01*
X122778010Y-119385391D02*
X122778010Y-120408609D01*
X122783010Y-112413609D02*
X122783010Y-113380391D01*
X122783010Y-113380391D02*
X122778010Y-113385391D01*
X122778010Y-113385391D02*
X122778010Y-114408609D01*
X122783010Y-115380391D02*
X122778010Y-115385391D01*
X122778010Y-115385391D02*
X122778010Y-116408609D01*
X122778010Y-116408609D02*
X122783010Y-116413609D01*
X122783010Y-119380391D02*
X122778010Y-119385391D01*
X122783010Y-116413609D02*
X122783010Y-117380391D01*
X122783010Y-120413609D02*
X122783010Y-121380391D01*
X122783010Y-121380391D02*
X122778010Y-121385391D01*
X122778010Y-121385391D02*
X122778010Y-121734990D01*
X122778010Y-121734990D02*
X121616000Y-122897000D01*
X121616000Y-122897000D02*
X121235000Y-122897000D01*
X121235000Y-122897000D02*
X119485000Y-122897000D01*
X121235000Y-124897000D02*
X119485000Y-124897000D01*
X117644001Y-135975999D02*
X117644001Y-131114033D01*
X117644001Y-131114033D02*
X115129968Y-128600000D01*
X114920000Y-138700000D02*
X117644001Y-135975999D01*
X110941000Y-111759213D02*
X110939568Y-111760645D01*
X110941000Y-110168000D02*
X110941000Y-111759213D01*
X113341000Y-112060774D02*
X113326250Y-112075524D01*
X113341000Y-110168000D02*
X113341000Y-112060774D01*
X115132612Y-127432445D02*
X115129968Y-127429801D01*
X115334969Y-127432445D02*
X115132612Y-127432445D01*
X117460000Y-138700000D02*
X118309999Y-137850001D01*
X118309999Y-137850001D02*
X118309999Y-130407475D01*
X118309999Y-130407475D02*
X115334969Y-127432445D01*
D39*
X113030000Y-126254000D02*
X113155000Y-126254000D01*
X113155000Y-126254000D02*
X114155000Y-127254000D01*
X114046000Y-131699000D02*
X110362000Y-131699000D01*
X114155000Y-131590000D02*
X114046000Y-131699000D01*
X110362000Y-131699000D02*
X108850000Y-133211000D01*
X108850000Y-133211000D02*
X108850000Y-134600000D01*
X114155000Y-127254000D02*
X114155000Y-131590000D01*
X113030000Y-126254000D02*
X112905000Y-126254000D01*
X112905000Y-126254000D02*
X111905000Y-125254000D01*
X111905000Y-125254000D02*
X110746000Y-125254000D01*
X110746000Y-125254000D02*
X108746000Y-127254000D01*
X108746000Y-127254000D02*
X108328000Y-127254000D01*
X108850000Y-134600000D02*
X107650000Y-135800000D01*
X107650000Y-135800000D02*
X105739998Y-135800000D01*
X105739998Y-135800000D02*
X105200000Y-135260002D01*
X105200000Y-135260002D02*
X105200000Y-134600000D01*
X100268400Y-129010300D02*
X101668400Y-129010300D01*
X101668400Y-129010300D02*
X105200000Y-132541900D01*
X105200000Y-132541900D02*
X105200000Y-134600000D01*
D40*
G36*
X106193348Y-116233453D02*
X106377614Y-116309967D01*
X106270547Y-116416848D01*
X106139649Y-116732085D01*
X106139352Y-117073418D01*
X106269699Y-117388883D01*
X106289500Y-117408719D01*
X106289500Y-121030995D01*
X106289499Y-121031000D01*
X106343393Y-121301940D01*
X106496868Y-121531632D01*
X108909866Y-123944629D01*
X108909868Y-123944632D01*
X109097984Y-124070327D01*
X109139560Y-124098107D01*
X109410500Y-124152000D01*
X115357736Y-124152000D01*
X117851608Y-126645871D01*
X117801655Y-126897000D01*
X117898328Y-127383008D01*
X118173629Y-127795026D01*
X118585647Y-128070327D01*
X119071655Y-128167000D01*
X119898345Y-128167000D01*
X120360000Y-128075171D01*
X120821655Y-128167000D01*
X121648345Y-128167000D01*
X122134353Y-128070327D01*
X122546371Y-127795026D01*
X122821672Y-127383008D01*
X122873000Y-127124965D01*
X122873000Y-140417000D01*
X104583000Y-140417000D01*
X104583000Y-138000000D01*
X104571798Y-137943684D01*
X104571798Y-137886263D01*
X104343437Y-136738213D01*
X104343437Y-136738211D01*
X104268790Y-136558000D01*
X104256386Y-136528053D01*
X104256385Y-136528052D01*
X103738480Y-135752952D01*
X104415000Y-135752952D01*
X104570507Y-135723692D01*
X104622778Y-135734277D01*
X104664013Y-135795989D01*
X105204011Y-136335987D01*
X105449923Y-136500301D01*
X105739998Y-136558000D01*
X107106236Y-136558000D01*
X106799368Y-136864868D01*
X106645893Y-137094560D01*
X106598653Y-137332048D01*
X106450000Y-137332048D01*
X106261747Y-137367470D01*
X106088847Y-137478728D01*
X105972855Y-137648488D01*
X105932048Y-137850000D01*
X105932048Y-139550000D01*
X105967470Y-139738253D01*
X106078728Y-139911153D01*
X106248488Y-140027145D01*
X106450000Y-140067952D01*
X108150000Y-140067952D01*
X108338253Y-140032530D01*
X108511153Y-139921272D01*
X108627145Y-139751512D01*
X108667952Y-139550000D01*
X108667952Y-139369879D01*
X108879749Y-139686856D01*
X109320316Y-139981233D01*
X109840000Y-140084605D01*
X110359684Y-139981233D01*
X110800251Y-139686856D01*
X111094628Y-139246289D01*
X111110000Y-139169009D01*
X111125372Y-139246289D01*
X111419749Y-139686856D01*
X111860316Y-139981233D01*
X112380000Y-140084605D01*
X112899684Y-139981233D01*
X113340251Y-139686856D01*
X113634628Y-139246289D01*
X113650000Y-139169009D01*
X113665372Y-139246289D01*
X113959749Y-139686856D01*
X114400316Y-139981233D01*
X114920000Y-140084605D01*
X115439684Y-139981233D01*
X115880251Y-139686856D01*
X116174628Y-139246289D01*
X116190000Y-139169009D01*
X116205372Y-139246289D01*
X116499749Y-139686856D01*
X116940316Y-139981233D01*
X117460000Y-140084605D01*
X117979684Y-139981233D01*
X118420251Y-139686856D01*
X118714628Y-139246289D01*
X118818000Y-138726605D01*
X118818000Y-138673395D01*
X118763228Y-138398036D01*
X118810631Y-138350633D01*
X118964106Y-138120941D01*
X119017999Y-137850001D01*
X119017999Y-130407480D01*
X119018000Y-130407475D01*
X118964106Y-130136535D01*
X118904949Y-130048000D01*
X118810631Y-129906843D01*
X118810628Y-129906841D01*
X115864503Y-126960715D01*
X115857769Y-126944418D01*
X115616620Y-126702848D01*
X115301383Y-126571950D01*
X114960050Y-126571653D01*
X114666089Y-126693115D01*
X114172952Y-126199978D01*
X114172952Y-125754000D01*
X114137530Y-125565747D01*
X114026272Y-125392847D01*
X113856512Y-125276855D01*
X113655000Y-125236048D01*
X112959022Y-125236048D01*
X112440987Y-124718013D01*
X112195074Y-124553699D01*
X111905000Y-124496000D01*
X110746000Y-124496000D01*
X110455926Y-124553699D01*
X110210013Y-124718013D01*
X109091638Y-125836388D01*
X108999272Y-125692847D01*
X108829512Y-125576855D01*
X108628000Y-125536048D01*
X108028000Y-125536048D01*
X107839747Y-125571470D01*
X107666847Y-125682728D01*
X107550855Y-125852488D01*
X107510048Y-126054000D01*
X107510048Y-126454000D01*
X107545470Y-126642253D01*
X107617751Y-126754582D01*
X107552031Y-126850767D01*
X105693990Y-124992726D01*
X105693990Y-116214500D01*
X106174428Y-116214500D01*
X106193348Y-116233453D01*
X106193348Y-116233453D01*
G37*
X106193348Y-116233453D02*
X106377614Y-116309967D01*
X106270547Y-116416848D01*
X106139649Y-116732085D01*
X106139352Y-117073418D01*
X106269699Y-117388883D01*
X106289500Y-117408719D01*
X106289500Y-121030995D01*
X106289499Y-121031000D01*
X106343393Y-121301940D01*
X106496868Y-121531632D01*
X108909866Y-123944629D01*
X108909868Y-123944632D01*
X109097984Y-124070327D01*
X109139560Y-124098107D01*
X109410500Y-124152000D01*
X115357736Y-124152000D01*
X117851608Y-126645871D01*
X117801655Y-126897000D01*
X117898328Y-127383008D01*
X118173629Y-127795026D01*
X118585647Y-128070327D01*
X119071655Y-128167000D01*
X119898345Y-128167000D01*
X120360000Y-128075171D01*
X120821655Y-128167000D01*
X121648345Y-128167000D01*
X122134353Y-128070327D01*
X122546371Y-127795026D01*
X122821672Y-127383008D01*
X122873000Y-127124965D01*
X122873000Y-140417000D01*
X104583000Y-140417000D01*
X104583000Y-138000000D01*
X104571798Y-137943684D01*
X104571798Y-137886263D01*
X104343437Y-136738213D01*
X104343437Y-136738211D01*
X104268790Y-136558000D01*
X104256386Y-136528053D01*
X104256385Y-136528052D01*
X103738480Y-135752952D01*
X104415000Y-135752952D01*
X104570507Y-135723692D01*
X104622778Y-135734277D01*
X104664013Y-135795989D01*
X105204011Y-136335987D01*
X105449923Y-136500301D01*
X105739998Y-136558000D01*
X107106236Y-136558000D01*
X106799368Y-136864868D01*
X106645893Y-137094560D01*
X106598653Y-137332048D01*
X106450000Y-137332048D01*
X106261747Y-137367470D01*
X106088847Y-137478728D01*
X105972855Y-137648488D01*
X105932048Y-137850000D01*
X105932048Y-139550000D01*
X105967470Y-139738253D01*
X106078728Y-139911153D01*
X106248488Y-140027145D01*
X106450000Y-140067952D01*
X108150000Y-140067952D01*
X108338253Y-140032530D01*
X108511153Y-139921272D01*
X108627145Y-139751512D01*
X108667952Y-139550000D01*
X108667952Y-139369879D01*
X108879749Y-139686856D01*
X109320316Y-139981233D01*
X109840000Y-140084605D01*
X110359684Y-139981233D01*
X110800251Y-139686856D01*
X111094628Y-139246289D01*
X111110000Y-139169009D01*
X111125372Y-139246289D01*
X111419749Y-139686856D01*
X111860316Y-139981233D01*
X112380000Y-140084605D01*
X112899684Y-139981233D01*
X113340251Y-139686856D01*
X113634628Y-139246289D01*
X113650000Y-139169009D01*
X113665372Y-139246289D01*
X113959749Y-139686856D01*
X114400316Y-139981233D01*
X114920000Y-140084605D01*
X115439684Y-139981233D01*
X115880251Y-139686856D01*
X116174628Y-139246289D01*
X116190000Y-139169009D01*
X116205372Y-139246289D01*
X116499749Y-139686856D01*
X116940316Y-139981233D01*
X117460000Y-140084605D01*
X117979684Y-139981233D01*
X118420251Y-139686856D01*
X118714628Y-139246289D01*
X118818000Y-138726605D01*
X118818000Y-138673395D01*
X118763228Y-138398036D01*
X118810631Y-138350633D01*
X118964106Y-138120941D01*
X119017999Y-137850001D01*
X119017999Y-130407480D01*
X119018000Y-130407475D01*
X118964106Y-130136535D01*
X118904949Y-130048000D01*
X118810631Y-129906843D01*
X118810628Y-129906841D01*
X115864503Y-126960715D01*
X115857769Y-126944418D01*
X115616620Y-126702848D01*
X115301383Y-126571950D01*
X114960050Y-126571653D01*
X114666089Y-126693115D01*
X114172952Y-126199978D01*
X114172952Y-125754000D01*
X114137530Y-125565747D01*
X114026272Y-125392847D01*
X113856512Y-125276855D01*
X113655000Y-125236048D01*
X112959022Y-125236048D01*
X112440987Y-124718013D01*
X112195074Y-124553699D01*
X111905000Y-124496000D01*
X110746000Y-124496000D01*
X110455926Y-124553699D01*
X110210013Y-124718013D01*
X109091638Y-125836388D01*
X108999272Y-125692847D01*
X108829512Y-125576855D01*
X108628000Y-125536048D01*
X108028000Y-125536048D01*
X107839747Y-125571470D01*
X107666847Y-125682728D01*
X107550855Y-125852488D01*
X107510048Y-126054000D01*
X107510048Y-126454000D01*
X107545470Y-126642253D01*
X107617751Y-126754582D01*
X107552031Y-126850767D01*
X105693990Y-124992726D01*
X105693990Y-116214500D01*
X106174428Y-116214500D01*
X106193348Y-116233453D01*
G36*
X114958553Y-129457851D02*
X114986580Y-129457875D01*
X116936001Y-131407296D01*
X116936001Y-133191559D01*
X116588035Y-133064484D01*
X115982300Y-133090277D01*
X115542467Y-133272461D01*
X115457409Y-133527804D01*
X116350000Y-134420395D01*
X116364143Y-134406253D01*
X116543748Y-134585858D01*
X116529605Y-134600000D01*
X116543748Y-134614143D01*
X116364143Y-134793748D01*
X116350000Y-134779605D01*
X115457409Y-135672196D01*
X115542467Y-135927539D01*
X116111965Y-136135516D01*
X116499732Y-136119004D01*
X115239741Y-137378996D01*
X114920000Y-137315395D01*
X114400316Y-137418767D01*
X113959749Y-137713144D01*
X113665372Y-138153711D01*
X113650000Y-138230991D01*
X113634628Y-138153711D01*
X113340251Y-137713144D01*
X112899684Y-137418767D01*
X112380000Y-137315395D01*
X111860316Y-137418767D01*
X111419749Y-137713144D01*
X111125372Y-138153711D01*
X111110000Y-138230991D01*
X111094628Y-138153711D01*
X110800251Y-137713144D01*
X110359684Y-137418767D01*
X109840000Y-137315395D01*
X109320316Y-137418767D01*
X108879749Y-137713144D01*
X108667952Y-138030121D01*
X108667952Y-137850000D01*
X108632530Y-137661747D01*
X108521272Y-137488847D01*
X108351512Y-137372855D01*
X108303609Y-137363154D01*
X108560763Y-137106000D01*
X112104993Y-137106000D01*
X112104998Y-137106001D01*
X112375938Y-137052107D01*
X112605630Y-136898632D01*
X113131631Y-136372630D01*
X113285106Y-136142939D01*
X113333770Y-135898292D01*
X113570900Y-135996757D01*
X114126661Y-135997242D01*
X114640303Y-135785010D01*
X115021285Y-135404693D01*
X115022461Y-135407533D01*
X115277804Y-135492591D01*
X116170395Y-134600000D01*
X115277804Y-133707409D01*
X115022461Y-133792467D01*
X115021215Y-133795878D01*
X114804001Y-133578284D01*
X114966610Y-133469632D01*
X115878117Y-132558125D01*
X115904896Y-132558148D01*
X116220361Y-132427801D01*
X116461931Y-132186652D01*
X116592829Y-131871415D01*
X116593126Y-131530082D01*
X116462779Y-131214617D01*
X116221630Y-130973047D01*
X115906393Y-130842149D01*
X115565060Y-130841852D01*
X115249595Y-130972199D01*
X115008025Y-131213348D01*
X114913000Y-131442193D01*
X114913000Y-129438936D01*
X114958553Y-129457851D01*
X114958553Y-129457851D01*
G37*
X114958553Y-129457851D02*
X114986580Y-129457875D01*
X116936001Y-131407296D01*
X116936001Y-133191559D01*
X116588035Y-133064484D01*
X115982300Y-133090277D01*
X115542467Y-133272461D01*
X115457409Y-133527804D01*
X116350000Y-134420395D01*
X116364143Y-134406253D01*
X116543748Y-134585858D01*
X116529605Y-134600000D01*
X116543748Y-134614143D01*
X116364143Y-134793748D01*
X116350000Y-134779605D01*
X115457409Y-135672196D01*
X115542467Y-135927539D01*
X116111965Y-136135516D01*
X116499732Y-136119004D01*
X115239741Y-137378996D01*
X114920000Y-137315395D01*
X114400316Y-137418767D01*
X113959749Y-137713144D01*
X113665372Y-138153711D01*
X113650000Y-138230991D01*
X113634628Y-138153711D01*
X113340251Y-137713144D01*
X112899684Y-137418767D01*
X112380000Y-137315395D01*
X111860316Y-137418767D01*
X111419749Y-137713144D01*
X111125372Y-138153711D01*
X111110000Y-138230991D01*
X111094628Y-138153711D01*
X110800251Y-137713144D01*
X110359684Y-137418767D01*
X109840000Y-137315395D01*
X109320316Y-137418767D01*
X108879749Y-137713144D01*
X108667952Y-138030121D01*
X108667952Y-137850000D01*
X108632530Y-137661747D01*
X108521272Y-137488847D01*
X108351512Y-137372855D01*
X108303609Y-137363154D01*
X108560763Y-137106000D01*
X112104993Y-137106000D01*
X112104998Y-137106001D01*
X112375938Y-137052107D01*
X112605630Y-136898632D01*
X113131631Y-136372630D01*
X113285106Y-136142939D01*
X113333770Y-135898292D01*
X113570900Y-135996757D01*
X114126661Y-135997242D01*
X114640303Y-135785010D01*
X115021285Y-135404693D01*
X115022461Y-135407533D01*
X115277804Y-135492591D01*
X116170395Y-134600000D01*
X115277804Y-133707409D01*
X115022461Y-133792467D01*
X115021215Y-133795878D01*
X114804001Y-133578284D01*
X114966610Y-133469632D01*
X115878117Y-132558125D01*
X115904896Y-132558148D01*
X116220361Y-132427801D01*
X116461931Y-132186652D01*
X116592829Y-131871415D01*
X116593126Y-131530082D01*
X116462779Y-131214617D01*
X116221630Y-130973047D01*
X115906393Y-130842149D01*
X115565060Y-130841852D01*
X115249595Y-130972199D01*
X115008025Y-131213348D01*
X114913000Y-131442193D01*
X114913000Y-129438936D01*
X114958553Y-129457851D01*
G36*
X104277990Y-125285985D02*
X104277989Y-125285990D01*
X104331883Y-125556930D01*
X104485358Y-125786622D01*
X107453368Y-128754632D01*
X107683060Y-128908107D01*
X107954000Y-128962001D01*
X107954005Y-128962000D01*
X107978855Y-128962000D01*
X108028000Y-128971952D01*
X108628000Y-128971952D01*
X108816253Y-128936530D01*
X108989153Y-128825272D01*
X109105145Y-128655512D01*
X109145952Y-128454000D01*
X109145952Y-128054000D01*
X109117016Y-127900217D01*
X109281987Y-127789987D01*
X110227448Y-126844526D01*
X110193000Y-126927691D01*
X110193000Y-126995250D01*
X110351750Y-127154000D01*
X111001000Y-127154000D01*
X111001000Y-127107000D01*
X111255000Y-127107000D01*
X111255000Y-127154000D01*
X111275000Y-127154000D01*
X111275000Y-127354000D01*
X111255000Y-127354000D01*
X111255000Y-127401000D01*
X111001000Y-127401000D01*
X111001000Y-127354000D01*
X110351750Y-127354000D01*
X110193000Y-127512750D01*
X110193000Y-127580309D01*
X110289673Y-127813698D01*
X110347084Y-127871109D01*
X110310048Y-128054000D01*
X110310048Y-128288689D01*
X109258736Y-129340000D01*
X108265074Y-129340000D01*
X108246152Y-129321045D01*
X107930915Y-129190147D01*
X107589582Y-129189850D01*
X107274117Y-129320197D01*
X107032547Y-129561346D01*
X106901649Y-129876583D01*
X106901352Y-130217916D01*
X107031699Y-130533381D01*
X107272848Y-130774951D01*
X107541750Y-130886609D01*
X107434684Y-130993488D01*
X107296158Y-131327095D01*
X107296143Y-131344383D01*
X105958000Y-132682526D01*
X105958000Y-132541900D01*
X105900301Y-132251826D01*
X105735987Y-132005913D01*
X102204387Y-128474313D01*
X102078653Y-128390300D01*
X102577984Y-128390300D01*
X103021131Y-128302152D01*
X103396814Y-128051130D01*
X103647836Y-127675447D01*
X103735984Y-127232300D01*
X103647836Y-126789153D01*
X103396814Y-126413470D01*
X103021131Y-126162448D01*
X102577984Y-126074300D01*
X102022816Y-126074300D01*
X101579669Y-126162448D01*
X101576922Y-126164283D01*
X101745067Y-125875291D01*
X101761499Y-125779771D01*
X101637467Y-125581300D01*
X100395400Y-125581300D01*
X100395400Y-126586603D01*
X100598880Y-126748699D01*
X101061756Y-126626334D01*
X100952964Y-126789153D01*
X100864816Y-127232300D01*
X100952964Y-127675447D01*
X101203986Y-128051130D01*
X101505060Y-128252300D01*
X101405459Y-128252300D01*
X101364814Y-128191470D01*
X100989131Y-127940448D01*
X100545984Y-127852300D01*
X99990816Y-127852300D01*
X99547669Y-127940448D01*
X99171986Y-128191470D01*
X98920964Y-128567153D01*
X98832816Y-129010300D01*
X98920964Y-129453447D01*
X99171986Y-129829130D01*
X99547669Y-130080152D01*
X99990816Y-130168300D01*
X100545984Y-130168300D01*
X100989131Y-130080152D01*
X101364814Y-129829130D01*
X101385018Y-129798892D01*
X103307263Y-131721137D01*
X103286331Y-131729786D01*
X103030684Y-131984988D01*
X102892158Y-132318595D01*
X102891843Y-132679820D01*
X103029786Y-133013669D01*
X103042000Y-133025904D01*
X103042000Y-133654973D01*
X102967855Y-133763488D01*
X102927048Y-133965000D01*
X102927048Y-135047703D01*
X102471948Y-134743614D01*
X102261788Y-134656563D01*
X101113737Y-134428202D01*
X101056316Y-134428202D01*
X101000000Y-134417000D01*
X100498112Y-134417000D01*
X100947128Y-133968768D01*
X101207703Y-133341233D01*
X101208296Y-132661748D01*
X100948816Y-132033760D01*
X100468768Y-131552872D01*
X99841233Y-131292297D01*
X99161748Y-131291704D01*
X98583000Y-131530838D01*
X98583000Y-125779771D01*
X98775301Y-125779771D01*
X98791733Y-125875291D01*
X99046214Y-126312670D01*
X99448701Y-126619370D01*
X99937920Y-126748699D01*
X100141400Y-126586603D01*
X100141400Y-125581300D01*
X98899333Y-125581300D01*
X98775301Y-125779771D01*
X98583000Y-125779771D01*
X98583000Y-125128829D01*
X98775301Y-125128829D01*
X98899333Y-125327300D01*
X100141400Y-125327300D01*
X100141400Y-124321997D01*
X100395400Y-124321997D01*
X100395400Y-125327300D01*
X101637467Y-125327300D01*
X101761499Y-125128829D01*
X101745067Y-125033309D01*
X101580706Y-124750820D01*
X101727000Y-124794000D01*
X102108000Y-124794000D01*
X102108000Y-123524000D01*
X102362000Y-123524000D01*
X102362000Y-124794000D01*
X102743000Y-124794000D01*
X103267941Y-124639059D01*
X103693630Y-124295026D01*
X103955260Y-123814277D01*
X103970220Y-123740070D01*
X103847720Y-123524000D01*
X102362000Y-123524000D01*
X102108000Y-123524000D01*
X100622280Y-123524000D01*
X100499780Y-123740070D01*
X100514740Y-123814277D01*
X100720302Y-124192000D01*
X100598880Y-124159901D01*
X100395400Y-124321997D01*
X100141400Y-124321997D01*
X99937920Y-124159901D01*
X99448701Y-124289230D01*
X99046214Y-124595930D01*
X98791733Y-125033309D01*
X98775301Y-125128829D01*
X98583000Y-125128829D01*
X98583000Y-122574100D01*
X98782952Y-122774402D01*
X99373746Y-123019721D01*
X100013448Y-123020279D01*
X100604669Y-122775991D01*
X100650526Y-122730214D01*
X100514740Y-122979723D01*
X100499780Y-123053930D01*
X100622280Y-123270000D01*
X102108000Y-123270000D01*
X102108000Y-123250000D01*
X102362000Y-123250000D01*
X102362000Y-123270000D01*
X103847720Y-123270000D01*
X103970220Y-123053930D01*
X103955260Y-122979723D01*
X103693630Y-122498974D01*
X103267941Y-122154941D01*
X103042900Y-122088518D01*
X103134353Y-122070327D01*
X103546371Y-121795026D01*
X103821672Y-121383008D01*
X103918345Y-120897000D01*
X103821672Y-120410992D01*
X103546371Y-119998974D01*
X103134353Y-119723673D01*
X103042900Y-119705482D01*
X103267941Y-119639059D01*
X103693630Y-119295026D01*
X103955260Y-118814277D01*
X103970220Y-118740070D01*
X103847720Y-118524000D01*
X102362000Y-118524000D01*
X102362000Y-118544000D01*
X102108000Y-118544000D01*
X102108000Y-118524000D01*
X101286570Y-118524000D01*
X101269155Y-118491000D01*
X100076000Y-118491000D01*
X100076000Y-118511000D01*
X99822000Y-118511000D01*
X99822000Y-118491000D01*
X99802000Y-118491000D01*
X99802000Y-118237000D01*
X99822000Y-118237000D01*
X99822000Y-118217000D01*
X100076000Y-118217000D01*
X100076000Y-118237000D01*
X100603571Y-118237000D01*
X100622280Y-118270000D01*
X102108000Y-118270000D01*
X102108000Y-117000000D01*
X102362000Y-117000000D01*
X102362000Y-118270000D01*
X103847720Y-118270000D01*
X103970220Y-118053930D01*
X103955260Y-117979723D01*
X103693630Y-117498974D01*
X103267941Y-117154941D01*
X102743000Y-117000000D01*
X102362000Y-117000000D01*
X102108000Y-117000000D01*
X101727000Y-117000000D01*
X101202059Y-117154941D01*
X100980728Y-117333816D01*
X100830358Y-117168817D01*
X100554322Y-117039183D01*
X100935856Y-116784251D01*
X101104404Y-116532000D01*
X101675995Y-116532000D01*
X101676000Y-116532001D01*
X101946940Y-116478107D01*
X102176632Y-116324632D01*
X102286764Y-116214500D01*
X104277990Y-116214500D01*
X104277990Y-125285985D01*
X104277990Y-125285985D01*
G37*
X104277990Y-125285985D02*
X104277989Y-125285990D01*
X104331883Y-125556930D01*
X104485358Y-125786622D01*
X107453368Y-128754632D01*
X107683060Y-128908107D01*
X107954000Y-128962001D01*
X107954005Y-128962000D01*
X107978855Y-128962000D01*
X108028000Y-128971952D01*
X108628000Y-128971952D01*
X108816253Y-128936530D01*
X108989153Y-128825272D01*
X109105145Y-128655512D01*
X109145952Y-128454000D01*
X109145952Y-128054000D01*
X109117016Y-127900217D01*
X109281987Y-127789987D01*
X110227448Y-126844526D01*
X110193000Y-126927691D01*
X110193000Y-126995250D01*
X110351750Y-127154000D01*
X111001000Y-127154000D01*
X111001000Y-127107000D01*
X111255000Y-127107000D01*
X111255000Y-127154000D01*
X111275000Y-127154000D01*
X111275000Y-127354000D01*
X111255000Y-127354000D01*
X111255000Y-127401000D01*
X111001000Y-127401000D01*
X111001000Y-127354000D01*
X110351750Y-127354000D01*
X110193000Y-127512750D01*
X110193000Y-127580309D01*
X110289673Y-127813698D01*
X110347084Y-127871109D01*
X110310048Y-128054000D01*
X110310048Y-128288689D01*
X109258736Y-129340000D01*
X108265074Y-129340000D01*
X108246152Y-129321045D01*
X107930915Y-129190147D01*
X107589582Y-129189850D01*
X107274117Y-129320197D01*
X107032547Y-129561346D01*
X106901649Y-129876583D01*
X106901352Y-130217916D01*
X107031699Y-130533381D01*
X107272848Y-130774951D01*
X107541750Y-130886609D01*
X107434684Y-130993488D01*
X107296158Y-131327095D01*
X107296143Y-131344383D01*
X105958000Y-132682526D01*
X105958000Y-132541900D01*
X105900301Y-132251826D01*
X105735987Y-132005913D01*
X102204387Y-128474313D01*
X102078653Y-128390300D01*
X102577984Y-128390300D01*
X103021131Y-128302152D01*
X103396814Y-128051130D01*
X103647836Y-127675447D01*
X103735984Y-127232300D01*
X103647836Y-126789153D01*
X103396814Y-126413470D01*
X103021131Y-126162448D01*
X102577984Y-126074300D01*
X102022816Y-126074300D01*
X101579669Y-126162448D01*
X101576922Y-126164283D01*
X101745067Y-125875291D01*
X101761499Y-125779771D01*
X101637467Y-125581300D01*
X100395400Y-125581300D01*
X100395400Y-126586603D01*
X100598880Y-126748699D01*
X101061756Y-126626334D01*
X100952964Y-126789153D01*
X100864816Y-127232300D01*
X100952964Y-127675447D01*
X101203986Y-128051130D01*
X101505060Y-128252300D01*
X101405459Y-128252300D01*
X101364814Y-128191470D01*
X100989131Y-127940448D01*
X100545984Y-127852300D01*
X99990816Y-127852300D01*
X99547669Y-127940448D01*
X99171986Y-128191470D01*
X98920964Y-128567153D01*
X98832816Y-129010300D01*
X98920964Y-129453447D01*
X99171986Y-129829130D01*
X99547669Y-130080152D01*
X99990816Y-130168300D01*
X100545984Y-130168300D01*
X100989131Y-130080152D01*
X101364814Y-129829130D01*
X101385018Y-129798892D01*
X103307263Y-131721137D01*
X103286331Y-131729786D01*
X103030684Y-131984988D01*
X102892158Y-132318595D01*
X102891843Y-132679820D01*
X103029786Y-133013669D01*
X103042000Y-133025904D01*
X103042000Y-133654973D01*
X102967855Y-133763488D01*
X102927048Y-133965000D01*
X102927048Y-135047703D01*
X102471948Y-134743614D01*
X102261788Y-134656563D01*
X101113737Y-134428202D01*
X101056316Y-134428202D01*
X101000000Y-134417000D01*
X100498112Y-134417000D01*
X100947128Y-133968768D01*
X101207703Y-133341233D01*
X101208296Y-132661748D01*
X100948816Y-132033760D01*
X100468768Y-131552872D01*
X99841233Y-131292297D01*
X99161748Y-131291704D01*
X98583000Y-131530838D01*
X98583000Y-125779771D01*
X98775301Y-125779771D01*
X98791733Y-125875291D01*
X99046214Y-126312670D01*
X99448701Y-126619370D01*
X99937920Y-126748699D01*
X100141400Y-126586603D01*
X100141400Y-125581300D01*
X98899333Y-125581300D01*
X98775301Y-125779771D01*
X98583000Y-125779771D01*
X98583000Y-125128829D01*
X98775301Y-125128829D01*
X98899333Y-125327300D01*
X100141400Y-125327300D01*
X100141400Y-124321997D01*
X100395400Y-124321997D01*
X100395400Y-125327300D01*
X101637467Y-125327300D01*
X101761499Y-125128829D01*
X101745067Y-125033309D01*
X101580706Y-124750820D01*
X101727000Y-124794000D01*
X102108000Y-124794000D01*
X102108000Y-123524000D01*
X102362000Y-123524000D01*
X102362000Y-124794000D01*
X102743000Y-124794000D01*
X103267941Y-124639059D01*
X103693630Y-124295026D01*
X103955260Y-123814277D01*
X103970220Y-123740070D01*
X103847720Y-123524000D01*
X102362000Y-123524000D01*
X102108000Y-123524000D01*
X100622280Y-123524000D01*
X100499780Y-123740070D01*
X100514740Y-123814277D01*
X100720302Y-124192000D01*
X100598880Y-124159901D01*
X100395400Y-124321997D01*
X100141400Y-124321997D01*
X99937920Y-124159901D01*
X99448701Y-124289230D01*
X99046214Y-124595930D01*
X98791733Y-125033309D01*
X98775301Y-125128829D01*
X98583000Y-125128829D01*
X98583000Y-122574100D01*
X98782952Y-122774402D01*
X99373746Y-123019721D01*
X100013448Y-123020279D01*
X100604669Y-122775991D01*
X100650526Y-122730214D01*
X100514740Y-122979723D01*
X100499780Y-123053930D01*
X100622280Y-123270000D01*
X102108000Y-123270000D01*
X102108000Y-123250000D01*
X102362000Y-123250000D01*
X102362000Y-123270000D01*
X103847720Y-123270000D01*
X103970220Y-123053930D01*
X103955260Y-122979723D01*
X103693630Y-122498974D01*
X103267941Y-122154941D01*
X103042900Y-122088518D01*
X103134353Y-122070327D01*
X103546371Y-121795026D01*
X103821672Y-121383008D01*
X103918345Y-120897000D01*
X103821672Y-120410992D01*
X103546371Y-119998974D01*
X103134353Y-119723673D01*
X103042900Y-119705482D01*
X103267941Y-119639059D01*
X103693630Y-119295026D01*
X103955260Y-118814277D01*
X103970220Y-118740070D01*
X103847720Y-118524000D01*
X102362000Y-118524000D01*
X102362000Y-118544000D01*
X102108000Y-118544000D01*
X102108000Y-118524000D01*
X101286570Y-118524000D01*
X101269155Y-118491000D01*
X100076000Y-118491000D01*
X100076000Y-118511000D01*
X99822000Y-118511000D01*
X99822000Y-118491000D01*
X99802000Y-118491000D01*
X99802000Y-118237000D01*
X99822000Y-118237000D01*
X99822000Y-118217000D01*
X100076000Y-118217000D01*
X100076000Y-118237000D01*
X100603571Y-118237000D01*
X100622280Y-118270000D01*
X102108000Y-118270000D01*
X102108000Y-117000000D01*
X102362000Y-117000000D01*
X102362000Y-118270000D01*
X103847720Y-118270000D01*
X103970220Y-118053930D01*
X103955260Y-117979723D01*
X103693630Y-117498974D01*
X103267941Y-117154941D01*
X102743000Y-117000000D01*
X102362000Y-117000000D01*
X102108000Y-117000000D01*
X101727000Y-117000000D01*
X101202059Y-117154941D01*
X100980728Y-117333816D01*
X100830358Y-117168817D01*
X100554322Y-117039183D01*
X100935856Y-116784251D01*
X101104404Y-116532000D01*
X101675995Y-116532000D01*
X101676000Y-116532001D01*
X101946940Y-116478107D01*
X102176632Y-116324632D01*
X102286764Y-116214500D01*
X104277990Y-116214500D01*
X104277990Y-125285985D01*
G36*
X113157000Y-128127000D02*
X113177000Y-128127000D01*
X113177000Y-128381000D01*
X113157000Y-128381000D01*
X113157000Y-129230250D01*
X113315750Y-129389000D01*
X113397000Y-129389000D01*
X113397000Y-130941000D01*
X110362000Y-130941000D01*
X110071926Y-130998699D01*
X109826013Y-131163013D01*
X108978856Y-132010170D01*
X109111842Y-131689905D01*
X109112157Y-131328680D01*
X108974214Y-130994831D01*
X108735799Y-130756000D01*
X109551995Y-130756000D01*
X109552000Y-130756001D01*
X109822940Y-130702107D01*
X110052632Y-130548632D01*
X111628629Y-128972634D01*
X111628632Y-128972632D01*
X111680286Y-128895326D01*
X111770000Y-128837597D01*
X111770000Y-128880309D01*
X111866673Y-129113698D01*
X112045301Y-129292327D01*
X112278690Y-129389000D01*
X112744250Y-129389000D01*
X112903000Y-129230250D01*
X112903000Y-128381000D01*
X112883000Y-128381000D01*
X112883000Y-128127000D01*
X112903000Y-128127000D01*
X112903000Y-128107000D01*
X113157000Y-128107000D01*
X113157000Y-128127000D01*
X113157000Y-128127000D01*
G37*
X113157000Y-128127000D02*
X113177000Y-128127000D01*
X113177000Y-128381000D01*
X113157000Y-128381000D01*
X113157000Y-129230250D01*
X113315750Y-129389000D01*
X113397000Y-129389000D01*
X113397000Y-130941000D01*
X110362000Y-130941000D01*
X110071926Y-130998699D01*
X109826013Y-131163013D01*
X108978856Y-132010170D01*
X109111842Y-131689905D01*
X109112157Y-131328680D01*
X108974214Y-130994831D01*
X108735799Y-130756000D01*
X109551995Y-130756000D01*
X109552000Y-130756001D01*
X109822940Y-130702107D01*
X110052632Y-130548632D01*
X111628629Y-128972634D01*
X111628632Y-128972632D01*
X111680286Y-128895326D01*
X111770000Y-128837597D01*
X111770000Y-128880309D01*
X111866673Y-129113698D01*
X112045301Y-129292327D01*
X112278690Y-129389000D01*
X112744250Y-129389000D01*
X112903000Y-129230250D01*
X112903000Y-128381000D01*
X112883000Y-128381000D01*
X112883000Y-128127000D01*
X112903000Y-128127000D01*
X112903000Y-128107000D01*
X113157000Y-128107000D01*
X113157000Y-128127000D01*
G36*
X122070010Y-104371273D02*
X122070010Y-111710874D01*
X121648345Y-111627000D01*
X120821655Y-111627000D01*
X120360000Y-111718829D01*
X119898345Y-111627000D01*
X119071655Y-111627000D01*
X118585647Y-111723673D01*
X118173629Y-111998974D01*
X118080067Y-112139000D01*
X116737978Y-112139000D01*
X116447904Y-112196699D01*
X116201991Y-112361013D01*
X115671147Y-112891857D01*
X115655158Y-112891843D01*
X115321309Y-113029786D01*
X115065662Y-113284988D01*
X114927136Y-113618595D01*
X114926821Y-113979820D01*
X115064764Y-114313669D01*
X115319966Y-114569316D01*
X115653573Y-114707842D01*
X116014798Y-114708157D01*
X116348647Y-114570214D01*
X116604294Y-114315012D01*
X116742820Y-113981405D01*
X116742835Y-113964117D01*
X117051952Y-113655000D01*
X118080067Y-113655000D01*
X118173629Y-113795026D01*
X118231160Y-113833467D01*
X118026370Y-113998974D01*
X117764740Y-114479723D01*
X117749780Y-114553930D01*
X117872280Y-114770000D01*
X119358000Y-114770000D01*
X119358000Y-114750000D01*
X119610941Y-114750000D01*
X119612000Y-114751868D01*
X119612000Y-114770000D01*
X121108000Y-114770000D01*
X121108000Y-114751868D01*
X121109059Y-114750000D01*
X121362000Y-114750000D01*
X121362000Y-114770000D01*
X121382000Y-114770000D01*
X121382000Y-115024000D01*
X121362000Y-115024000D01*
X121362000Y-115044000D01*
X121109059Y-115044000D01*
X121108000Y-115042132D01*
X121108000Y-115024000D01*
X119612000Y-115024000D01*
X119612000Y-115042132D01*
X119610941Y-115044000D01*
X119358000Y-115044000D01*
X119358000Y-115024000D01*
X117872280Y-115024000D01*
X117749780Y-115240070D01*
X117764740Y-115314277D01*
X118026370Y-115795026D01*
X118231160Y-115960533D01*
X118173629Y-115998974D01*
X118046658Y-116189000D01*
X115002577Y-116189000D01*
X114986652Y-116173047D01*
X114671415Y-116042149D01*
X114330082Y-116041852D01*
X114014617Y-116172199D01*
X113773047Y-116413348D01*
X113642149Y-116728585D01*
X113641852Y-117069918D01*
X113772199Y-117385383D01*
X114013348Y-117626953D01*
X114328585Y-117757851D01*
X114669918Y-117758148D01*
X114985383Y-117627801D01*
X115008224Y-117605000D01*
X118046658Y-117605000D01*
X118173629Y-117795026D01*
X118326244Y-117897000D01*
X118173629Y-117998974D01*
X117898328Y-118410992D01*
X117801655Y-118897000D01*
X117880225Y-119292000D01*
X110088572Y-119292000D01*
X110622572Y-118758000D01*
X112573692Y-118758000D01*
X112584988Y-118769316D01*
X112918595Y-118907842D01*
X113279820Y-118908157D01*
X113613669Y-118770214D01*
X113869316Y-118515012D01*
X114007842Y-118181405D01*
X114008157Y-117820180D01*
X113870214Y-117486331D01*
X113615012Y-117230684D01*
X113281405Y-117092158D01*
X112920180Y-117091843D01*
X112586331Y-117229786D01*
X112574096Y-117242000D01*
X110308598Y-117242000D01*
X110018524Y-117299699D01*
X109772611Y-117464013D01*
X108159012Y-119077612D01*
X107994698Y-119323525D01*
X107936999Y-119613599D01*
X107936999Y-120969235D01*
X107705500Y-120737736D01*
X107705500Y-117409072D01*
X107724453Y-117390152D01*
X107855351Y-117074915D01*
X107855648Y-116733582D01*
X107725301Y-116418117D01*
X107484152Y-116176547D01*
X107299886Y-116100033D01*
X107406953Y-115993152D01*
X107537851Y-115677915D01*
X107537931Y-115585750D01*
X108240000Y-115585750D01*
X108240000Y-115926309D01*
X108336673Y-116159698D01*
X108515301Y-116338327D01*
X108748690Y-116435000D01*
X109214250Y-116435000D01*
X109373000Y-116276250D01*
X109373000Y-115427000D01*
X109627000Y-115427000D01*
X109627000Y-116276250D01*
X109785750Y-116435000D01*
X110251310Y-116435000D01*
X110300000Y-116414832D01*
X110348690Y-116435000D01*
X110814250Y-116435000D01*
X110973000Y-116276250D01*
X110973000Y-115427000D01*
X111227000Y-115427000D01*
X111227000Y-116276250D01*
X111385750Y-116435000D01*
X111851310Y-116435000D01*
X112084699Y-116338327D01*
X112263327Y-116159698D01*
X112360000Y-115926309D01*
X112360000Y-115585750D01*
X112201250Y-115427000D01*
X111227000Y-115427000D01*
X110973000Y-115427000D01*
X109627000Y-115427000D01*
X109373000Y-115427000D01*
X108398750Y-115427000D01*
X108240000Y-115585750D01*
X107537931Y-115585750D01*
X107538148Y-115336582D01*
X107461718Y-115151605D01*
X107626959Y-114986652D01*
X107757857Y-114671415D01*
X107758154Y-114330082D01*
X107627807Y-114014617D01*
X107386658Y-113773047D01*
X107071421Y-113642149D01*
X106730088Y-113641852D01*
X106414623Y-113772199D01*
X106394787Y-113792000D01*
X101458263Y-113792000D01*
X101270004Y-113603741D01*
X101333605Y-113284000D01*
X101230233Y-112764316D01*
X100935856Y-112323749D01*
X100618879Y-112111952D01*
X100799000Y-112111952D01*
X100987253Y-112076530D01*
X101160153Y-111965272D01*
X101276145Y-111795512D01*
X101316952Y-111594000D01*
X101316952Y-109970818D01*
X101384796Y-110135014D01*
X101639998Y-110390661D01*
X101973605Y-110529187D01*
X102291977Y-110529465D01*
X102291977Y-110999972D01*
X102291976Y-110999977D01*
X102345870Y-111270917D01*
X102499345Y-111500609D01*
X103499368Y-112500632D01*
X103729060Y-112654107D01*
X104000000Y-112708001D01*
X104000005Y-112708000D01*
X105299995Y-112708000D01*
X105300000Y-112708001D01*
X105570940Y-112654107D01*
X105800632Y-112500632D01*
X106168771Y-112132493D01*
X106244366Y-112245630D01*
X107141875Y-113143139D01*
X107141852Y-113169918D01*
X107272199Y-113485383D01*
X107513348Y-113726953D01*
X107828585Y-113857851D01*
X108169918Y-113858148D01*
X108357048Y-113780828D01*
X108357048Y-113800000D01*
X108392470Y-113988253D01*
X108503728Y-114161153D01*
X108599687Y-114226719D01*
X108515301Y-114261673D01*
X108336673Y-114440302D01*
X108240000Y-114673691D01*
X108240000Y-115014250D01*
X108398750Y-115173000D01*
X109373000Y-115173000D01*
X109373000Y-115153000D01*
X109627000Y-115153000D01*
X109627000Y-115173000D01*
X110973000Y-115173000D01*
X110973000Y-115153000D01*
X111227000Y-115153000D01*
X111227000Y-115173000D01*
X112201250Y-115173000D01*
X112360000Y-115014250D01*
X112360000Y-114673691D01*
X112263327Y-114440302D01*
X112084699Y-114261673D01*
X112000114Y-114226637D01*
X112086153Y-114171272D01*
X112202145Y-114001512D01*
X112242952Y-113800000D01*
X112242952Y-113157656D01*
X112395107Y-112929940D01*
X112449001Y-112659000D01*
X112449000Y-112658995D01*
X112449000Y-111234120D01*
X112493145Y-111169512D01*
X112533952Y-110968000D01*
X112533952Y-110021000D01*
X112548048Y-110021000D01*
X112548048Y-110968000D01*
X112583470Y-111156253D01*
X112633000Y-111233225D01*
X112633000Y-111555228D01*
X112599297Y-111588872D01*
X112468399Y-111904109D01*
X112468102Y-112245442D01*
X112598449Y-112560907D01*
X112839598Y-112802477D01*
X113154835Y-112933375D01*
X113440960Y-112933624D01*
X113445199Y-112943883D01*
X113686348Y-113185453D01*
X114001585Y-113316351D01*
X114342918Y-113316648D01*
X114658383Y-113186301D01*
X114899953Y-112945152D01*
X115030851Y-112629915D01*
X115031148Y-112288582D01*
X114900801Y-111973117D01*
X114849000Y-111921226D01*
X114849000Y-111485952D01*
X115216000Y-111485952D01*
X115404253Y-111450530D01*
X115577153Y-111339272D01*
X115693145Y-111169512D01*
X115733952Y-110968000D01*
X115733952Y-110876000D01*
X120149397Y-110876000D01*
X120149402Y-110876001D01*
X120420342Y-110822107D01*
X120650034Y-110668632D01*
X121700632Y-109618034D01*
X121854107Y-109388342D01*
X121908001Y-109117402D01*
X121908000Y-109117397D01*
X121908000Y-106800000D01*
X121854107Y-106529060D01*
X121700632Y-106299368D01*
X121700629Y-106299366D01*
X121182952Y-105781688D01*
X121182952Y-105761000D01*
X121147530Y-105572747D01*
X121036272Y-105399847D01*
X120866512Y-105283855D01*
X120708000Y-105251756D01*
X120708000Y-104298861D01*
X120853253Y-104271530D01*
X121026153Y-104160272D01*
X121142145Y-103990512D01*
X121182952Y-103789000D01*
X121182952Y-103484216D01*
X122070010Y-104371273D01*
X122070010Y-104371273D01*
G37*
X122070010Y-104371273D02*
X122070010Y-111710874D01*
X121648345Y-111627000D01*
X120821655Y-111627000D01*
X120360000Y-111718829D01*
X119898345Y-111627000D01*
X119071655Y-111627000D01*
X118585647Y-111723673D01*
X118173629Y-111998974D01*
X118080067Y-112139000D01*
X116737978Y-112139000D01*
X116447904Y-112196699D01*
X116201991Y-112361013D01*
X115671147Y-112891857D01*
X115655158Y-112891843D01*
X115321309Y-113029786D01*
X115065662Y-113284988D01*
X114927136Y-113618595D01*
X114926821Y-113979820D01*
X115064764Y-114313669D01*
X115319966Y-114569316D01*
X115653573Y-114707842D01*
X116014798Y-114708157D01*
X116348647Y-114570214D01*
X116604294Y-114315012D01*
X116742820Y-113981405D01*
X116742835Y-113964117D01*
X117051952Y-113655000D01*
X118080067Y-113655000D01*
X118173629Y-113795026D01*
X118231160Y-113833467D01*
X118026370Y-113998974D01*
X117764740Y-114479723D01*
X117749780Y-114553930D01*
X117872280Y-114770000D01*
X119358000Y-114770000D01*
X119358000Y-114750000D01*
X119610941Y-114750000D01*
X119612000Y-114751868D01*
X119612000Y-114770000D01*
X121108000Y-114770000D01*
X121108000Y-114751868D01*
X121109059Y-114750000D01*
X121362000Y-114750000D01*
X121362000Y-114770000D01*
X121382000Y-114770000D01*
X121382000Y-115024000D01*
X121362000Y-115024000D01*
X121362000Y-115044000D01*
X121109059Y-115044000D01*
X121108000Y-115042132D01*
X121108000Y-115024000D01*
X119612000Y-115024000D01*
X119612000Y-115042132D01*
X119610941Y-115044000D01*
X119358000Y-115044000D01*
X119358000Y-115024000D01*
X117872280Y-115024000D01*
X117749780Y-115240070D01*
X117764740Y-115314277D01*
X118026370Y-115795026D01*
X118231160Y-115960533D01*
X118173629Y-115998974D01*
X118046658Y-116189000D01*
X115002577Y-116189000D01*
X114986652Y-116173047D01*
X114671415Y-116042149D01*
X114330082Y-116041852D01*
X114014617Y-116172199D01*
X113773047Y-116413348D01*
X113642149Y-116728585D01*
X113641852Y-117069918D01*
X113772199Y-117385383D01*
X114013348Y-117626953D01*
X114328585Y-117757851D01*
X114669918Y-117758148D01*
X114985383Y-117627801D01*
X115008224Y-117605000D01*
X118046658Y-117605000D01*
X118173629Y-117795026D01*
X118326244Y-117897000D01*
X118173629Y-117998974D01*
X117898328Y-118410992D01*
X117801655Y-118897000D01*
X117880225Y-119292000D01*
X110088572Y-119292000D01*
X110622572Y-118758000D01*
X112573692Y-118758000D01*
X112584988Y-118769316D01*
X112918595Y-118907842D01*
X113279820Y-118908157D01*
X113613669Y-118770214D01*
X113869316Y-118515012D01*
X114007842Y-118181405D01*
X114008157Y-117820180D01*
X113870214Y-117486331D01*
X113615012Y-117230684D01*
X113281405Y-117092158D01*
X112920180Y-117091843D01*
X112586331Y-117229786D01*
X112574096Y-117242000D01*
X110308598Y-117242000D01*
X110018524Y-117299699D01*
X109772611Y-117464013D01*
X108159012Y-119077612D01*
X107994698Y-119323525D01*
X107936999Y-119613599D01*
X107936999Y-120969235D01*
X107705500Y-120737736D01*
X107705500Y-117409072D01*
X107724453Y-117390152D01*
X107855351Y-117074915D01*
X107855648Y-116733582D01*
X107725301Y-116418117D01*
X107484152Y-116176547D01*
X107299886Y-116100033D01*
X107406953Y-115993152D01*
X107537851Y-115677915D01*
X107537931Y-115585750D01*
X108240000Y-115585750D01*
X108240000Y-115926309D01*
X108336673Y-116159698D01*
X108515301Y-116338327D01*
X108748690Y-116435000D01*
X109214250Y-116435000D01*
X109373000Y-116276250D01*
X109373000Y-115427000D01*
X109627000Y-115427000D01*
X109627000Y-116276250D01*
X109785750Y-116435000D01*
X110251310Y-116435000D01*
X110300000Y-116414832D01*
X110348690Y-116435000D01*
X110814250Y-116435000D01*
X110973000Y-116276250D01*
X110973000Y-115427000D01*
X111227000Y-115427000D01*
X111227000Y-116276250D01*
X111385750Y-116435000D01*
X111851310Y-116435000D01*
X112084699Y-116338327D01*
X112263327Y-116159698D01*
X112360000Y-115926309D01*
X112360000Y-115585750D01*
X112201250Y-115427000D01*
X111227000Y-115427000D01*
X110973000Y-115427000D01*
X109627000Y-115427000D01*
X109373000Y-115427000D01*
X108398750Y-115427000D01*
X108240000Y-115585750D01*
X107537931Y-115585750D01*
X107538148Y-115336582D01*
X107461718Y-115151605D01*
X107626959Y-114986652D01*
X107757857Y-114671415D01*
X107758154Y-114330082D01*
X107627807Y-114014617D01*
X107386658Y-113773047D01*
X107071421Y-113642149D01*
X106730088Y-113641852D01*
X106414623Y-113772199D01*
X106394787Y-113792000D01*
X101458263Y-113792000D01*
X101270004Y-113603741D01*
X101333605Y-113284000D01*
X101230233Y-112764316D01*
X100935856Y-112323749D01*
X100618879Y-112111952D01*
X100799000Y-112111952D01*
X100987253Y-112076530D01*
X101160153Y-111965272D01*
X101276145Y-111795512D01*
X101316952Y-111594000D01*
X101316952Y-109970818D01*
X101384796Y-110135014D01*
X101639998Y-110390661D01*
X101973605Y-110529187D01*
X102291977Y-110529465D01*
X102291977Y-110999972D01*
X102291976Y-110999977D01*
X102345870Y-111270917D01*
X102499345Y-111500609D01*
X103499368Y-112500632D01*
X103729060Y-112654107D01*
X104000000Y-112708001D01*
X104000005Y-112708000D01*
X105299995Y-112708000D01*
X105300000Y-112708001D01*
X105570940Y-112654107D01*
X105800632Y-112500632D01*
X106168771Y-112132493D01*
X106244366Y-112245630D01*
X107141875Y-113143139D01*
X107141852Y-113169918D01*
X107272199Y-113485383D01*
X107513348Y-113726953D01*
X107828585Y-113857851D01*
X108169918Y-113858148D01*
X108357048Y-113780828D01*
X108357048Y-113800000D01*
X108392470Y-113988253D01*
X108503728Y-114161153D01*
X108599687Y-114226719D01*
X108515301Y-114261673D01*
X108336673Y-114440302D01*
X108240000Y-114673691D01*
X108240000Y-115014250D01*
X108398750Y-115173000D01*
X109373000Y-115173000D01*
X109373000Y-115153000D01*
X109627000Y-115153000D01*
X109627000Y-115173000D01*
X110973000Y-115173000D01*
X110973000Y-115153000D01*
X111227000Y-115153000D01*
X111227000Y-115173000D01*
X112201250Y-115173000D01*
X112360000Y-115014250D01*
X112360000Y-114673691D01*
X112263327Y-114440302D01*
X112084699Y-114261673D01*
X112000114Y-114226637D01*
X112086153Y-114171272D01*
X112202145Y-114001512D01*
X112242952Y-113800000D01*
X112242952Y-113157656D01*
X112395107Y-112929940D01*
X112449001Y-112659000D01*
X112449000Y-112658995D01*
X112449000Y-111234120D01*
X112493145Y-111169512D01*
X112533952Y-110968000D01*
X112533952Y-110021000D01*
X112548048Y-110021000D01*
X112548048Y-110968000D01*
X112583470Y-111156253D01*
X112633000Y-111233225D01*
X112633000Y-111555228D01*
X112599297Y-111588872D01*
X112468399Y-111904109D01*
X112468102Y-112245442D01*
X112598449Y-112560907D01*
X112839598Y-112802477D01*
X113154835Y-112933375D01*
X113440960Y-112933624D01*
X113445199Y-112943883D01*
X113686348Y-113185453D01*
X114001585Y-113316351D01*
X114342918Y-113316648D01*
X114658383Y-113186301D01*
X114899953Y-112945152D01*
X115030851Y-112629915D01*
X115031148Y-112288582D01*
X114900801Y-111973117D01*
X114849000Y-111921226D01*
X114849000Y-111485952D01*
X115216000Y-111485952D01*
X115404253Y-111450530D01*
X115577153Y-111339272D01*
X115693145Y-111169512D01*
X115733952Y-110968000D01*
X115733952Y-110876000D01*
X120149397Y-110876000D01*
X120149402Y-110876001D01*
X120420342Y-110822107D01*
X120650034Y-110668632D01*
X121700632Y-109618034D01*
X121854107Y-109388342D01*
X121908001Y-109117402D01*
X121908000Y-109117397D01*
X121908000Y-106800000D01*
X121854107Y-106529060D01*
X121700632Y-106299368D01*
X121700629Y-106299366D01*
X121182952Y-105781688D01*
X121182952Y-105761000D01*
X121147530Y-105572747D01*
X121036272Y-105399847D01*
X120866512Y-105283855D01*
X120708000Y-105251756D01*
X120708000Y-104298861D01*
X120853253Y-104271530D01*
X121026153Y-104160272D01*
X121142145Y-103990512D01*
X121182952Y-103789000D01*
X121182952Y-103484216D01*
X122070010Y-104371273D01*
G36*
X100076000Y-106172000D02*
X100096000Y-106172000D01*
X100096000Y-106426000D01*
X100076000Y-106426000D01*
X100076000Y-107619819D01*
X100305892Y-107740486D01*
X100496001Y-107651206D01*
X100496001Y-108456392D01*
X100553700Y-108746466D01*
X100718014Y-108992379D01*
X101247097Y-109521462D01*
X101246983Y-109652059D01*
X101170272Y-109532847D01*
X101000512Y-109416855D01*
X100799000Y-109376048D01*
X99099000Y-109376048D01*
X98910747Y-109411470D01*
X98737847Y-109522728D01*
X98621855Y-109692488D01*
X98583000Y-109884361D01*
X98583000Y-106838117D01*
X98677355Y-107065924D01*
X99067642Y-107494183D01*
X99592108Y-107740486D01*
X99822000Y-107619819D01*
X99822000Y-106426000D01*
X99802000Y-106426000D01*
X99802000Y-106172000D01*
X99822000Y-106172000D01*
X99822000Y-106152000D01*
X100076000Y-106152000D01*
X100076000Y-106172000D01*
X100076000Y-106172000D01*
G37*
X100076000Y-106172000D02*
X100096000Y-106172000D01*
X100096000Y-106426000D01*
X100076000Y-106426000D01*
X100076000Y-107619819D01*
X100305892Y-107740486D01*
X100496001Y-107651206D01*
X100496001Y-108456392D01*
X100553700Y-108746466D01*
X100718014Y-108992379D01*
X101247097Y-109521462D01*
X101246983Y-109652059D01*
X101170272Y-109532847D01*
X101000512Y-109416855D01*
X100799000Y-109376048D01*
X99099000Y-109376048D01*
X98910747Y-109411470D01*
X98737847Y-109522728D01*
X98621855Y-109692488D01*
X98583000Y-109884361D01*
X98583000Y-106838117D01*
X98677355Y-107065924D01*
X99067642Y-107494183D01*
X99592108Y-107740486D01*
X99822000Y-107619819D01*
X99822000Y-106426000D01*
X99802000Y-106426000D01*
X99802000Y-106172000D01*
X99822000Y-106172000D01*
X99822000Y-106152000D01*
X100076000Y-106152000D01*
X100076000Y-106172000D01*
G36*
X122873000Y-103171737D02*
X121700632Y-101999368D01*
X121470940Y-101845893D01*
X121200000Y-101791999D01*
X121199995Y-101792000D01*
X121182952Y-101792000D01*
X121182952Y-101189000D01*
X121147530Y-101000747D01*
X121036272Y-100827847D01*
X120866512Y-100711855D01*
X120758000Y-100689881D01*
X120758000Y-100326308D01*
X120769316Y-100315012D01*
X120907842Y-99981405D01*
X120908157Y-99620180D01*
X120770214Y-99286331D01*
X120515012Y-99030684D01*
X120181405Y-98892158D01*
X119820180Y-98891843D01*
X119486331Y-99029786D01*
X119230684Y-99284988D01*
X119092158Y-99618595D01*
X119091843Y-99979820D01*
X119229786Y-100313669D01*
X119242000Y-100325904D01*
X119242000Y-100694192D01*
X119176747Y-100706470D01*
X119003847Y-100817728D01*
X118887855Y-100987488D01*
X118847048Y-101189000D01*
X118847048Y-101792000D01*
X118209005Y-101792000D01*
X118209000Y-101791999D01*
X117938060Y-101845893D01*
X117708368Y-101999368D01*
X117350407Y-102357329D01*
X117191000Y-102325048D01*
X115733952Y-102325048D01*
X115733952Y-100868000D01*
X115698530Y-100679747D01*
X115649000Y-100602775D01*
X115649000Y-100264469D01*
X115726953Y-100186652D01*
X115857851Y-99871415D01*
X115858148Y-99530082D01*
X115727801Y-99214617D01*
X115486652Y-98973047D01*
X115442331Y-98954643D01*
X122873000Y-91523974D01*
X122873000Y-103171737D01*
X122873000Y-103171737D01*
G37*
X122873000Y-103171737D02*
X121700632Y-101999368D01*
X121470940Y-101845893D01*
X121200000Y-101791999D01*
X121199995Y-101792000D01*
X121182952Y-101792000D01*
X121182952Y-101189000D01*
X121147530Y-101000747D01*
X121036272Y-100827847D01*
X120866512Y-100711855D01*
X120758000Y-100689881D01*
X120758000Y-100326308D01*
X120769316Y-100315012D01*
X120907842Y-99981405D01*
X120908157Y-99620180D01*
X120770214Y-99286331D01*
X120515012Y-99030684D01*
X120181405Y-98892158D01*
X119820180Y-98891843D01*
X119486331Y-99029786D01*
X119230684Y-99284988D01*
X119092158Y-99618595D01*
X119091843Y-99979820D01*
X119229786Y-100313669D01*
X119242000Y-100325904D01*
X119242000Y-100694192D01*
X119176747Y-100706470D01*
X119003847Y-100817728D01*
X118887855Y-100987488D01*
X118847048Y-101189000D01*
X118847048Y-101792000D01*
X118209005Y-101792000D01*
X118209000Y-101791999D01*
X117938060Y-101845893D01*
X117708368Y-101999368D01*
X117350407Y-102357329D01*
X117191000Y-102325048D01*
X115733952Y-102325048D01*
X115733952Y-100868000D01*
X115698530Y-100679747D01*
X115649000Y-100602775D01*
X115649000Y-100264469D01*
X115726953Y-100186652D01*
X115857851Y-99871415D01*
X115858148Y-99530082D01*
X115727801Y-99214617D01*
X115486652Y-98973047D01*
X115442331Y-98954643D01*
X122873000Y-91523974D01*
X122873000Y-103171737D01*
G36*
X108784835Y-91133697D02*
X109208672Y-91558274D01*
X109356000Y-91619450D01*
X109356000Y-91954411D01*
X109242153Y-92228585D01*
X109241856Y-92569918D01*
X109269574Y-92637000D01*
X108487039Y-92637000D01*
X108462530Y-92506747D01*
X108351272Y-92333847D01*
X108181512Y-92217855D01*
X107980000Y-92177048D01*
X107280000Y-92177048D01*
X107091747Y-92212470D01*
X106918847Y-92323728D01*
X106802855Y-92493488D01*
X106762048Y-92695000D01*
X106762048Y-93995000D01*
X106797470Y-94183253D01*
X106829322Y-94232752D01*
X106802855Y-94271488D01*
X106762048Y-94473000D01*
X106762048Y-95773000D01*
X106797470Y-95961253D01*
X106908728Y-96134153D01*
X107002647Y-96198325D01*
X106838847Y-96303728D01*
X106722855Y-96473488D01*
X106682048Y-96675000D01*
X106682048Y-97925000D01*
X106709616Y-98071510D01*
X106622855Y-98198488D01*
X106582048Y-98400000D01*
X106582048Y-100200000D01*
X106617470Y-100388253D01*
X106728728Y-100561153D01*
X106898488Y-100677145D01*
X107100000Y-100717952D01*
X107722754Y-100717952D01*
X108548048Y-101543245D01*
X108548048Y-102325048D01*
X107091000Y-102325048D01*
X106902747Y-102360470D01*
X106825775Y-102410000D01*
X105944599Y-102410000D01*
X106004106Y-102320941D01*
X106008072Y-102301001D01*
X106058000Y-102050001D01*
X106057999Y-102049996D01*
X106057999Y-97750004D01*
X106058000Y-97749999D01*
X106004106Y-97479059D01*
X105850631Y-97249367D01*
X104432264Y-95831000D01*
X104872961Y-95831000D01*
X104897470Y-95961253D01*
X105008728Y-96134153D01*
X105178488Y-96250145D01*
X105380000Y-96290952D01*
X106080000Y-96290952D01*
X106268253Y-96255530D01*
X106441153Y-96144272D01*
X106557145Y-95974512D01*
X106597952Y-95773000D01*
X106597952Y-94473000D01*
X106562530Y-94284747D01*
X106530678Y-94235248D01*
X106557145Y-94196512D01*
X106597952Y-93995000D01*
X106597952Y-92695000D01*
X106562530Y-92506747D01*
X106451272Y-92333847D01*
X106281512Y-92217855D01*
X106080000Y-92177048D01*
X105380000Y-92177048D01*
X105191747Y-92212470D01*
X105018847Y-92323728D01*
X104902855Y-92493488D01*
X104873793Y-92637000D01*
X104786264Y-92637000D01*
X103916056Y-91766792D01*
X104417097Y-91559765D01*
X104841674Y-91135928D01*
X104902850Y-90988600D01*
X108724882Y-90988600D01*
X108784835Y-91133697D01*
X108784835Y-91133697D01*
G37*
X108784835Y-91133697D02*
X109208672Y-91558274D01*
X109356000Y-91619450D01*
X109356000Y-91954411D01*
X109242153Y-92228585D01*
X109241856Y-92569918D01*
X109269574Y-92637000D01*
X108487039Y-92637000D01*
X108462530Y-92506747D01*
X108351272Y-92333847D01*
X108181512Y-92217855D01*
X107980000Y-92177048D01*
X107280000Y-92177048D01*
X107091747Y-92212470D01*
X106918847Y-92323728D01*
X106802855Y-92493488D01*
X106762048Y-92695000D01*
X106762048Y-93995000D01*
X106797470Y-94183253D01*
X106829322Y-94232752D01*
X106802855Y-94271488D01*
X106762048Y-94473000D01*
X106762048Y-95773000D01*
X106797470Y-95961253D01*
X106908728Y-96134153D01*
X107002647Y-96198325D01*
X106838847Y-96303728D01*
X106722855Y-96473488D01*
X106682048Y-96675000D01*
X106682048Y-97925000D01*
X106709616Y-98071510D01*
X106622855Y-98198488D01*
X106582048Y-98400000D01*
X106582048Y-100200000D01*
X106617470Y-100388253D01*
X106728728Y-100561153D01*
X106898488Y-100677145D01*
X107100000Y-100717952D01*
X107722754Y-100717952D01*
X108548048Y-101543245D01*
X108548048Y-102325048D01*
X107091000Y-102325048D01*
X106902747Y-102360470D01*
X106825775Y-102410000D01*
X105944599Y-102410000D01*
X106004106Y-102320941D01*
X106008072Y-102301001D01*
X106058000Y-102050001D01*
X106057999Y-102049996D01*
X106057999Y-97750004D01*
X106058000Y-97749999D01*
X106004106Y-97479059D01*
X105850631Y-97249367D01*
X104432264Y-95831000D01*
X104872961Y-95831000D01*
X104897470Y-95961253D01*
X105008728Y-96134153D01*
X105178488Y-96250145D01*
X105380000Y-96290952D01*
X106080000Y-96290952D01*
X106268253Y-96255530D01*
X106441153Y-96144272D01*
X106557145Y-95974512D01*
X106597952Y-95773000D01*
X106597952Y-94473000D01*
X106562530Y-94284747D01*
X106530678Y-94235248D01*
X106557145Y-94196512D01*
X106597952Y-93995000D01*
X106597952Y-92695000D01*
X106562530Y-92506747D01*
X106451272Y-92333847D01*
X106281512Y-92217855D01*
X106080000Y-92177048D01*
X105380000Y-92177048D01*
X105191747Y-92212470D01*
X105018847Y-92323728D01*
X104902855Y-92493488D01*
X104873793Y-92637000D01*
X104786264Y-92637000D01*
X103916056Y-91766792D01*
X104417097Y-91559765D01*
X104841674Y-91135928D01*
X104902850Y-90988600D01*
X108724882Y-90988600D01*
X108784835Y-91133697D01*
G36*
X111748048Y-101815000D02*
X111733952Y-101815000D01*
X111733952Y-101521000D01*
X111748048Y-101521000D01*
X111748048Y-101815000D01*
X111748048Y-101815000D01*
G37*
X111748048Y-101815000D02*
X111733952Y-101815000D01*
X111733952Y-101521000D01*
X111748048Y-101521000D01*
X111748048Y-101815000D01*
G36*
X114142149Y-99528585D02*
X114141852Y-99869918D01*
X114233000Y-100090514D01*
X114233000Y-100350048D01*
X113996074Y-100350048D01*
X113975699Y-100329673D01*
X113742310Y-100233000D01*
X113626750Y-100233000D01*
X113468000Y-100391750D01*
X113468000Y-100550655D01*
X113388855Y-100666488D01*
X113348048Y-100868000D01*
X113348048Y-101815000D01*
X113333952Y-101815000D01*
X113333952Y-100868000D01*
X113299000Y-100682245D01*
X113299000Y-99847974D01*
X113629022Y-99517952D01*
X114146564Y-99517952D01*
X114142149Y-99528585D01*
X114142149Y-99528585D01*
G37*
X114142149Y-99528585D02*
X114141852Y-99869918D01*
X114233000Y-100090514D01*
X114233000Y-100350048D01*
X113996074Y-100350048D01*
X113975699Y-100329673D01*
X113742310Y-100233000D01*
X113626750Y-100233000D01*
X113468000Y-100391750D01*
X113468000Y-100550655D01*
X113388855Y-100666488D01*
X113348048Y-100868000D01*
X113348048Y-101815000D01*
X113333952Y-101815000D01*
X113333952Y-100868000D01*
X113299000Y-100682245D01*
X113299000Y-99847974D01*
X113629022Y-99517952D01*
X114146564Y-99517952D01*
X114142149Y-99528585D01*
G36*
X106806998Y-79705844D02*
X106577110Y-79584524D01*
X106167076Y-79754355D01*
X105738817Y-80144642D01*
X105492514Y-80669108D01*
X105613181Y-80899000D01*
X106807000Y-80899000D01*
X106807000Y-80879000D01*
X107061000Y-80879000D01*
X107061000Y-80899000D01*
X107081000Y-80899000D01*
X107081000Y-81153000D01*
X107061000Y-81153000D01*
X107061000Y-82346155D01*
X107077000Y-82354599D01*
X107077000Y-83312000D01*
X107097000Y-83312000D01*
X107097000Y-83566000D01*
X107077000Y-83566000D01*
X107077000Y-84540250D01*
X107235750Y-84699000D01*
X107576309Y-84699000D01*
X107809698Y-84602327D01*
X107988327Y-84423699D01*
X108023363Y-84339114D01*
X108078728Y-84425153D01*
X108248488Y-84541145D01*
X108450000Y-84581952D01*
X109108123Y-84581952D01*
X109091073Y-84628068D01*
X110064000Y-85600995D01*
X111036927Y-84628068D01*
X110938264Y-84361213D01*
X110673905Y-84263000D01*
X111522880Y-84263000D01*
X111587488Y-84307145D01*
X111789000Y-84347952D01*
X113275999Y-84347952D01*
X113275999Y-84562048D01*
X111789000Y-84562048D01*
X111600747Y-84597470D01*
X111427847Y-84708728D01*
X111331258Y-84850090D01*
X111216532Y-84807673D01*
X110243605Y-85780600D01*
X111216532Y-86753527D01*
X111483387Y-86654864D01*
X111645366Y-86218866D01*
X111789000Y-86247952D01*
X111807810Y-86247952D01*
X111784847Y-86262728D01*
X111668855Y-86432488D01*
X111628048Y-86634000D01*
X111628048Y-89134000D01*
X111663470Y-89322253D01*
X111774728Y-89495153D01*
X111944488Y-89611145D01*
X112146000Y-89651952D01*
X113046000Y-89651952D01*
X113234253Y-89616530D01*
X113407153Y-89505272D01*
X113523145Y-89335512D01*
X113563952Y-89134000D01*
X113563952Y-86634000D01*
X113528530Y-86445747D01*
X113417272Y-86272847D01*
X113373963Y-86243255D01*
X113537253Y-86212530D01*
X113710153Y-86101272D01*
X113800657Y-85968814D01*
X114004923Y-86105301D01*
X114193263Y-86142764D01*
X114287488Y-86207145D01*
X114489000Y-86247952D01*
X114707810Y-86247952D01*
X114684847Y-86262728D01*
X114568855Y-86432488D01*
X114528048Y-86634000D01*
X114528048Y-89134000D01*
X114563470Y-89322253D01*
X114674728Y-89495153D01*
X114844488Y-89611145D01*
X115046000Y-89651952D01*
X115946000Y-89651952D01*
X116134253Y-89616530D01*
X116307153Y-89505272D01*
X116423145Y-89335512D01*
X116463952Y-89134000D01*
X116463952Y-86634000D01*
X116428530Y-86445747D01*
X116360484Y-86340000D01*
X116412351Y-86340000D01*
X116478728Y-86443153D01*
X116648488Y-86559145D01*
X116850000Y-86599952D01*
X118039978Y-86599952D01*
X118228449Y-86788423D01*
X118130306Y-87024778D01*
X118129696Y-87724154D01*
X118228572Y-87963454D01*
X117715690Y-88476336D01*
X117586331Y-88529786D01*
X117330684Y-88784988D01*
X117192158Y-89118595D01*
X117191843Y-89479820D01*
X117329786Y-89813669D01*
X117584988Y-90069316D01*
X117918595Y-90207842D01*
X118098121Y-90207999D01*
X117993612Y-90480806D01*
X118013750Y-91230435D01*
X118261877Y-91829467D01*
X118554680Y-91958715D01*
X119708395Y-90805000D01*
X119694253Y-90790858D01*
X119873858Y-90611253D01*
X119888000Y-90625395D01*
X121041715Y-89471680D01*
X120912467Y-89178877D01*
X120505549Y-89022992D01*
X120882526Y-88867229D01*
X121377491Y-88373127D01*
X121645694Y-87727222D01*
X121646304Y-87027846D01*
X121379229Y-86381474D01*
X120885127Y-85886509D01*
X120239222Y-85618306D01*
X119539846Y-85617696D01*
X119300546Y-85716572D01*
X118629987Y-85046013D01*
X118608476Y-85031640D01*
X118582530Y-84893747D01*
X118471272Y-84720847D01*
X118375313Y-84655281D01*
X118459699Y-84620327D01*
X118638327Y-84441698D01*
X118735000Y-84208309D01*
X118735000Y-83867750D01*
X118576250Y-83709000D01*
X117602000Y-83709000D01*
X117602000Y-83729000D01*
X117348000Y-83729000D01*
X117348000Y-83709000D01*
X117328000Y-83709000D01*
X117328000Y-83455000D01*
X117348000Y-83455000D01*
X117348000Y-83435000D01*
X117602000Y-83435000D01*
X117602000Y-83455000D01*
X118576250Y-83455000D01*
X118646251Y-83384999D01*
X120871027Y-83384999D01*
X121692001Y-84205973D01*
X121692001Y-90209969D01*
X121514123Y-89780533D01*
X121221320Y-89651285D01*
X120067605Y-90805000D01*
X120081748Y-90819143D01*
X119902143Y-90998748D01*
X119888000Y-90984605D01*
X118734285Y-92138320D01*
X118863533Y-92431123D01*
X119556454Y-92696572D01*
X114647502Y-97605524D01*
X114600313Y-97573281D01*
X114684699Y-97538327D01*
X114863327Y-97359698D01*
X114960000Y-97126309D01*
X114960000Y-96785750D01*
X114801250Y-96627000D01*
X113827000Y-96627000D01*
X113827000Y-96647000D01*
X113573000Y-96647000D01*
X113573000Y-96627000D01*
X111927000Y-96627000D01*
X111927000Y-96647000D01*
X111673000Y-96647000D01*
X111673000Y-96627000D01*
X111653000Y-96627000D01*
X111653000Y-96373000D01*
X111673000Y-96373000D01*
X111673000Y-96353000D01*
X111927000Y-96353000D01*
X111927000Y-96373000D01*
X113573000Y-96373000D01*
X113573000Y-95523750D01*
X113827000Y-95523750D01*
X113827000Y-96373000D01*
X114801250Y-96373000D01*
X114960000Y-96214250D01*
X114960000Y-95873691D01*
X114863327Y-95640302D01*
X114684699Y-95461673D01*
X114451310Y-95365000D01*
X113985750Y-95365000D01*
X113827000Y-95523750D01*
X113573000Y-95523750D01*
X113488264Y-95439014D01*
X113557857Y-95271415D01*
X113558154Y-94930082D01*
X113427807Y-94614617D01*
X113186658Y-94373047D01*
X112871421Y-94242149D01*
X112530088Y-94241852D01*
X112214623Y-94372199D01*
X112171747Y-94415000D01*
X108487039Y-94415000D01*
X108462530Y-94284747D01*
X108430678Y-94235248D01*
X108457145Y-94196512D01*
X108486207Y-94053000D01*
X113273369Y-94053000D01*
X113289126Y-94059543D01*
X113630459Y-94059840D01*
X113945924Y-93929493D01*
X114187494Y-93688344D01*
X114318392Y-93373107D01*
X114318689Y-93031774D01*
X114188342Y-92716309D01*
X113947193Y-92474739D01*
X113631956Y-92343841D01*
X113290623Y-92343544D01*
X112975158Y-92473891D01*
X112811764Y-92637000D01*
X110930622Y-92637000D01*
X110957855Y-92571415D01*
X110958152Y-92230082D01*
X110827805Y-91914617D01*
X110772000Y-91858715D01*
X110772000Y-91619718D01*
X110917097Y-91559765D01*
X111341674Y-91135928D01*
X111571737Y-90581876D01*
X111572261Y-89981956D01*
X111343165Y-89427503D01*
X110919328Y-89002926D01*
X110365276Y-88772863D01*
X109765356Y-88772339D01*
X109210903Y-89001435D01*
X108786326Y-89425272D01*
X108725150Y-89572600D01*
X104903118Y-89572600D01*
X104843165Y-89427503D01*
X104419328Y-89002926D01*
X103865276Y-88772863D01*
X103265356Y-88772339D01*
X102710903Y-89001435D01*
X102286326Y-89425272D01*
X102060965Y-89968000D01*
X102000940Y-89927893D01*
X101730000Y-89873999D01*
X101729995Y-89874000D01*
X101379145Y-89874000D01*
X101330000Y-89864048D01*
X100630000Y-89864048D01*
X100444902Y-89898876D01*
X100389698Y-89843673D01*
X100156309Y-89747000D01*
X99965750Y-89747000D01*
X99807000Y-89905750D01*
X99807000Y-90482000D01*
X99827000Y-90482000D01*
X99827000Y-90585750D01*
X99807000Y-90605750D01*
X99807000Y-91258250D01*
X99827000Y-91278250D01*
X99827000Y-91382000D01*
X99807000Y-91382000D01*
X99807000Y-91958250D01*
X99965750Y-92117000D01*
X100156309Y-92117000D01*
X100306379Y-92054839D01*
X100325893Y-92152940D01*
X100378083Y-92231048D01*
X99099000Y-92231048D01*
X98910747Y-92266470D01*
X98737847Y-92377728D01*
X98621855Y-92547488D01*
X98583000Y-92739361D01*
X98583000Y-90255690D01*
X98695000Y-90255690D01*
X98695000Y-90323250D01*
X98853750Y-90482000D01*
X99119194Y-90482000D01*
X98970302Y-90543673D01*
X98791673Y-90722301D01*
X98776275Y-90759475D01*
X98695000Y-90840750D01*
X98695000Y-90908310D01*
X98704813Y-90932000D01*
X98695000Y-90955690D01*
X98695000Y-91023250D01*
X98776275Y-91104525D01*
X98791673Y-91141699D01*
X98970302Y-91320327D01*
X99119194Y-91382000D01*
X98853750Y-91382000D01*
X98695000Y-91540750D01*
X98695000Y-91608310D01*
X98791673Y-91841699D01*
X98970302Y-92020327D01*
X99203691Y-92117000D01*
X99394250Y-92117000D01*
X99553000Y-91958250D01*
X99553000Y-91382000D01*
X99429250Y-91382000D01*
X99553000Y-91258250D01*
X99553000Y-90605750D01*
X99429250Y-90482000D01*
X99553000Y-90482000D01*
X99553000Y-89905750D01*
X99394250Y-89747000D01*
X99203691Y-89747000D01*
X98970302Y-89843673D01*
X98791673Y-90022301D01*
X98695000Y-90255690D01*
X98583000Y-90255690D01*
X98583000Y-88468624D01*
X99158767Y-88707703D01*
X99838252Y-88708296D01*
X100466240Y-88448816D01*
X100947128Y-87968768D01*
X101207703Y-87341233D01*
X101208059Y-86933132D01*
X102591073Y-86933132D01*
X102689736Y-87199987D01*
X103299461Y-87426508D01*
X103949460Y-87402456D01*
X104438264Y-87199987D01*
X104536927Y-86933132D01*
X109091073Y-86933132D01*
X109189736Y-87199987D01*
X109799461Y-87426508D01*
X110449460Y-87402456D01*
X110938264Y-87199987D01*
X111036927Y-86933132D01*
X110064000Y-85960205D01*
X109091073Y-86933132D01*
X104536927Y-86933132D01*
X103564000Y-85960205D01*
X102591073Y-86933132D01*
X101208059Y-86933132D01*
X101208296Y-86661748D01*
X100948816Y-86033760D01*
X100498843Y-85583000D01*
X101000000Y-85583000D01*
X101056316Y-85571798D01*
X101113737Y-85571798D01*
X101959916Y-85403483D01*
X101918092Y-85516061D01*
X101942144Y-86166060D01*
X102144613Y-86654864D01*
X102411468Y-86753527D01*
X103384395Y-85780600D01*
X103743605Y-85780600D01*
X104716532Y-86753527D01*
X104983387Y-86654864D01*
X105209908Y-86045139D01*
X105190331Y-85516061D01*
X108418092Y-85516061D01*
X108442144Y-86166060D01*
X108644613Y-86654864D01*
X108911468Y-86753527D01*
X109884395Y-85780600D01*
X108911468Y-84807673D01*
X108644613Y-84906336D01*
X108418092Y-85516061D01*
X105190331Y-85516061D01*
X105185856Y-85395140D01*
X104983387Y-84906336D01*
X104716532Y-84807673D01*
X103743605Y-85780600D01*
X103384395Y-85780600D01*
X103370253Y-85766458D01*
X103549858Y-85586853D01*
X103564000Y-85600995D01*
X104536927Y-84628068D01*
X104438264Y-84361213D01*
X103828539Y-84134692D01*
X103813174Y-84135261D01*
X104087468Y-83724750D01*
X105815000Y-83724750D01*
X105815000Y-84190310D01*
X105911673Y-84423699D01*
X106090302Y-84602327D01*
X106323691Y-84699000D01*
X106664250Y-84699000D01*
X106823000Y-84540250D01*
X106823000Y-83566000D01*
X105973750Y-83566000D01*
X105815000Y-83724750D01*
X104087468Y-83724750D01*
X104256385Y-83471948D01*
X104256386Y-83471947D01*
X104304408Y-83356012D01*
X104343437Y-83261789D01*
X104343437Y-83261787D01*
X104571798Y-82113737D01*
X104571798Y-82056316D01*
X104583000Y-82000000D01*
X104583000Y-81382892D01*
X105492514Y-81382892D01*
X105738817Y-81907358D01*
X106126509Y-82260675D01*
X106090302Y-82275673D01*
X105911673Y-82454301D01*
X105815000Y-82687690D01*
X105815000Y-83153250D01*
X105973750Y-83312000D01*
X106823000Y-83312000D01*
X106823000Y-82337750D01*
X106807000Y-82321750D01*
X106807000Y-81153000D01*
X105613181Y-81153000D01*
X105492514Y-81382892D01*
X104583000Y-81382892D01*
X104583000Y-79583000D01*
X106806998Y-79583000D01*
X106806998Y-79705844D01*
X106806998Y-79705844D01*
G37*
X106806998Y-79705844D02*
X106577110Y-79584524D01*
X106167076Y-79754355D01*
X105738817Y-80144642D01*
X105492514Y-80669108D01*
X105613181Y-80899000D01*
X106807000Y-80899000D01*
X106807000Y-80879000D01*
X107061000Y-80879000D01*
X107061000Y-80899000D01*
X107081000Y-80899000D01*
X107081000Y-81153000D01*
X107061000Y-81153000D01*
X107061000Y-82346155D01*
X107077000Y-82354599D01*
X107077000Y-83312000D01*
X107097000Y-83312000D01*
X107097000Y-83566000D01*
X107077000Y-83566000D01*
X107077000Y-84540250D01*
X107235750Y-84699000D01*
X107576309Y-84699000D01*
X107809698Y-84602327D01*
X107988327Y-84423699D01*
X108023363Y-84339114D01*
X108078728Y-84425153D01*
X108248488Y-84541145D01*
X108450000Y-84581952D01*
X109108123Y-84581952D01*
X109091073Y-84628068D01*
X110064000Y-85600995D01*
X111036927Y-84628068D01*
X110938264Y-84361213D01*
X110673905Y-84263000D01*
X111522880Y-84263000D01*
X111587488Y-84307145D01*
X111789000Y-84347952D01*
X113275999Y-84347952D01*
X113275999Y-84562048D01*
X111789000Y-84562048D01*
X111600747Y-84597470D01*
X111427847Y-84708728D01*
X111331258Y-84850090D01*
X111216532Y-84807673D01*
X110243605Y-85780600D01*
X111216532Y-86753527D01*
X111483387Y-86654864D01*
X111645366Y-86218866D01*
X111789000Y-86247952D01*
X111807810Y-86247952D01*
X111784847Y-86262728D01*
X111668855Y-86432488D01*
X111628048Y-86634000D01*
X111628048Y-89134000D01*
X111663470Y-89322253D01*
X111774728Y-89495153D01*
X111944488Y-89611145D01*
X112146000Y-89651952D01*
X113046000Y-89651952D01*
X113234253Y-89616530D01*
X113407153Y-89505272D01*
X113523145Y-89335512D01*
X113563952Y-89134000D01*
X113563952Y-86634000D01*
X113528530Y-86445747D01*
X113417272Y-86272847D01*
X113373963Y-86243255D01*
X113537253Y-86212530D01*
X113710153Y-86101272D01*
X113800657Y-85968814D01*
X114004923Y-86105301D01*
X114193263Y-86142764D01*
X114287488Y-86207145D01*
X114489000Y-86247952D01*
X114707810Y-86247952D01*
X114684847Y-86262728D01*
X114568855Y-86432488D01*
X114528048Y-86634000D01*
X114528048Y-89134000D01*
X114563470Y-89322253D01*
X114674728Y-89495153D01*
X114844488Y-89611145D01*
X115046000Y-89651952D01*
X115946000Y-89651952D01*
X116134253Y-89616530D01*
X116307153Y-89505272D01*
X116423145Y-89335512D01*
X116463952Y-89134000D01*
X116463952Y-86634000D01*
X116428530Y-86445747D01*
X116360484Y-86340000D01*
X116412351Y-86340000D01*
X116478728Y-86443153D01*
X116648488Y-86559145D01*
X116850000Y-86599952D01*
X118039978Y-86599952D01*
X118228449Y-86788423D01*
X118130306Y-87024778D01*
X118129696Y-87724154D01*
X118228572Y-87963454D01*
X117715690Y-88476336D01*
X117586331Y-88529786D01*
X117330684Y-88784988D01*
X117192158Y-89118595D01*
X117191843Y-89479820D01*
X117329786Y-89813669D01*
X117584988Y-90069316D01*
X117918595Y-90207842D01*
X118098121Y-90207999D01*
X117993612Y-90480806D01*
X118013750Y-91230435D01*
X118261877Y-91829467D01*
X118554680Y-91958715D01*
X119708395Y-90805000D01*
X119694253Y-90790858D01*
X119873858Y-90611253D01*
X119888000Y-90625395D01*
X121041715Y-89471680D01*
X120912467Y-89178877D01*
X120505549Y-89022992D01*
X120882526Y-88867229D01*
X121377491Y-88373127D01*
X121645694Y-87727222D01*
X121646304Y-87027846D01*
X121379229Y-86381474D01*
X120885127Y-85886509D01*
X120239222Y-85618306D01*
X119539846Y-85617696D01*
X119300546Y-85716572D01*
X118629987Y-85046013D01*
X118608476Y-85031640D01*
X118582530Y-84893747D01*
X118471272Y-84720847D01*
X118375313Y-84655281D01*
X118459699Y-84620327D01*
X118638327Y-84441698D01*
X118735000Y-84208309D01*
X118735000Y-83867750D01*
X118576250Y-83709000D01*
X117602000Y-83709000D01*
X117602000Y-83729000D01*
X117348000Y-83729000D01*
X117348000Y-83709000D01*
X117328000Y-83709000D01*
X117328000Y-83455000D01*
X117348000Y-83455000D01*
X117348000Y-83435000D01*
X117602000Y-83435000D01*
X117602000Y-83455000D01*
X118576250Y-83455000D01*
X118646251Y-83384999D01*
X120871027Y-83384999D01*
X121692001Y-84205973D01*
X121692001Y-90209969D01*
X121514123Y-89780533D01*
X121221320Y-89651285D01*
X120067605Y-90805000D01*
X120081748Y-90819143D01*
X119902143Y-90998748D01*
X119888000Y-90984605D01*
X118734285Y-92138320D01*
X118863533Y-92431123D01*
X119556454Y-92696572D01*
X114647502Y-97605524D01*
X114600313Y-97573281D01*
X114684699Y-97538327D01*
X114863327Y-97359698D01*
X114960000Y-97126309D01*
X114960000Y-96785750D01*
X114801250Y-96627000D01*
X113827000Y-96627000D01*
X113827000Y-96647000D01*
X113573000Y-96647000D01*
X113573000Y-96627000D01*
X111927000Y-96627000D01*
X111927000Y-96647000D01*
X111673000Y-96647000D01*
X111673000Y-96627000D01*
X111653000Y-96627000D01*
X111653000Y-96373000D01*
X111673000Y-96373000D01*
X111673000Y-96353000D01*
X111927000Y-96353000D01*
X111927000Y-96373000D01*
X113573000Y-96373000D01*
X113573000Y-95523750D01*
X113827000Y-95523750D01*
X113827000Y-96373000D01*
X114801250Y-96373000D01*
X114960000Y-96214250D01*
X114960000Y-95873691D01*
X114863327Y-95640302D01*
X114684699Y-95461673D01*
X114451310Y-95365000D01*
X113985750Y-95365000D01*
X113827000Y-95523750D01*
X113573000Y-95523750D01*
X113488264Y-95439014D01*
X113557857Y-95271415D01*
X113558154Y-94930082D01*
X113427807Y-94614617D01*
X113186658Y-94373047D01*
X112871421Y-94242149D01*
X112530088Y-94241852D01*
X112214623Y-94372199D01*
X112171747Y-94415000D01*
X108487039Y-94415000D01*
X108462530Y-94284747D01*
X108430678Y-94235248D01*
X108457145Y-94196512D01*
X108486207Y-94053000D01*
X113273369Y-94053000D01*
X113289126Y-94059543D01*
X113630459Y-94059840D01*
X113945924Y-93929493D01*
X114187494Y-93688344D01*
X114318392Y-93373107D01*
X114318689Y-93031774D01*
X114188342Y-92716309D01*
X113947193Y-92474739D01*
X113631956Y-92343841D01*
X113290623Y-92343544D01*
X112975158Y-92473891D01*
X112811764Y-92637000D01*
X110930622Y-92637000D01*
X110957855Y-92571415D01*
X110958152Y-92230082D01*
X110827805Y-91914617D01*
X110772000Y-91858715D01*
X110772000Y-91619718D01*
X110917097Y-91559765D01*
X111341674Y-91135928D01*
X111571737Y-90581876D01*
X111572261Y-89981956D01*
X111343165Y-89427503D01*
X110919328Y-89002926D01*
X110365276Y-88772863D01*
X109765356Y-88772339D01*
X109210903Y-89001435D01*
X108786326Y-89425272D01*
X108725150Y-89572600D01*
X104903118Y-89572600D01*
X104843165Y-89427503D01*
X104419328Y-89002926D01*
X103865276Y-88772863D01*
X103265356Y-88772339D01*
X102710903Y-89001435D01*
X102286326Y-89425272D01*
X102060965Y-89968000D01*
X102000940Y-89927893D01*
X101730000Y-89873999D01*
X101729995Y-89874000D01*
X101379145Y-89874000D01*
X101330000Y-89864048D01*
X100630000Y-89864048D01*
X100444902Y-89898876D01*
X100389698Y-89843673D01*
X100156309Y-89747000D01*
X99965750Y-89747000D01*
X99807000Y-89905750D01*
X99807000Y-90482000D01*
X99827000Y-90482000D01*
X99827000Y-90585750D01*
X99807000Y-90605750D01*
X99807000Y-91258250D01*
X99827000Y-91278250D01*
X99827000Y-91382000D01*
X99807000Y-91382000D01*
X99807000Y-91958250D01*
X99965750Y-92117000D01*
X100156309Y-92117000D01*
X100306379Y-92054839D01*
X100325893Y-92152940D01*
X100378083Y-92231048D01*
X99099000Y-92231048D01*
X98910747Y-92266470D01*
X98737847Y-92377728D01*
X98621855Y-92547488D01*
X98583000Y-92739361D01*
X98583000Y-90255690D01*
X98695000Y-90255690D01*
X98695000Y-90323250D01*
X98853750Y-90482000D01*
X99119194Y-90482000D01*
X98970302Y-90543673D01*
X98791673Y-90722301D01*
X98776275Y-90759475D01*
X98695000Y-90840750D01*
X98695000Y-90908310D01*
X98704813Y-90932000D01*
X98695000Y-90955690D01*
X98695000Y-91023250D01*
X98776275Y-91104525D01*
X98791673Y-91141699D01*
X98970302Y-91320327D01*
X99119194Y-91382000D01*
X98853750Y-91382000D01*
X98695000Y-91540750D01*
X98695000Y-91608310D01*
X98791673Y-91841699D01*
X98970302Y-92020327D01*
X99203691Y-92117000D01*
X99394250Y-92117000D01*
X99553000Y-91958250D01*
X99553000Y-91382000D01*
X99429250Y-91382000D01*
X99553000Y-91258250D01*
X99553000Y-90605750D01*
X99429250Y-90482000D01*
X99553000Y-90482000D01*
X99553000Y-89905750D01*
X99394250Y-89747000D01*
X99203691Y-89747000D01*
X98970302Y-89843673D01*
X98791673Y-90022301D01*
X98695000Y-90255690D01*
X98583000Y-90255690D01*
X98583000Y-88468624D01*
X99158767Y-88707703D01*
X99838252Y-88708296D01*
X100466240Y-88448816D01*
X100947128Y-87968768D01*
X101207703Y-87341233D01*
X101208059Y-86933132D01*
X102591073Y-86933132D01*
X102689736Y-87199987D01*
X103299461Y-87426508D01*
X103949460Y-87402456D01*
X104438264Y-87199987D01*
X104536927Y-86933132D01*
X109091073Y-86933132D01*
X109189736Y-87199987D01*
X109799461Y-87426508D01*
X110449460Y-87402456D01*
X110938264Y-87199987D01*
X111036927Y-86933132D01*
X110064000Y-85960205D01*
X109091073Y-86933132D01*
X104536927Y-86933132D01*
X103564000Y-85960205D01*
X102591073Y-86933132D01*
X101208059Y-86933132D01*
X101208296Y-86661748D01*
X100948816Y-86033760D01*
X100498843Y-85583000D01*
X101000000Y-85583000D01*
X101056316Y-85571798D01*
X101113737Y-85571798D01*
X101959916Y-85403483D01*
X101918092Y-85516061D01*
X101942144Y-86166060D01*
X102144613Y-86654864D01*
X102411468Y-86753527D01*
X103384395Y-85780600D01*
X103743605Y-85780600D01*
X104716532Y-86753527D01*
X104983387Y-86654864D01*
X105209908Y-86045139D01*
X105190331Y-85516061D01*
X108418092Y-85516061D01*
X108442144Y-86166060D01*
X108644613Y-86654864D01*
X108911468Y-86753527D01*
X109884395Y-85780600D01*
X108911468Y-84807673D01*
X108644613Y-84906336D01*
X108418092Y-85516061D01*
X105190331Y-85516061D01*
X105185856Y-85395140D01*
X104983387Y-84906336D01*
X104716532Y-84807673D01*
X103743605Y-85780600D01*
X103384395Y-85780600D01*
X103370253Y-85766458D01*
X103549858Y-85586853D01*
X103564000Y-85600995D01*
X104536927Y-84628068D01*
X104438264Y-84361213D01*
X103828539Y-84134692D01*
X103813174Y-84135261D01*
X104087468Y-83724750D01*
X105815000Y-83724750D01*
X105815000Y-84190310D01*
X105911673Y-84423699D01*
X106090302Y-84602327D01*
X106323691Y-84699000D01*
X106664250Y-84699000D01*
X106823000Y-84540250D01*
X106823000Y-83566000D01*
X105973750Y-83566000D01*
X105815000Y-83724750D01*
X104087468Y-83724750D01*
X104256385Y-83471948D01*
X104256386Y-83471947D01*
X104304408Y-83356012D01*
X104343437Y-83261789D01*
X104343437Y-83261787D01*
X104571798Y-82113737D01*
X104571798Y-82056316D01*
X104583000Y-82000000D01*
X104583000Y-81382892D01*
X105492514Y-81382892D01*
X105738817Y-81907358D01*
X106126509Y-82260675D01*
X106090302Y-82275673D01*
X105911673Y-82454301D01*
X105815000Y-82687690D01*
X105815000Y-83153250D01*
X105973750Y-83312000D01*
X106823000Y-83312000D01*
X106823000Y-82337750D01*
X106807000Y-82321750D01*
X106807000Y-81153000D01*
X105613181Y-81153000D01*
X105492514Y-81382892D01*
X104583000Y-81382892D01*
X104583000Y-79583000D01*
X106806998Y-79583000D01*
X106806998Y-79705844D01*
G36*
X110540000Y-95873691D02*
X110540000Y-96128514D01*
X110326309Y-96040000D01*
X109985750Y-96040000D01*
X109827000Y-96198750D01*
X109827000Y-97173000D01*
X109847000Y-97173000D01*
X109847000Y-97427000D01*
X109827000Y-97427000D01*
X109827000Y-97447000D01*
X109573000Y-97447000D01*
X109573000Y-97427000D01*
X109553000Y-97427000D01*
X109553000Y-97173000D01*
X109573000Y-97173000D01*
X109573000Y-96198750D01*
X109414250Y-96040000D01*
X109073691Y-96040000D01*
X108840302Y-96136673D01*
X108661673Y-96315301D01*
X108626637Y-96399886D01*
X108571272Y-96313847D01*
X108401512Y-96197855D01*
X108292263Y-96175732D01*
X108341153Y-96144272D01*
X108457145Y-95974512D01*
X108486207Y-95831000D01*
X110557683Y-95831000D01*
X110540000Y-95873691D01*
X110540000Y-95873691D01*
G37*
X110540000Y-95873691D02*
X110540000Y-96128514D01*
X110326309Y-96040000D01*
X109985750Y-96040000D01*
X109827000Y-96198750D01*
X109827000Y-97173000D01*
X109847000Y-97173000D01*
X109847000Y-97427000D01*
X109827000Y-97427000D01*
X109827000Y-97447000D01*
X109573000Y-97447000D01*
X109573000Y-97427000D01*
X109553000Y-97427000D01*
X109553000Y-97173000D01*
X109573000Y-97173000D01*
X109573000Y-96198750D01*
X109414250Y-96040000D01*
X109073691Y-96040000D01*
X108840302Y-96136673D01*
X108661673Y-96315301D01*
X108626637Y-96399886D01*
X108571272Y-96313847D01*
X108401512Y-96197855D01*
X108292263Y-96175732D01*
X108341153Y-96144272D01*
X108457145Y-95974512D01*
X108486207Y-95831000D01*
X110557683Y-95831000D01*
X110540000Y-95873691D01*
G36*
X115416000Y-84562048D02*
X115122000Y-84562048D01*
X115122000Y-84347952D01*
X115416000Y-84347952D01*
X115416000Y-84562048D01*
X115416000Y-84562048D01*
G37*
X115416000Y-84562048D02*
X115122000Y-84562048D01*
X115122000Y-84347952D01*
X115416000Y-84347952D01*
X115416000Y-84562048D01*
M02*
