G04 #@! TF.FileFunction,Soldermask,Top*
%FSLAX46Y46*%
G04 Gerber Fmt 4.6, Leading zero omitted, Abs format (unit mm)*
G04 Created by KiCad (PCBNEW 4.0.6) date 04/23/17 17:59:47*
%MOMM*%
%LPD*%
G01*
G04 APERTURE LIST*
%ADD10C,0.100000*%
G04 APERTURE END LIST*
D10*
G36*
X115121005Y-137715576D02*
X115121016Y-137715580D01*
X115121078Y-137715586D01*
X115307516Y-137773298D01*
X115479193Y-137866123D01*
X115629571Y-137990527D01*
X115752921Y-138141769D01*
X115844546Y-138314091D01*
X115900955Y-138500927D01*
X115920000Y-138695161D01*
X115920000Y-138704962D01*
X115919925Y-138715750D01*
X115919924Y-138715758D01*
X115919903Y-138718801D01*
X115898148Y-138912751D01*
X115839135Y-139098781D01*
X115745113Y-139269806D01*
X115619663Y-139419312D01*
X115467563Y-139541603D01*
X115294607Y-139632023D01*
X115107381Y-139687126D01*
X115107326Y-139687131D01*
X115107309Y-139687136D01*
X114913023Y-139704817D01*
X114718995Y-139684424D01*
X114718984Y-139684420D01*
X114718922Y-139684414D01*
X114532484Y-139626702D01*
X114360807Y-139533877D01*
X114210429Y-139409473D01*
X114087079Y-139258231D01*
X113995454Y-139085909D01*
X113939045Y-138899073D01*
X113920000Y-138704839D01*
X113920000Y-138695038D01*
X113920075Y-138684250D01*
X113920076Y-138684242D01*
X113920097Y-138681199D01*
X113941852Y-138487249D01*
X114000865Y-138301219D01*
X114094887Y-138130194D01*
X114220337Y-137980688D01*
X114372437Y-137858397D01*
X114545393Y-137767977D01*
X114732619Y-137712874D01*
X114732674Y-137712869D01*
X114732691Y-137712864D01*
X114926977Y-137695183D01*
X115121005Y-137715576D01*
X115121005Y-137715576D01*
G37*
G36*
X112581005Y-137715576D02*
X112581016Y-137715580D01*
X112581078Y-137715586D01*
X112767516Y-137773298D01*
X112939193Y-137866123D01*
X113089571Y-137990527D01*
X113212921Y-138141769D01*
X113304546Y-138314091D01*
X113360955Y-138500927D01*
X113380000Y-138695161D01*
X113380000Y-138704962D01*
X113379925Y-138715750D01*
X113379924Y-138715758D01*
X113379903Y-138718801D01*
X113358148Y-138912751D01*
X113299135Y-139098781D01*
X113205113Y-139269806D01*
X113079663Y-139419312D01*
X112927563Y-139541603D01*
X112754607Y-139632023D01*
X112567381Y-139687126D01*
X112567326Y-139687131D01*
X112567309Y-139687136D01*
X112373023Y-139704817D01*
X112178995Y-139684424D01*
X112178984Y-139684420D01*
X112178922Y-139684414D01*
X111992484Y-139626702D01*
X111820807Y-139533877D01*
X111670429Y-139409473D01*
X111547079Y-139258231D01*
X111455454Y-139085909D01*
X111399045Y-138899073D01*
X111380000Y-138704839D01*
X111380000Y-138695038D01*
X111380075Y-138684250D01*
X111380076Y-138684242D01*
X111380097Y-138681199D01*
X111401852Y-138487249D01*
X111460865Y-138301219D01*
X111554887Y-138130194D01*
X111680337Y-137980688D01*
X111832437Y-137858397D01*
X112005393Y-137767977D01*
X112192619Y-137712874D01*
X112192674Y-137712869D01*
X112192691Y-137712864D01*
X112386977Y-137695183D01*
X112581005Y-137715576D01*
X112581005Y-137715576D01*
G37*
G36*
X110041005Y-137715576D02*
X110041016Y-137715580D01*
X110041078Y-137715586D01*
X110227516Y-137773298D01*
X110399193Y-137866123D01*
X110549571Y-137990527D01*
X110672921Y-138141769D01*
X110764546Y-138314091D01*
X110820955Y-138500927D01*
X110840000Y-138695161D01*
X110840000Y-138704962D01*
X110839925Y-138715750D01*
X110839924Y-138715758D01*
X110839903Y-138718801D01*
X110818148Y-138912751D01*
X110759135Y-139098781D01*
X110665113Y-139269806D01*
X110539663Y-139419312D01*
X110387563Y-139541603D01*
X110214607Y-139632023D01*
X110027381Y-139687126D01*
X110027326Y-139687131D01*
X110027309Y-139687136D01*
X109833023Y-139704817D01*
X109638995Y-139684424D01*
X109638984Y-139684420D01*
X109638922Y-139684414D01*
X109452484Y-139626702D01*
X109280807Y-139533877D01*
X109130429Y-139409473D01*
X109007079Y-139258231D01*
X108915454Y-139085909D01*
X108859045Y-138899073D01*
X108840000Y-138704839D01*
X108840000Y-138695038D01*
X108840075Y-138684250D01*
X108840076Y-138684242D01*
X108840097Y-138681199D01*
X108861852Y-138487249D01*
X108920865Y-138301219D01*
X109014887Y-138130194D01*
X109140337Y-137980688D01*
X109292437Y-137858397D01*
X109465393Y-137767977D01*
X109652619Y-137712874D01*
X109652674Y-137712869D01*
X109652691Y-137712864D01*
X109846977Y-137695183D01*
X110041005Y-137715576D01*
X110041005Y-137715576D01*
G37*
G36*
X117661005Y-137715576D02*
X117661016Y-137715580D01*
X117661078Y-137715586D01*
X117847516Y-137773298D01*
X118019193Y-137866123D01*
X118169571Y-137990527D01*
X118292921Y-138141769D01*
X118384546Y-138314091D01*
X118440955Y-138500927D01*
X118460000Y-138695161D01*
X118460000Y-138704962D01*
X118459925Y-138715750D01*
X118459924Y-138715758D01*
X118459903Y-138718801D01*
X118438148Y-138912751D01*
X118379135Y-139098781D01*
X118285113Y-139269806D01*
X118159663Y-139419312D01*
X118007563Y-139541603D01*
X117834607Y-139632023D01*
X117647381Y-139687126D01*
X117647326Y-139687131D01*
X117647309Y-139687136D01*
X117453023Y-139704817D01*
X117258995Y-139684424D01*
X117258984Y-139684420D01*
X117258922Y-139684414D01*
X117072484Y-139626702D01*
X116900807Y-139533877D01*
X116750429Y-139409473D01*
X116627079Y-139258231D01*
X116535454Y-139085909D01*
X116479045Y-138899073D01*
X116460000Y-138704839D01*
X116460000Y-138695038D01*
X116460075Y-138684250D01*
X116460076Y-138684242D01*
X116460097Y-138681199D01*
X116481852Y-138487249D01*
X116540865Y-138301219D01*
X116634887Y-138130194D01*
X116760337Y-137980688D01*
X116912437Y-137858397D01*
X117085393Y-137767977D01*
X117272619Y-137712874D01*
X117272674Y-137712869D01*
X117272691Y-137712864D01*
X117466977Y-137695183D01*
X117661005Y-137715576D01*
X117661005Y-137715576D01*
G37*
G36*
X108300000Y-139700000D02*
X106300000Y-139700000D01*
X106300000Y-137700000D01*
X108300000Y-137700000D01*
X108300000Y-139700000D01*
X108300000Y-139700000D01*
G37*
G36*
X113959130Y-133561689D02*
X114158726Y-133602660D01*
X114346568Y-133681621D01*
X114515491Y-133795561D01*
X114659064Y-133940140D01*
X114771825Y-134109859D01*
X114849470Y-134298240D01*
X114888945Y-134497602D01*
X114888945Y-134497620D01*
X114889044Y-134498121D01*
X114885795Y-134730851D01*
X114885680Y-134731356D01*
X114885680Y-134731370D01*
X114840655Y-134929546D01*
X114757780Y-135115689D01*
X114640324Y-135282193D01*
X114492768Y-135422708D01*
X114320731Y-135531887D01*
X114130764Y-135605570D01*
X113930097Y-135640953D01*
X113726378Y-135636686D01*
X113527377Y-135592932D01*
X113340659Y-135511357D01*
X113173345Y-135395071D01*
X113031801Y-135248498D01*
X112921420Y-135077221D01*
X112846414Y-134887777D01*
X112809632Y-134687363D01*
X112812476Y-134483621D01*
X112854840Y-134284317D01*
X112935109Y-134097034D01*
X113050227Y-133928910D01*
X113195808Y-133786347D01*
X113366303Y-133674778D01*
X113555225Y-133598449D01*
X113755381Y-133560266D01*
X113959130Y-133561689D01*
X113959130Y-133561689D01*
G37*
G36*
X111459130Y-133561689D02*
X111658726Y-133602660D01*
X111846568Y-133681621D01*
X112015491Y-133795561D01*
X112159064Y-133940140D01*
X112271825Y-134109859D01*
X112349470Y-134298240D01*
X112388945Y-134497602D01*
X112388945Y-134497620D01*
X112389044Y-134498121D01*
X112385795Y-134730851D01*
X112385680Y-134731356D01*
X112385680Y-134731370D01*
X112340655Y-134929546D01*
X112257780Y-135115689D01*
X112140324Y-135282193D01*
X111992768Y-135422708D01*
X111820731Y-135531887D01*
X111630764Y-135605570D01*
X111430097Y-135640953D01*
X111226378Y-135636686D01*
X111027377Y-135592932D01*
X110840659Y-135511357D01*
X110673345Y-135395071D01*
X110531801Y-135248498D01*
X110421420Y-135077221D01*
X110346414Y-134887777D01*
X110309632Y-134687363D01*
X110312476Y-134483621D01*
X110354840Y-134284317D01*
X110435109Y-134097034D01*
X110550227Y-133928910D01*
X110695808Y-133786347D01*
X110866303Y-133674778D01*
X111055225Y-133598449D01*
X111255381Y-133560266D01*
X111459130Y-133561689D01*
X111459130Y-133561689D01*
G37*
G36*
X116459130Y-133561689D02*
X116658726Y-133602660D01*
X116846568Y-133681621D01*
X117015491Y-133795561D01*
X117159064Y-133940140D01*
X117271825Y-134109859D01*
X117349470Y-134298240D01*
X117388945Y-134497602D01*
X117388945Y-134497620D01*
X117389044Y-134498121D01*
X117385795Y-134730851D01*
X117385680Y-134731356D01*
X117385680Y-134731370D01*
X117340655Y-134929546D01*
X117257780Y-135115689D01*
X117140324Y-135282193D01*
X116992768Y-135422708D01*
X116820731Y-135531887D01*
X116630764Y-135605570D01*
X116430097Y-135640953D01*
X116226378Y-135636686D01*
X116027377Y-135592932D01*
X115840659Y-135511357D01*
X115673345Y-135395071D01*
X115531801Y-135248498D01*
X115421420Y-135077221D01*
X115346414Y-134887777D01*
X115309632Y-134687363D01*
X115312476Y-134483621D01*
X115354840Y-134284317D01*
X115435109Y-134097034D01*
X115550227Y-133928910D01*
X115695808Y-133786347D01*
X115866303Y-133674778D01*
X116055225Y-133598449D01*
X116255381Y-133560266D01*
X116459130Y-133561689D01*
X116459130Y-133561689D01*
G37*
G36*
X109889000Y-135639000D02*
X107811000Y-135639000D01*
X107811000Y-133561000D01*
X109889000Y-133561000D01*
X109889000Y-135639000D01*
X109889000Y-135639000D01*
G37*
G36*
X107105000Y-135385000D02*
X103295000Y-135385000D01*
X103295000Y-133815000D01*
X107105000Y-133815000D01*
X107105000Y-135385000D01*
X107105000Y-135385000D01*
G37*
G36*
X158641796Y-131650896D02*
X158901136Y-131704131D01*
X159145203Y-131806727D01*
X159364686Y-131954770D01*
X159551242Y-132142632D01*
X159697749Y-132363144D01*
X159798637Y-132607916D01*
X159849958Y-132867108D01*
X159849958Y-132867120D01*
X159850058Y-132867626D01*
X159845835Y-133170019D01*
X159845721Y-133170520D01*
X159845721Y-133170537D01*
X159787184Y-133428188D01*
X159679500Y-133670050D01*
X159526892Y-133886386D01*
X159335166Y-134068965D01*
X159111629Y-134210825D01*
X158864803Y-134306563D01*
X158604072Y-134352537D01*
X158339376Y-134346992D01*
X158080808Y-134290142D01*
X157838203Y-134184151D01*
X157620802Y-134033054D01*
X157436890Y-133842606D01*
X157293475Y-133620070D01*
X157196015Y-133373915D01*
X157148223Y-133113513D01*
X157151919Y-132848786D01*
X157206963Y-132589825D01*
X157311259Y-132346483D01*
X157460834Y-132128036D01*
X157649990Y-131942800D01*
X157871519Y-131797836D01*
X158116994Y-131698657D01*
X158377058Y-131649047D01*
X158641796Y-131650896D01*
X158641796Y-131650896D01*
G37*
G36*
X99641796Y-131650896D02*
X99901136Y-131704131D01*
X100145203Y-131806727D01*
X100364686Y-131954770D01*
X100551242Y-132142632D01*
X100697749Y-132363144D01*
X100798637Y-132607916D01*
X100849958Y-132867108D01*
X100849958Y-132867120D01*
X100850058Y-132867626D01*
X100845835Y-133170019D01*
X100845721Y-133170520D01*
X100845721Y-133170537D01*
X100787184Y-133428188D01*
X100679500Y-133670050D01*
X100526892Y-133886386D01*
X100335166Y-134068965D01*
X100111629Y-134210825D01*
X99864803Y-134306563D01*
X99604072Y-134352537D01*
X99339376Y-134346992D01*
X99080808Y-134290142D01*
X98838203Y-134184151D01*
X98620802Y-134033054D01*
X98436890Y-133842606D01*
X98293475Y-133620070D01*
X98196015Y-133373915D01*
X98148223Y-133113513D01*
X98151919Y-132848786D01*
X98206963Y-132589825D01*
X98311259Y-132346483D01*
X98460834Y-132128036D01*
X98649990Y-131942800D01*
X98871519Y-131797836D01*
X99116994Y-131698657D01*
X99377058Y-131649047D01*
X99641796Y-131650896D01*
X99641796Y-131650896D01*
G37*
G36*
X100531601Y-128210356D02*
X100531608Y-128210357D01*
X100534651Y-128210378D01*
X100689810Y-128227782D01*
X100838635Y-128274992D01*
X100975455Y-128350209D01*
X101095059Y-128450569D01*
X101192892Y-128572249D01*
X101265228Y-128710615D01*
X101309311Y-128860395D01*
X101309316Y-128860452D01*
X101309320Y-128860465D01*
X101323464Y-129015882D01*
X101307151Y-129171089D01*
X101307147Y-129171100D01*
X101307141Y-129171162D01*
X101260972Y-129320312D01*
X101186711Y-129457654D01*
X101087188Y-129577957D01*
X100966194Y-129676637D01*
X100828337Y-129749937D01*
X100678868Y-129795064D01*
X100523481Y-129810300D01*
X100013192Y-129810300D01*
X100005199Y-129810244D01*
X100005192Y-129810243D01*
X100002149Y-129810222D01*
X99846990Y-129792818D01*
X99698165Y-129745608D01*
X99561345Y-129670391D01*
X99441741Y-129570031D01*
X99343908Y-129448351D01*
X99271572Y-129309985D01*
X99227489Y-129160205D01*
X99227484Y-129160148D01*
X99227480Y-129160135D01*
X99213336Y-129004718D01*
X99229649Y-128849511D01*
X99229653Y-128849500D01*
X99229659Y-128849438D01*
X99275828Y-128700288D01*
X99350089Y-128562946D01*
X99449612Y-128442643D01*
X99570606Y-128343963D01*
X99708463Y-128270663D01*
X99857932Y-128225536D01*
X100013319Y-128210300D01*
X100523608Y-128210300D01*
X100531601Y-128210356D01*
X100531601Y-128210356D01*
G37*
G36*
X113805000Y-128904000D02*
X112255000Y-128904000D01*
X112255000Y-127604000D01*
X113805000Y-127604000D01*
X113805000Y-128904000D01*
X113805000Y-128904000D01*
G37*
G36*
X108778000Y-128604000D02*
X107878000Y-128604000D01*
X107878000Y-127904000D01*
X108778000Y-127904000D01*
X108778000Y-128604000D01*
X108778000Y-128604000D01*
G37*
G36*
X111578000Y-128604000D02*
X110678000Y-128604000D01*
X110678000Y-127904000D01*
X111578000Y-127904000D01*
X111578000Y-128604000D01*
X111578000Y-128604000D01*
G37*
G36*
X102563601Y-126432356D02*
X102563608Y-126432357D01*
X102566651Y-126432378D01*
X102721810Y-126449782D01*
X102870635Y-126496992D01*
X103007455Y-126572209D01*
X103127059Y-126672569D01*
X103224892Y-126794249D01*
X103297228Y-126932615D01*
X103341311Y-127082395D01*
X103341316Y-127082452D01*
X103341320Y-127082465D01*
X103355464Y-127237882D01*
X103339151Y-127393089D01*
X103339147Y-127393100D01*
X103339141Y-127393162D01*
X103292972Y-127542312D01*
X103218711Y-127679654D01*
X103119188Y-127799957D01*
X102998194Y-127898637D01*
X102860337Y-127971937D01*
X102710868Y-128017064D01*
X102555481Y-128032300D01*
X102045192Y-128032300D01*
X102037199Y-128032244D01*
X102037192Y-128032243D01*
X102034149Y-128032222D01*
X101878990Y-128014818D01*
X101730165Y-127967608D01*
X101593345Y-127892391D01*
X101473741Y-127792031D01*
X101375908Y-127670351D01*
X101303572Y-127531985D01*
X101259489Y-127382205D01*
X101259484Y-127382148D01*
X101259480Y-127382135D01*
X101245336Y-127226718D01*
X101261649Y-127071511D01*
X101261653Y-127071500D01*
X101261659Y-127071438D01*
X101307828Y-126922288D01*
X101382089Y-126784946D01*
X101481612Y-126664643D01*
X101602606Y-126565963D01*
X101740463Y-126492663D01*
X101889932Y-126447536D01*
X102045319Y-126432300D01*
X102555608Y-126432300D01*
X102563601Y-126432356D01*
X102563601Y-126432356D01*
G37*
G36*
X119881941Y-125985067D02*
X119881948Y-125985068D01*
X119884990Y-125985089D01*
X120061871Y-126004929D01*
X120231531Y-126058749D01*
X120324753Y-126109998D01*
X120343272Y-126117000D01*
X120364311Y-126118669D01*
X120384981Y-126114411D01*
X120392486Y-126111091D01*
X120500208Y-126053814D01*
X120670602Y-126002369D01*
X120847744Y-125985000D01*
X121622384Y-125985000D01*
X121631941Y-125985067D01*
X121631948Y-125985068D01*
X121634990Y-125985089D01*
X121811871Y-126004929D01*
X121981531Y-126058749D01*
X122137506Y-126144496D01*
X122273855Y-126258907D01*
X122385385Y-126397622D01*
X122467848Y-126555359D01*
X122518102Y-126726108D01*
X122518106Y-126726157D01*
X122518112Y-126726176D01*
X122534237Y-126903363D01*
X122515640Y-127080310D01*
X122515635Y-127080326D01*
X122515629Y-127080383D01*
X122462995Y-127250414D01*
X122378338Y-127406984D01*
X122264882Y-127544129D01*
X122126949Y-127656624D01*
X121969792Y-127740186D01*
X121799398Y-127791631D01*
X121622256Y-127809000D01*
X120847616Y-127809000D01*
X120838059Y-127808933D01*
X120838052Y-127808932D01*
X120835010Y-127808911D01*
X120658129Y-127789071D01*
X120488469Y-127735251D01*
X120395247Y-127684002D01*
X120376728Y-127677000D01*
X120355689Y-127675331D01*
X120335019Y-127679589D01*
X120327514Y-127682909D01*
X120219792Y-127740186D01*
X120049398Y-127791631D01*
X119872256Y-127809000D01*
X119097616Y-127809000D01*
X119088059Y-127808933D01*
X119088052Y-127808932D01*
X119085010Y-127808911D01*
X118908129Y-127789071D01*
X118738469Y-127735251D01*
X118582494Y-127649504D01*
X118446145Y-127535093D01*
X118334615Y-127396378D01*
X118252152Y-127238641D01*
X118201898Y-127067892D01*
X118201894Y-127067843D01*
X118201888Y-127067824D01*
X118185763Y-126890637D01*
X118204360Y-126713690D01*
X118204365Y-126713674D01*
X118204371Y-126713617D01*
X118257005Y-126543586D01*
X118341662Y-126387016D01*
X118455118Y-126249871D01*
X118593051Y-126137376D01*
X118750208Y-126053814D01*
X118920602Y-126002369D01*
X119097744Y-125985000D01*
X119872384Y-125985000D01*
X119881941Y-125985067D01*
X119881941Y-125985067D01*
G37*
G36*
X108778000Y-127604000D02*
X107878000Y-127604000D01*
X107878000Y-126904000D01*
X108778000Y-126904000D01*
X108778000Y-127604000D01*
X108778000Y-127604000D01*
G37*
G36*
X111578000Y-127604000D02*
X110678000Y-127604000D01*
X110678000Y-126904000D01*
X111578000Y-126904000D01*
X111578000Y-127604000D01*
X111578000Y-127604000D01*
G37*
G36*
X113805000Y-126904000D02*
X112255000Y-126904000D01*
X112255000Y-125604000D01*
X113805000Y-125604000D01*
X113805000Y-126904000D01*
X113805000Y-126904000D01*
G37*
G36*
X108778000Y-126604000D02*
X107878000Y-126604000D01*
X107878000Y-125904000D01*
X108778000Y-125904000D01*
X108778000Y-126604000D01*
X108778000Y-126604000D01*
G37*
G36*
X111578000Y-126604000D02*
X110678000Y-126604000D01*
X110678000Y-125904000D01*
X111578000Y-125904000D01*
X111578000Y-126604000D01*
X111578000Y-126604000D01*
G37*
G36*
X100531601Y-124654356D02*
X100531608Y-124654357D01*
X100534651Y-124654378D01*
X100689810Y-124671782D01*
X100838635Y-124718992D01*
X100975455Y-124794209D01*
X101095059Y-124894569D01*
X101192892Y-125016249D01*
X101265228Y-125154615D01*
X101309311Y-125304395D01*
X101309316Y-125304452D01*
X101309320Y-125304465D01*
X101323464Y-125459882D01*
X101307151Y-125615089D01*
X101307147Y-125615100D01*
X101307141Y-125615162D01*
X101260972Y-125764312D01*
X101186711Y-125901654D01*
X101087188Y-126021957D01*
X100966194Y-126120637D01*
X100828337Y-126193937D01*
X100678868Y-126239064D01*
X100523481Y-126254300D01*
X100013192Y-126254300D01*
X100005199Y-126254244D01*
X100005192Y-126254243D01*
X100002149Y-126254222D01*
X99846990Y-126236818D01*
X99698165Y-126189608D01*
X99561345Y-126114391D01*
X99441741Y-126014031D01*
X99343908Y-125892351D01*
X99271572Y-125753985D01*
X99227489Y-125604205D01*
X99227484Y-125604148D01*
X99227480Y-125604135D01*
X99213336Y-125448718D01*
X99229649Y-125293511D01*
X99229653Y-125293500D01*
X99229659Y-125293438D01*
X99275828Y-125144288D01*
X99350089Y-125006946D01*
X99449612Y-124886643D01*
X99570606Y-124787963D01*
X99708463Y-124714663D01*
X99857932Y-124669536D01*
X100013319Y-124654300D01*
X100523608Y-124654300D01*
X100531601Y-124654356D01*
X100531601Y-124654356D01*
G37*
G36*
X119881941Y-123985067D02*
X119881948Y-123985068D01*
X119884990Y-123985089D01*
X120061871Y-124004929D01*
X120231531Y-124058749D01*
X120324753Y-124109998D01*
X120343272Y-124117000D01*
X120364311Y-124118669D01*
X120384981Y-124114411D01*
X120392486Y-124111091D01*
X120500208Y-124053814D01*
X120670602Y-124002369D01*
X120847744Y-123985000D01*
X121622384Y-123985000D01*
X121631941Y-123985067D01*
X121631948Y-123985068D01*
X121634990Y-123985089D01*
X121811871Y-124004929D01*
X121981531Y-124058749D01*
X122137506Y-124144496D01*
X122273855Y-124258907D01*
X122385385Y-124397622D01*
X122467848Y-124555359D01*
X122518102Y-124726108D01*
X122518106Y-124726157D01*
X122518112Y-124726176D01*
X122534237Y-124903363D01*
X122515640Y-125080310D01*
X122515635Y-125080326D01*
X122515629Y-125080383D01*
X122462995Y-125250414D01*
X122378338Y-125406984D01*
X122264882Y-125544129D01*
X122126949Y-125656624D01*
X121969792Y-125740186D01*
X121799398Y-125791631D01*
X121622256Y-125809000D01*
X120847616Y-125809000D01*
X120838059Y-125808933D01*
X120838052Y-125808932D01*
X120835010Y-125808911D01*
X120658129Y-125789071D01*
X120488469Y-125735251D01*
X120395247Y-125684002D01*
X120376728Y-125677000D01*
X120355689Y-125675331D01*
X120335019Y-125679589D01*
X120327514Y-125682909D01*
X120219792Y-125740186D01*
X120049398Y-125791631D01*
X119872256Y-125809000D01*
X119097616Y-125809000D01*
X119088059Y-125808933D01*
X119088052Y-125808932D01*
X119085010Y-125808911D01*
X118908129Y-125789071D01*
X118738469Y-125735251D01*
X118582494Y-125649504D01*
X118446145Y-125535093D01*
X118334615Y-125396378D01*
X118252152Y-125238641D01*
X118201898Y-125067892D01*
X118201894Y-125067843D01*
X118201888Y-125067824D01*
X118185763Y-124890637D01*
X118204360Y-124713690D01*
X118204365Y-124713674D01*
X118204371Y-124713617D01*
X118257005Y-124543586D01*
X118341662Y-124387016D01*
X118455118Y-124249871D01*
X118593051Y-124137376D01*
X118750208Y-124053814D01*
X118920602Y-124002369D01*
X119097744Y-123985000D01*
X119872384Y-123985000D01*
X119881941Y-123985067D01*
X119881941Y-123985067D01*
G37*
G36*
X102631941Y-122485067D02*
X102631948Y-122485068D01*
X102634990Y-122485089D01*
X102811871Y-122504929D01*
X102981531Y-122558749D01*
X103137506Y-122644496D01*
X103273855Y-122758907D01*
X103385385Y-122897622D01*
X103467848Y-123055359D01*
X103518102Y-123226108D01*
X103518106Y-123226157D01*
X103518112Y-123226176D01*
X103534237Y-123403363D01*
X103515640Y-123580310D01*
X103515635Y-123580326D01*
X103515629Y-123580383D01*
X103462995Y-123750414D01*
X103378338Y-123906984D01*
X103264882Y-124044129D01*
X103126949Y-124156624D01*
X102969792Y-124240186D01*
X102799398Y-124291631D01*
X102622256Y-124309000D01*
X101847616Y-124309000D01*
X101838059Y-124308933D01*
X101838052Y-124308932D01*
X101835010Y-124308911D01*
X101658129Y-124289071D01*
X101488469Y-124235251D01*
X101332494Y-124149504D01*
X101196145Y-124035093D01*
X101084615Y-123896378D01*
X101002152Y-123738641D01*
X100951898Y-123567892D01*
X100951894Y-123567843D01*
X100951888Y-123567824D01*
X100935763Y-123390637D01*
X100954360Y-123213690D01*
X100954365Y-123213674D01*
X100954371Y-123213617D01*
X101007005Y-123043586D01*
X101091662Y-122887016D01*
X101205118Y-122749871D01*
X101343051Y-122637376D01*
X101500208Y-122553814D01*
X101670602Y-122502369D01*
X101847744Y-122485000D01*
X102622384Y-122485000D01*
X102631941Y-122485067D01*
X102631941Y-122485067D01*
G37*
G36*
X119881941Y-121985067D02*
X119881948Y-121985068D01*
X119884990Y-121985089D01*
X120061871Y-122004929D01*
X120231531Y-122058749D01*
X120324753Y-122109998D01*
X120343272Y-122117000D01*
X120364311Y-122118669D01*
X120384981Y-122114411D01*
X120392486Y-122111091D01*
X120500208Y-122053814D01*
X120670602Y-122002369D01*
X120847744Y-121985000D01*
X121622384Y-121985000D01*
X121631941Y-121985067D01*
X121631948Y-121985068D01*
X121634990Y-121985089D01*
X121811871Y-122004929D01*
X121981531Y-122058749D01*
X122137506Y-122144496D01*
X122273855Y-122258907D01*
X122385385Y-122397622D01*
X122467848Y-122555359D01*
X122518102Y-122726108D01*
X122518106Y-122726157D01*
X122518112Y-122726176D01*
X122534237Y-122903363D01*
X122515640Y-123080310D01*
X122515635Y-123080326D01*
X122515629Y-123080383D01*
X122462995Y-123250414D01*
X122378338Y-123406984D01*
X122264882Y-123544129D01*
X122126949Y-123656624D01*
X121969792Y-123740186D01*
X121799398Y-123791631D01*
X121622256Y-123809000D01*
X120847616Y-123809000D01*
X120838059Y-123808933D01*
X120838052Y-123808932D01*
X120835010Y-123808911D01*
X120658129Y-123789071D01*
X120488469Y-123735251D01*
X120395247Y-123684002D01*
X120376728Y-123677000D01*
X120355689Y-123675331D01*
X120335019Y-123679589D01*
X120327514Y-123682909D01*
X120219792Y-123740186D01*
X120049398Y-123791631D01*
X119872256Y-123809000D01*
X119097616Y-123809000D01*
X119088059Y-123808933D01*
X119088052Y-123808932D01*
X119085010Y-123808911D01*
X118908129Y-123789071D01*
X118738469Y-123735251D01*
X118582494Y-123649504D01*
X118446145Y-123535093D01*
X118334615Y-123396378D01*
X118252152Y-123238641D01*
X118201898Y-123067892D01*
X118201894Y-123067843D01*
X118201888Y-123067824D01*
X118185763Y-122890637D01*
X118204360Y-122713690D01*
X118204365Y-122713674D01*
X118204371Y-122713617D01*
X118257005Y-122543586D01*
X118341662Y-122387016D01*
X118455118Y-122249871D01*
X118593051Y-122137376D01*
X118750208Y-122053814D01*
X118920602Y-122002369D01*
X119097744Y-121985000D01*
X119872384Y-121985000D01*
X119881941Y-121985067D01*
X119881941Y-121985067D01*
G37*
G36*
X102631941Y-119985067D02*
X102631948Y-119985068D01*
X102634990Y-119985089D01*
X102811871Y-120004929D01*
X102981531Y-120058749D01*
X103137506Y-120144496D01*
X103273855Y-120258907D01*
X103385385Y-120397622D01*
X103467848Y-120555359D01*
X103518102Y-120726108D01*
X103518106Y-120726157D01*
X103518112Y-120726176D01*
X103534237Y-120903363D01*
X103515640Y-121080310D01*
X103515635Y-121080326D01*
X103515629Y-121080383D01*
X103462995Y-121250414D01*
X103378338Y-121406984D01*
X103264882Y-121544129D01*
X103126949Y-121656624D01*
X102969792Y-121740186D01*
X102799398Y-121791631D01*
X102622256Y-121809000D01*
X101847616Y-121809000D01*
X101838059Y-121808933D01*
X101838052Y-121808932D01*
X101835010Y-121808911D01*
X101658129Y-121789071D01*
X101488469Y-121735251D01*
X101332494Y-121649504D01*
X101196145Y-121535093D01*
X101084615Y-121396378D01*
X101084294Y-121395764D01*
X101072136Y-121378836D01*
X101055536Y-121365803D01*
X101035963Y-121357911D01*
X101014966Y-121355784D01*
X100994208Y-121359590D01*
X100975332Y-121369030D01*
X100959833Y-121383354D01*
X100948939Y-121401429D01*
X100943103Y-121429132D01*
X100941144Y-121569425D01*
X100941029Y-121569930D01*
X100941029Y-121569943D01*
X100886837Y-121808471D01*
X100787130Y-122032417D01*
X100645825Y-122232730D01*
X100468304Y-122401780D01*
X100261322Y-122533135D01*
X100032781Y-122621780D01*
X99791363Y-122664349D01*
X99546274Y-122659215D01*
X99306859Y-122606576D01*
X99082225Y-122508436D01*
X98880925Y-122368529D01*
X98710641Y-122192194D01*
X98577847Y-121986139D01*
X98487607Y-121758217D01*
X98443354Y-121517105D01*
X98446776Y-121271987D01*
X98497743Y-121032208D01*
X98594313Y-120806896D01*
X98732812Y-120604623D01*
X98907954Y-120433111D01*
X99113073Y-120298885D01*
X99340364Y-120207053D01*
X99581164Y-120161118D01*
X99826293Y-120162830D01*
X100066422Y-120212121D01*
X100292410Y-120307117D01*
X100495635Y-120444194D01*
X100668373Y-120618141D01*
X100808097Y-120828444D01*
X100808460Y-120828203D01*
X100812487Y-120835039D01*
X100827841Y-120849519D01*
X100846620Y-120859148D01*
X100867339Y-120863164D01*
X100888356Y-120861249D01*
X100908008Y-120853555D01*
X100924738Y-120840690D01*
X100937222Y-120823674D01*
X100945699Y-120796098D01*
X100954360Y-120713691D01*
X100954365Y-120713675D01*
X100954371Y-120713617D01*
X101007005Y-120543586D01*
X101091662Y-120387016D01*
X101205118Y-120249871D01*
X101343051Y-120137376D01*
X101500208Y-120053814D01*
X101670602Y-120002369D01*
X101847744Y-119985000D01*
X102622384Y-119985000D01*
X102631941Y-119985067D01*
X102631941Y-119985067D01*
G37*
G36*
X119881941Y-119985067D02*
X119881948Y-119985068D01*
X119884990Y-119985089D01*
X120061871Y-120004929D01*
X120231531Y-120058749D01*
X120324753Y-120109998D01*
X120343272Y-120117000D01*
X120364311Y-120118669D01*
X120384981Y-120114411D01*
X120392486Y-120111091D01*
X120500208Y-120053814D01*
X120670602Y-120002369D01*
X120847744Y-119985000D01*
X121622384Y-119985000D01*
X121631941Y-119985067D01*
X121631948Y-119985068D01*
X121634990Y-119985089D01*
X121811871Y-120004929D01*
X121981531Y-120058749D01*
X122137506Y-120144496D01*
X122273855Y-120258907D01*
X122385385Y-120397622D01*
X122467848Y-120555359D01*
X122518102Y-120726108D01*
X122518106Y-120726157D01*
X122518112Y-120726176D01*
X122534237Y-120903363D01*
X122515640Y-121080310D01*
X122515635Y-121080326D01*
X122515629Y-121080383D01*
X122462995Y-121250414D01*
X122378338Y-121406984D01*
X122264882Y-121544129D01*
X122126949Y-121656624D01*
X121969792Y-121740186D01*
X121799398Y-121791631D01*
X121622256Y-121809000D01*
X120847616Y-121809000D01*
X120838059Y-121808933D01*
X120838052Y-121808932D01*
X120835010Y-121808911D01*
X120658129Y-121789071D01*
X120488469Y-121735251D01*
X120395247Y-121684002D01*
X120376728Y-121677000D01*
X120355689Y-121675331D01*
X120335019Y-121679589D01*
X120327514Y-121682909D01*
X120219792Y-121740186D01*
X120049398Y-121791631D01*
X119872256Y-121809000D01*
X119097616Y-121809000D01*
X119088059Y-121808933D01*
X119088052Y-121808932D01*
X119085010Y-121808911D01*
X118908129Y-121789071D01*
X118738469Y-121735251D01*
X118582494Y-121649504D01*
X118446145Y-121535093D01*
X118334615Y-121396378D01*
X118252152Y-121238641D01*
X118201898Y-121067892D01*
X118201894Y-121067843D01*
X118201888Y-121067824D01*
X118185763Y-120890637D01*
X118204360Y-120713690D01*
X118204365Y-120713674D01*
X118204371Y-120713617D01*
X118257005Y-120543586D01*
X118341662Y-120387016D01*
X118455118Y-120249871D01*
X118593051Y-120137376D01*
X118750208Y-120053814D01*
X118920602Y-120002369D01*
X119097744Y-119985000D01*
X119872384Y-119985000D01*
X119881941Y-119985067D01*
X119881941Y-119985067D01*
G37*
G36*
X119881941Y-117985067D02*
X119881948Y-117985068D01*
X119884990Y-117985089D01*
X120061871Y-118004929D01*
X120231531Y-118058749D01*
X120324753Y-118109998D01*
X120343272Y-118117000D01*
X120364311Y-118118669D01*
X120384981Y-118114411D01*
X120392486Y-118111091D01*
X120500208Y-118053814D01*
X120670602Y-118002369D01*
X120847744Y-117985000D01*
X121622384Y-117985000D01*
X121631941Y-117985067D01*
X121631948Y-117985068D01*
X121634990Y-117985089D01*
X121811871Y-118004929D01*
X121981531Y-118058749D01*
X122137506Y-118144496D01*
X122273855Y-118258907D01*
X122385385Y-118397622D01*
X122467848Y-118555359D01*
X122518102Y-118726108D01*
X122518106Y-118726157D01*
X122518112Y-118726176D01*
X122534237Y-118903363D01*
X122515640Y-119080310D01*
X122515635Y-119080326D01*
X122515629Y-119080383D01*
X122462995Y-119250414D01*
X122378338Y-119406984D01*
X122264882Y-119544129D01*
X122126949Y-119656624D01*
X121969792Y-119740186D01*
X121799398Y-119791631D01*
X121622256Y-119809000D01*
X120847616Y-119809000D01*
X120838059Y-119808933D01*
X120838052Y-119808932D01*
X120835010Y-119808911D01*
X120658129Y-119789071D01*
X120488469Y-119735251D01*
X120395247Y-119684002D01*
X120376728Y-119677000D01*
X120355689Y-119675331D01*
X120335019Y-119679589D01*
X120327514Y-119682909D01*
X120219792Y-119740186D01*
X120049398Y-119791631D01*
X119872256Y-119809000D01*
X119097616Y-119809000D01*
X119088059Y-119808933D01*
X119088052Y-119808932D01*
X119085010Y-119808911D01*
X118908129Y-119789071D01*
X118738469Y-119735251D01*
X118582494Y-119649504D01*
X118446145Y-119535093D01*
X118334615Y-119396378D01*
X118252152Y-119238641D01*
X118201898Y-119067892D01*
X118201894Y-119067843D01*
X118201888Y-119067824D01*
X118185763Y-118890637D01*
X118204360Y-118713690D01*
X118204365Y-118713674D01*
X118204371Y-118713617D01*
X118257005Y-118543586D01*
X118341662Y-118387016D01*
X118455118Y-118249871D01*
X118593051Y-118137376D01*
X118750208Y-118053814D01*
X118920602Y-118002369D01*
X119097744Y-117985000D01*
X119872384Y-117985000D01*
X119881941Y-117985067D01*
X119881941Y-117985067D01*
G37*
G36*
X99964750Y-117364075D02*
X99964758Y-117364076D01*
X99967801Y-117364097D01*
X100161751Y-117385852D01*
X100347781Y-117444865D01*
X100518806Y-117538887D01*
X100668312Y-117664337D01*
X100790603Y-117816437D01*
X100881023Y-117989393D01*
X100884419Y-118000932D01*
X100893137Y-118020071D01*
X100906890Y-118036079D01*
X100924558Y-118047622D01*
X100944742Y-118053786D01*
X100965845Y-118054083D01*
X100986194Y-118048489D01*
X101004179Y-118037447D01*
X101022181Y-118015518D01*
X101091662Y-117887016D01*
X101205118Y-117749871D01*
X101343051Y-117637376D01*
X101500208Y-117553814D01*
X101670602Y-117502369D01*
X101847744Y-117485000D01*
X102622384Y-117485000D01*
X102631941Y-117485067D01*
X102631948Y-117485068D01*
X102634990Y-117485089D01*
X102811871Y-117504929D01*
X102981531Y-117558749D01*
X103137506Y-117644496D01*
X103273855Y-117758907D01*
X103385385Y-117897622D01*
X103467848Y-118055359D01*
X103518102Y-118226108D01*
X103518106Y-118226157D01*
X103518112Y-118226176D01*
X103534237Y-118403363D01*
X103515640Y-118580310D01*
X103515635Y-118580326D01*
X103515629Y-118580383D01*
X103462995Y-118750414D01*
X103378338Y-118906984D01*
X103264882Y-119044129D01*
X103126949Y-119156624D01*
X102969792Y-119240186D01*
X102799398Y-119291631D01*
X102622256Y-119309000D01*
X101847616Y-119309000D01*
X101838059Y-119308933D01*
X101838052Y-119308932D01*
X101835010Y-119308911D01*
X101658129Y-119289071D01*
X101488469Y-119235251D01*
X101332494Y-119149504D01*
X101196145Y-119035093D01*
X101084615Y-118896378D01*
X101008610Y-118750994D01*
X100996452Y-118734066D01*
X100979852Y-118721033D01*
X100960279Y-118713141D01*
X100939282Y-118711015D01*
X100918524Y-118714822D01*
X100899648Y-118724261D01*
X100884149Y-118738586D01*
X100876324Y-118750282D01*
X100875763Y-118751320D01*
X100875702Y-118751516D01*
X100782877Y-118923193D01*
X100658473Y-119073571D01*
X100507231Y-119196921D01*
X100334909Y-119288546D01*
X100148073Y-119344955D01*
X99953839Y-119364000D01*
X99944038Y-119364000D01*
X99933250Y-119363925D01*
X99933242Y-119363924D01*
X99930199Y-119363903D01*
X99736249Y-119342148D01*
X99550219Y-119283135D01*
X99379194Y-119189113D01*
X99229688Y-119063663D01*
X99107397Y-118911563D01*
X99016977Y-118738607D01*
X98961874Y-118551381D01*
X98961869Y-118551326D01*
X98961864Y-118551309D01*
X98944183Y-118357023D01*
X98964576Y-118162995D01*
X98964580Y-118162984D01*
X98964586Y-118162922D01*
X99022298Y-117976484D01*
X99115123Y-117804807D01*
X99239527Y-117654429D01*
X99390769Y-117531079D01*
X99563091Y-117439454D01*
X99749927Y-117383045D01*
X99944161Y-117364000D01*
X99953962Y-117364000D01*
X99964750Y-117364075D01*
X99964750Y-117364075D01*
G37*
G36*
X119881941Y-115985067D02*
X119881948Y-115985068D01*
X119884990Y-115985089D01*
X120061871Y-116004929D01*
X120231531Y-116058749D01*
X120324753Y-116109998D01*
X120343272Y-116117000D01*
X120364311Y-116118669D01*
X120384981Y-116114411D01*
X120392486Y-116111091D01*
X120500208Y-116053814D01*
X120670602Y-116002369D01*
X120847744Y-115985000D01*
X121622384Y-115985000D01*
X121631941Y-115985067D01*
X121631948Y-115985068D01*
X121634990Y-115985089D01*
X121811871Y-116004929D01*
X121981531Y-116058749D01*
X122137506Y-116144496D01*
X122273855Y-116258907D01*
X122385385Y-116397622D01*
X122467848Y-116555359D01*
X122518102Y-116726108D01*
X122518106Y-116726157D01*
X122518112Y-116726176D01*
X122534237Y-116903363D01*
X122515640Y-117080310D01*
X122515635Y-117080326D01*
X122515629Y-117080383D01*
X122462995Y-117250414D01*
X122378338Y-117406984D01*
X122264882Y-117544129D01*
X122126949Y-117656624D01*
X121969792Y-117740186D01*
X121799398Y-117791631D01*
X121622256Y-117809000D01*
X120847616Y-117809000D01*
X120838059Y-117808933D01*
X120838052Y-117808932D01*
X120835010Y-117808911D01*
X120658129Y-117789071D01*
X120488469Y-117735251D01*
X120395247Y-117684002D01*
X120376728Y-117677000D01*
X120355689Y-117675331D01*
X120335019Y-117679589D01*
X120327514Y-117682909D01*
X120219792Y-117740186D01*
X120049398Y-117791631D01*
X119872256Y-117809000D01*
X119097616Y-117809000D01*
X119088059Y-117808933D01*
X119088052Y-117808932D01*
X119085010Y-117808911D01*
X118908129Y-117789071D01*
X118738469Y-117735251D01*
X118582494Y-117649504D01*
X118446145Y-117535093D01*
X118334615Y-117396378D01*
X118252152Y-117238641D01*
X118201898Y-117067892D01*
X118201894Y-117067843D01*
X118201888Y-117067824D01*
X118185763Y-116890637D01*
X118204360Y-116713690D01*
X118204365Y-116713674D01*
X118204371Y-116713617D01*
X118257005Y-116543586D01*
X118341662Y-116387016D01*
X118455118Y-116249871D01*
X118593051Y-116137376D01*
X118750208Y-116053814D01*
X118920602Y-116002369D01*
X119097744Y-115985000D01*
X119872384Y-115985000D01*
X119881941Y-115985067D01*
X119881941Y-115985067D01*
G37*
G36*
X99964750Y-114824075D02*
X99964758Y-114824076D01*
X99967801Y-114824097D01*
X100161751Y-114845852D01*
X100347781Y-114904865D01*
X100518806Y-114998887D01*
X100668312Y-115124337D01*
X100790603Y-115276437D01*
X100881023Y-115449393D01*
X100936126Y-115636619D01*
X100936131Y-115636674D01*
X100936136Y-115636691D01*
X100953817Y-115830977D01*
X100933424Y-116025005D01*
X100933420Y-116025016D01*
X100933414Y-116025078D01*
X100875702Y-116211516D01*
X100782877Y-116383193D01*
X100658473Y-116533571D01*
X100507231Y-116656921D01*
X100334909Y-116748546D01*
X100148073Y-116804955D01*
X99953839Y-116824000D01*
X99944038Y-116824000D01*
X99933250Y-116823925D01*
X99933242Y-116823924D01*
X99930199Y-116823903D01*
X99736249Y-116802148D01*
X99550219Y-116743135D01*
X99379194Y-116649113D01*
X99229688Y-116523663D01*
X99107397Y-116371563D01*
X99016977Y-116198607D01*
X98961874Y-116011381D01*
X98961869Y-116011326D01*
X98961864Y-116011309D01*
X98944183Y-115817023D01*
X98964576Y-115622995D01*
X98964580Y-115622984D01*
X98964586Y-115622922D01*
X99022298Y-115436484D01*
X99115123Y-115264807D01*
X99239527Y-115114429D01*
X99390769Y-114991079D01*
X99563091Y-114899454D01*
X99749927Y-114843045D01*
X99944161Y-114824000D01*
X99953962Y-114824000D01*
X99964750Y-114824075D01*
X99964750Y-114824075D01*
G37*
G36*
X111875000Y-115950000D02*
X108725000Y-115950000D01*
X108725000Y-114650000D01*
X111875000Y-114650000D01*
X111875000Y-115950000D01*
X111875000Y-115950000D01*
G37*
G36*
X119881941Y-113985067D02*
X119881948Y-113985068D01*
X119884990Y-113985089D01*
X120061871Y-114004929D01*
X120231531Y-114058749D01*
X120324753Y-114109998D01*
X120343272Y-114117000D01*
X120364311Y-114118669D01*
X120384981Y-114114411D01*
X120392486Y-114111091D01*
X120500208Y-114053814D01*
X120670602Y-114002369D01*
X120847744Y-113985000D01*
X121622384Y-113985000D01*
X121631941Y-113985067D01*
X121631948Y-113985068D01*
X121634990Y-113985089D01*
X121811871Y-114004929D01*
X121981531Y-114058749D01*
X122137506Y-114144496D01*
X122273855Y-114258907D01*
X122385385Y-114397622D01*
X122467848Y-114555359D01*
X122518102Y-114726108D01*
X122518106Y-114726157D01*
X122518112Y-114726176D01*
X122534237Y-114903363D01*
X122515640Y-115080310D01*
X122515635Y-115080326D01*
X122515629Y-115080383D01*
X122462995Y-115250414D01*
X122378338Y-115406984D01*
X122264882Y-115544129D01*
X122126949Y-115656624D01*
X121969792Y-115740186D01*
X121799398Y-115791631D01*
X121622256Y-115809000D01*
X120847616Y-115809000D01*
X120838059Y-115808933D01*
X120838052Y-115808932D01*
X120835010Y-115808911D01*
X120658129Y-115789071D01*
X120488469Y-115735251D01*
X120395247Y-115684002D01*
X120376728Y-115677000D01*
X120355689Y-115675331D01*
X120335019Y-115679589D01*
X120327514Y-115682909D01*
X120219792Y-115740186D01*
X120049398Y-115791631D01*
X119872256Y-115809000D01*
X119097616Y-115809000D01*
X119088059Y-115808933D01*
X119088052Y-115808932D01*
X119085010Y-115808911D01*
X118908129Y-115789071D01*
X118738469Y-115735251D01*
X118582494Y-115649504D01*
X118446145Y-115535093D01*
X118334615Y-115396378D01*
X118252152Y-115238641D01*
X118201898Y-115067892D01*
X118201894Y-115067843D01*
X118201888Y-115067824D01*
X118185763Y-114890637D01*
X118204360Y-114713690D01*
X118204365Y-114713674D01*
X118204371Y-114713617D01*
X118257005Y-114543586D01*
X118341662Y-114387016D01*
X118455118Y-114249871D01*
X118593051Y-114137376D01*
X118750208Y-114053814D01*
X118920602Y-114002369D01*
X119097744Y-113985000D01*
X119872384Y-113985000D01*
X119881941Y-113985067D01*
X119881941Y-113985067D01*
G37*
G36*
X99964750Y-112284075D02*
X99964758Y-112284076D01*
X99967801Y-112284097D01*
X100161751Y-112305852D01*
X100347781Y-112364865D01*
X100518806Y-112458887D01*
X100668312Y-112584337D01*
X100790603Y-112736437D01*
X100881023Y-112909393D01*
X100936126Y-113096619D01*
X100936131Y-113096674D01*
X100936136Y-113096691D01*
X100953817Y-113290977D01*
X100933424Y-113485005D01*
X100933420Y-113485016D01*
X100933414Y-113485078D01*
X100875702Y-113671516D01*
X100782877Y-113843193D01*
X100658473Y-113993571D01*
X100507231Y-114116921D01*
X100334909Y-114208546D01*
X100148073Y-114264955D01*
X99953839Y-114284000D01*
X99944038Y-114284000D01*
X99933250Y-114283925D01*
X99933242Y-114283924D01*
X99930199Y-114283903D01*
X99736249Y-114262148D01*
X99550219Y-114203135D01*
X99379194Y-114109113D01*
X99229688Y-113983663D01*
X99107397Y-113831563D01*
X99016977Y-113658607D01*
X98961874Y-113471381D01*
X98961869Y-113471326D01*
X98961864Y-113471309D01*
X98944183Y-113277023D01*
X98964576Y-113082995D01*
X98964580Y-113082984D01*
X98964586Y-113082922D01*
X99022298Y-112896484D01*
X99115123Y-112724807D01*
X99239527Y-112574429D01*
X99390769Y-112451079D01*
X99563091Y-112359454D01*
X99749927Y-112303045D01*
X99944161Y-112284000D01*
X99953962Y-112284000D01*
X99964750Y-112284075D01*
X99964750Y-112284075D01*
G37*
G36*
X111875000Y-113950000D02*
X108725000Y-113950000D01*
X108725000Y-112650000D01*
X111875000Y-112650000D01*
X111875000Y-113950000D01*
X111875000Y-113950000D01*
G37*
G36*
X119881941Y-111985067D02*
X119881948Y-111985068D01*
X119884990Y-111985089D01*
X120061871Y-112004929D01*
X120231531Y-112058749D01*
X120324753Y-112109998D01*
X120343272Y-112117000D01*
X120364311Y-112118669D01*
X120384981Y-112114411D01*
X120392486Y-112111091D01*
X120500208Y-112053814D01*
X120670602Y-112002369D01*
X120847744Y-111985000D01*
X121622384Y-111985000D01*
X121631941Y-111985067D01*
X121631948Y-111985068D01*
X121634990Y-111985089D01*
X121811871Y-112004929D01*
X121981531Y-112058749D01*
X122137506Y-112144496D01*
X122273855Y-112258907D01*
X122385385Y-112397622D01*
X122467848Y-112555359D01*
X122518102Y-112726108D01*
X122518106Y-112726157D01*
X122518112Y-112726176D01*
X122534237Y-112903363D01*
X122515640Y-113080310D01*
X122515635Y-113080326D01*
X122515629Y-113080383D01*
X122462995Y-113250414D01*
X122378338Y-113406984D01*
X122264882Y-113544129D01*
X122126949Y-113656624D01*
X121969792Y-113740186D01*
X121799398Y-113791631D01*
X121622256Y-113809000D01*
X120847616Y-113809000D01*
X120838059Y-113808933D01*
X120838052Y-113808932D01*
X120835010Y-113808911D01*
X120658129Y-113789071D01*
X120488469Y-113735251D01*
X120395247Y-113684002D01*
X120376728Y-113677000D01*
X120355689Y-113675331D01*
X120335019Y-113679589D01*
X120327514Y-113682909D01*
X120219792Y-113740186D01*
X120049398Y-113791631D01*
X119872256Y-113809000D01*
X119097616Y-113809000D01*
X119088059Y-113808933D01*
X119088052Y-113808932D01*
X119085010Y-113808911D01*
X118908129Y-113789071D01*
X118738469Y-113735251D01*
X118582494Y-113649504D01*
X118446145Y-113535093D01*
X118334615Y-113396378D01*
X118252152Y-113238641D01*
X118201898Y-113067892D01*
X118201894Y-113067843D01*
X118201888Y-113067824D01*
X118185763Y-112890637D01*
X118204360Y-112713690D01*
X118204365Y-112713674D01*
X118204371Y-112713617D01*
X118257005Y-112543586D01*
X118341662Y-112387016D01*
X118455118Y-112249871D01*
X118593051Y-112137376D01*
X118750208Y-112053814D01*
X118920602Y-112002369D01*
X119097744Y-111985000D01*
X119872384Y-111985000D01*
X119881941Y-111985067D01*
X119881941Y-111985067D01*
G37*
G36*
X100949000Y-111744000D02*
X98949000Y-111744000D01*
X98949000Y-109744000D01*
X100949000Y-109744000D01*
X100949000Y-111744000D01*
X100949000Y-111744000D01*
G37*
G36*
X132949565Y-107601263D02*
X133314562Y-107676186D01*
X133658062Y-107820579D01*
X133966966Y-108028937D01*
X134229524Y-108293334D01*
X134435720Y-108603685D01*
X134577710Y-108948179D01*
X134649982Y-109313177D01*
X134649982Y-109313194D01*
X134650081Y-109313695D01*
X134644138Y-109739285D01*
X134644024Y-109739786D01*
X134644024Y-109739804D01*
X134561591Y-110102635D01*
X134410036Y-110443032D01*
X134195252Y-110747509D01*
X133925421Y-111004465D01*
X133610811Y-111204123D01*
X133263424Y-111338865D01*
X132896471Y-111403569D01*
X132523939Y-111395766D01*
X132160026Y-111315754D01*
X131818582Y-111166581D01*
X131512612Y-110953926D01*
X131253776Y-110685894D01*
X131051927Y-110372686D01*
X130914763Y-110026249D01*
X130847500Y-109659758D01*
X130852702Y-109287182D01*
X130930172Y-108922717D01*
X131076959Y-108580237D01*
X131287471Y-108272792D01*
X131553692Y-108012090D01*
X131865475Y-107808064D01*
X132210953Y-107668483D01*
X132576969Y-107598661D01*
X132949565Y-107601263D01*
X132949565Y-107601263D01*
G37*
G36*
X145699565Y-107601263D02*
X146064562Y-107676186D01*
X146408062Y-107820579D01*
X146716966Y-108028937D01*
X146979524Y-108293334D01*
X147185720Y-108603685D01*
X147327710Y-108948179D01*
X147399982Y-109313177D01*
X147399982Y-109313194D01*
X147400081Y-109313695D01*
X147394138Y-109739285D01*
X147394024Y-109739786D01*
X147394024Y-109739804D01*
X147311591Y-110102635D01*
X147160036Y-110443032D01*
X146945252Y-110747509D01*
X146675421Y-111004465D01*
X146360811Y-111204123D01*
X146013424Y-111338865D01*
X145646471Y-111403569D01*
X145273939Y-111395766D01*
X144910026Y-111315754D01*
X144568582Y-111166581D01*
X144262612Y-110953926D01*
X144003776Y-110685894D01*
X143801927Y-110372686D01*
X143664763Y-110026249D01*
X143597500Y-109659758D01*
X143602702Y-109287182D01*
X143680172Y-108922717D01*
X143826959Y-108580237D01*
X144037471Y-108272792D01*
X144303692Y-108012090D01*
X144615475Y-107808064D01*
X144960953Y-107668483D01*
X145326969Y-107598661D01*
X145699565Y-107601263D01*
X145699565Y-107601263D01*
G37*
G36*
X115366000Y-111118000D02*
X108916000Y-111118000D01*
X108916000Y-109218000D01*
X115366000Y-109218000D01*
X115366000Y-111118000D01*
X115366000Y-111118000D01*
G37*
G36*
X108841000Y-109143000D02*
X106941000Y-109143000D01*
X106941000Y-102693000D01*
X108841000Y-102693000D01*
X108841000Y-109143000D01*
X108841000Y-109143000D01*
G37*
G36*
X117341000Y-109143000D02*
X115441000Y-109143000D01*
X115441000Y-102693000D01*
X117341000Y-102693000D01*
X117341000Y-109143000D01*
X117341000Y-109143000D01*
G37*
G36*
X120815000Y-108511000D02*
X119215000Y-108511000D01*
X119215000Y-107511000D01*
X120815000Y-107511000D01*
X120815000Y-108511000D01*
X120815000Y-108511000D01*
G37*
G36*
X99964750Y-105299075D02*
X99964758Y-105299076D01*
X99967801Y-105299097D01*
X100161751Y-105320852D01*
X100347781Y-105379865D01*
X100518806Y-105473887D01*
X100668312Y-105599337D01*
X100790603Y-105751437D01*
X100881023Y-105924393D01*
X100936126Y-106111619D01*
X100936131Y-106111674D01*
X100936136Y-106111691D01*
X100953817Y-106305977D01*
X100933424Y-106500005D01*
X100933420Y-106500016D01*
X100933414Y-106500078D01*
X100875702Y-106686516D01*
X100782877Y-106858193D01*
X100658473Y-107008571D01*
X100507231Y-107131921D01*
X100334909Y-107223546D01*
X100148073Y-107279955D01*
X99953839Y-107299000D01*
X99944038Y-107299000D01*
X99933250Y-107298925D01*
X99933242Y-107298924D01*
X99930199Y-107298903D01*
X99736249Y-107277148D01*
X99550219Y-107218135D01*
X99379194Y-107124113D01*
X99229688Y-106998663D01*
X99107397Y-106846563D01*
X99016977Y-106673607D01*
X98961874Y-106486381D01*
X98961869Y-106486326D01*
X98961864Y-106486309D01*
X98944183Y-106292023D01*
X98964576Y-106097995D01*
X98964580Y-106097984D01*
X98964586Y-106097922D01*
X99022298Y-105911484D01*
X99115123Y-105739807D01*
X99239527Y-105589429D01*
X99390769Y-105466079D01*
X99563091Y-105374454D01*
X99749927Y-105318045D01*
X99944161Y-105299000D01*
X99953962Y-105299000D01*
X99964750Y-105299075D01*
X99964750Y-105299075D01*
G37*
G36*
X120815000Y-106611000D02*
X119215000Y-106611000D01*
X119215000Y-105611000D01*
X120815000Y-105611000D01*
X120815000Y-106611000D01*
X120815000Y-106611000D01*
G37*
G36*
X99964750Y-102759075D02*
X99964758Y-102759076D01*
X99967801Y-102759097D01*
X100161751Y-102780852D01*
X100347781Y-102839865D01*
X100518806Y-102933887D01*
X100668312Y-103059337D01*
X100790603Y-103211437D01*
X100881023Y-103384393D01*
X100936126Y-103571619D01*
X100936131Y-103571674D01*
X100936136Y-103571691D01*
X100953817Y-103765977D01*
X100933424Y-103960005D01*
X100933420Y-103960016D01*
X100933414Y-103960078D01*
X100875702Y-104146516D01*
X100782877Y-104318193D01*
X100658473Y-104468571D01*
X100507231Y-104591921D01*
X100334909Y-104683546D01*
X100148073Y-104739955D01*
X99953839Y-104759000D01*
X99944038Y-104759000D01*
X99933250Y-104758925D01*
X99933242Y-104758924D01*
X99930199Y-104758903D01*
X99736249Y-104737148D01*
X99550219Y-104678135D01*
X99379194Y-104584113D01*
X99229688Y-104458663D01*
X99107397Y-104306563D01*
X99016977Y-104133607D01*
X98961874Y-103946381D01*
X98961869Y-103946326D01*
X98961864Y-103946309D01*
X98944183Y-103752023D01*
X98964576Y-103557995D01*
X98964580Y-103557984D01*
X98964586Y-103557922D01*
X99022298Y-103371484D01*
X99115123Y-103199807D01*
X99239527Y-103049429D01*
X99390769Y-102926079D01*
X99563091Y-102834454D01*
X99749927Y-102778045D01*
X99944161Y-102759000D01*
X99953962Y-102759000D01*
X99964750Y-102759075D01*
X99964750Y-102759075D01*
G37*
G36*
X120815000Y-103939000D02*
X119215000Y-103939000D01*
X119215000Y-102939000D01*
X120815000Y-102939000D01*
X120815000Y-103939000D01*
X120815000Y-103939000D01*
G37*
G36*
X115366000Y-102618000D02*
X108916000Y-102618000D01*
X108916000Y-100718000D01*
X115366000Y-100718000D01*
X115366000Y-102618000D01*
X115366000Y-102618000D01*
G37*
G36*
X103543000Y-102288000D02*
X101943000Y-102288000D01*
X101943000Y-101288000D01*
X103543000Y-101288000D01*
X103543000Y-102288000D01*
X103543000Y-102288000D01*
G37*
G36*
X99964750Y-100219075D02*
X99964758Y-100219076D01*
X99967801Y-100219097D01*
X100161751Y-100240852D01*
X100347781Y-100299865D01*
X100518806Y-100393887D01*
X100668312Y-100519337D01*
X100790603Y-100671437D01*
X100881023Y-100844393D01*
X100936126Y-101031619D01*
X100936131Y-101031674D01*
X100936136Y-101031691D01*
X100953817Y-101225977D01*
X100933424Y-101420005D01*
X100933420Y-101420016D01*
X100933414Y-101420078D01*
X100875702Y-101606516D01*
X100782877Y-101778193D01*
X100658473Y-101928571D01*
X100507231Y-102051921D01*
X100334909Y-102143546D01*
X100148073Y-102199955D01*
X99953839Y-102219000D01*
X99944038Y-102219000D01*
X99933250Y-102218925D01*
X99933242Y-102218924D01*
X99930199Y-102218903D01*
X99736249Y-102197148D01*
X99550219Y-102138135D01*
X99379194Y-102044113D01*
X99229688Y-101918663D01*
X99107397Y-101766563D01*
X99016977Y-101593607D01*
X98961874Y-101406381D01*
X98961869Y-101406326D01*
X98961864Y-101406309D01*
X98944183Y-101212023D01*
X98964576Y-101017995D01*
X98964580Y-101017984D01*
X98964586Y-101017922D01*
X99022298Y-100831484D01*
X99115123Y-100659807D01*
X99239527Y-100509429D01*
X99390769Y-100386079D01*
X99563091Y-100294454D01*
X99749927Y-100238045D01*
X99944161Y-100219000D01*
X99953962Y-100219000D01*
X99964750Y-100219075D01*
X99964750Y-100219075D01*
G37*
G36*
X120815000Y-102039000D02*
X119215000Y-102039000D01*
X119215000Y-101039000D01*
X120815000Y-101039000D01*
X120815000Y-102039000D01*
X120815000Y-102039000D01*
G37*
G36*
X103543000Y-100388000D02*
X101943000Y-100388000D01*
X101943000Y-99388000D01*
X103543000Y-99388000D01*
X103543000Y-100388000D01*
X103543000Y-100388000D01*
G37*
G36*
X110750000Y-100350000D02*
X109450000Y-100350000D01*
X109450000Y-98250000D01*
X110750000Y-98250000D01*
X110750000Y-100350000D01*
X110750000Y-100350000D01*
G37*
G36*
X108250000Y-100350000D02*
X106950000Y-100350000D01*
X106950000Y-98250000D01*
X108250000Y-98250000D01*
X108250000Y-100350000D01*
X108250000Y-100350000D01*
G37*
G36*
X99964750Y-97679075D02*
X99964758Y-97679076D01*
X99967801Y-97679097D01*
X100161751Y-97700852D01*
X100347781Y-97759865D01*
X100518806Y-97853887D01*
X100668312Y-97979337D01*
X100790603Y-98131437D01*
X100881023Y-98304393D01*
X100936126Y-98491619D01*
X100936131Y-98491674D01*
X100936136Y-98491691D01*
X100953817Y-98685977D01*
X100933424Y-98880005D01*
X100933420Y-98880016D01*
X100933414Y-98880078D01*
X100875702Y-99066516D01*
X100782877Y-99238193D01*
X100658473Y-99388571D01*
X100507231Y-99511921D01*
X100334909Y-99603546D01*
X100148073Y-99659955D01*
X99953839Y-99679000D01*
X99944038Y-99679000D01*
X99933250Y-99678925D01*
X99933242Y-99678924D01*
X99930199Y-99678903D01*
X99736249Y-99657148D01*
X99550219Y-99598135D01*
X99379194Y-99504113D01*
X99229688Y-99378663D01*
X99107397Y-99226563D01*
X99016977Y-99053607D01*
X98961874Y-98866381D01*
X98961869Y-98866326D01*
X98961864Y-98866309D01*
X98944183Y-98672023D01*
X98964576Y-98477995D01*
X98964580Y-98477984D01*
X98964586Y-98477922D01*
X99022298Y-98291484D01*
X99115123Y-98119807D01*
X99239527Y-97969429D01*
X99390769Y-97846079D01*
X99563091Y-97754454D01*
X99749927Y-97698045D01*
X99944161Y-97679000D01*
X99953962Y-97679000D01*
X99964750Y-97679075D01*
X99964750Y-97679075D01*
G37*
G36*
X103528000Y-99192000D02*
X101958000Y-99192000D01*
X101958000Y-96642000D01*
X103528000Y-96642000D01*
X103528000Y-99192000D01*
X103528000Y-99192000D01*
G37*
G36*
X114475000Y-99150000D02*
X112925000Y-99150000D01*
X112925000Y-97850000D01*
X114475000Y-97850000D01*
X114475000Y-99150000D01*
X114475000Y-99150000D01*
G37*
G36*
X112575000Y-99150000D02*
X111025000Y-99150000D01*
X111025000Y-97850000D01*
X112575000Y-97850000D01*
X112575000Y-99150000D01*
X112575000Y-99150000D01*
G37*
G36*
X108350000Y-98075000D02*
X107050000Y-98075000D01*
X107050000Y-96525000D01*
X108350000Y-96525000D01*
X108350000Y-98075000D01*
X108350000Y-98075000D01*
G37*
G36*
X110350000Y-98075000D02*
X109050000Y-98075000D01*
X109050000Y-96525000D01*
X110350000Y-96525000D01*
X110350000Y-98075000D01*
X110350000Y-98075000D01*
G37*
G36*
X114475000Y-97150000D02*
X112925000Y-97150000D01*
X112925000Y-95850000D01*
X114475000Y-95850000D01*
X114475000Y-97150000D01*
X114475000Y-97150000D01*
G37*
G36*
X112575000Y-97150000D02*
X111025000Y-97150000D01*
X111025000Y-95850000D01*
X112575000Y-95850000D01*
X112575000Y-97150000D01*
X112575000Y-97150000D01*
G37*
G36*
X99964750Y-95139075D02*
X99964758Y-95139076D01*
X99967801Y-95139097D01*
X100161751Y-95160852D01*
X100347781Y-95219865D01*
X100518806Y-95313887D01*
X100668312Y-95439337D01*
X100790603Y-95591437D01*
X100881023Y-95764393D01*
X100936126Y-95951619D01*
X100936131Y-95951674D01*
X100936136Y-95951691D01*
X100953817Y-96145977D01*
X100933424Y-96340005D01*
X100933420Y-96340016D01*
X100933414Y-96340078D01*
X100875702Y-96526516D01*
X100782877Y-96698193D01*
X100658473Y-96848571D01*
X100507231Y-96971921D01*
X100334909Y-97063546D01*
X100148073Y-97119955D01*
X99953839Y-97139000D01*
X99944038Y-97139000D01*
X99933250Y-97138925D01*
X99933242Y-97138924D01*
X99930199Y-97138903D01*
X99736249Y-97117148D01*
X99550219Y-97058135D01*
X99379194Y-96964113D01*
X99229688Y-96838663D01*
X99107397Y-96686563D01*
X99016977Y-96513607D01*
X98961874Y-96326381D01*
X98961869Y-96326326D01*
X98961864Y-96326309D01*
X98944183Y-96132023D01*
X98964576Y-95937995D01*
X98964580Y-95937984D01*
X98964586Y-95937922D01*
X99022298Y-95751484D01*
X99115123Y-95579807D01*
X99239527Y-95429429D01*
X99390769Y-95306079D01*
X99563091Y-95214454D01*
X99749927Y-95158045D01*
X99944161Y-95139000D01*
X99953962Y-95139000D01*
X99964750Y-95139075D01*
X99964750Y-95139075D01*
G37*
G36*
X106230000Y-95923000D02*
X105230000Y-95923000D01*
X105230000Y-94323000D01*
X106230000Y-94323000D01*
X106230000Y-95923000D01*
X106230000Y-95923000D01*
G37*
G36*
X108130000Y-95923000D02*
X107130000Y-95923000D01*
X107130000Y-94323000D01*
X108130000Y-94323000D01*
X108130000Y-95923000D01*
X108130000Y-95923000D01*
G37*
G36*
X100949000Y-94599000D02*
X98949000Y-94599000D01*
X98949000Y-92599000D01*
X100949000Y-92599000D01*
X100949000Y-94599000D01*
X100949000Y-94599000D01*
G37*
G36*
X108130000Y-94145000D02*
X107130000Y-94145000D01*
X107130000Y-92545000D01*
X108130000Y-92545000D01*
X108130000Y-94145000D01*
X108130000Y-94145000D01*
G37*
G36*
X106230000Y-94145000D02*
X105230000Y-94145000D01*
X105230000Y-92545000D01*
X106230000Y-92545000D01*
X106230000Y-94145000D01*
X106230000Y-94145000D01*
G37*
G36*
X120035048Y-89405929D02*
X120303993Y-89461136D01*
X120557099Y-89567531D01*
X120784712Y-89721058D01*
X120978177Y-89915878D01*
X121130110Y-90144557D01*
X121234735Y-90398395D01*
X121287960Y-90667204D01*
X121287960Y-90667217D01*
X121288060Y-90667723D01*
X121283681Y-90981316D01*
X121283567Y-90981817D01*
X121283567Y-90981834D01*
X121222857Y-91249047D01*
X121111187Y-91499865D01*
X120952923Y-91724217D01*
X120754098Y-91913556D01*
X120522282Y-92060670D01*
X120266314Y-92159954D01*
X119995926Y-92207631D01*
X119721427Y-92201881D01*
X119453282Y-92142925D01*
X119201692Y-92033008D01*
X118976237Y-91876313D01*
X118785518Y-91678817D01*
X118636789Y-91448036D01*
X118535719Y-91192763D01*
X118486157Y-90922717D01*
X118489990Y-90648186D01*
X118547073Y-90379633D01*
X118655232Y-90127279D01*
X118810346Y-89900741D01*
X119006508Y-89708644D01*
X119236242Y-89558311D01*
X119490809Y-89455459D01*
X119760503Y-89404012D01*
X120035048Y-89405929D01*
X120035048Y-89405929D01*
G37*
G36*
X100180000Y-91632000D02*
X99180000Y-91632000D01*
X99180000Y-90232000D01*
X100180000Y-90232000D01*
X100180000Y-91632000D01*
X100180000Y-91632000D01*
G37*
G36*
X101480000Y-91632000D02*
X100480000Y-91632000D01*
X100480000Y-90232000D01*
X101480000Y-90232000D01*
X101480000Y-91632000D01*
X101480000Y-91632000D01*
G37*
G36*
X103684789Y-89131363D02*
X103905708Y-89176711D01*
X104113618Y-89264108D01*
X104300584Y-89390218D01*
X104459503Y-89550250D01*
X104584305Y-89738093D01*
X104670246Y-89946602D01*
X104713949Y-90167319D01*
X104713949Y-90167331D01*
X104714049Y-90167837D01*
X104710452Y-90425431D01*
X104710338Y-90425932D01*
X104710338Y-90425949D01*
X104660490Y-90645353D01*
X104568760Y-90851383D01*
X104438759Y-91035672D01*
X104275440Y-91191198D01*
X104085016Y-91312044D01*
X103874759Y-91393598D01*
X103652654Y-91432761D01*
X103427171Y-91428038D01*
X103206911Y-91379610D01*
X103000247Y-91289321D01*
X102815051Y-91160606D01*
X102658390Y-90998379D01*
X102536219Y-90808808D01*
X102453198Y-90599120D01*
X102412486Y-90377296D01*
X102415634Y-90151788D01*
X102462524Y-89931190D01*
X102551367Y-89723902D01*
X102678784Y-89537815D01*
X102839917Y-89380022D01*
X103028628Y-89256533D01*
X103237733Y-89172050D01*
X103459272Y-89129788D01*
X103684789Y-89131363D01*
X103684789Y-89131363D01*
G37*
G36*
X110184789Y-89131363D02*
X110405708Y-89176711D01*
X110613618Y-89264108D01*
X110800584Y-89390218D01*
X110959503Y-89550250D01*
X111084305Y-89738093D01*
X111170246Y-89946602D01*
X111213949Y-90167319D01*
X111213949Y-90167331D01*
X111214049Y-90167837D01*
X111210452Y-90425431D01*
X111210338Y-90425932D01*
X111210338Y-90425949D01*
X111160490Y-90645353D01*
X111068760Y-90851383D01*
X110938759Y-91035672D01*
X110775440Y-91191198D01*
X110585016Y-91312044D01*
X110374759Y-91393598D01*
X110152654Y-91432761D01*
X109927171Y-91428038D01*
X109706911Y-91379610D01*
X109500247Y-91289321D01*
X109315051Y-91160606D01*
X109158390Y-90998379D01*
X109036219Y-90808808D01*
X108953198Y-90599120D01*
X108912486Y-90377296D01*
X108915634Y-90151788D01*
X108962524Y-89931190D01*
X109051367Y-89723902D01*
X109178784Y-89537815D01*
X109339917Y-89380022D01*
X109528628Y-89256533D01*
X109737733Y-89172050D01*
X109959272Y-89129788D01*
X110184789Y-89131363D01*
X110184789Y-89131363D01*
G37*
G36*
X116096000Y-89284000D02*
X114896000Y-89284000D01*
X114896000Y-86484000D01*
X116096000Y-86484000D01*
X116096000Y-89284000D01*
X116096000Y-89284000D01*
G37*
G36*
X113196000Y-89284000D02*
X111996000Y-89284000D01*
X111996000Y-86484000D01*
X113196000Y-86484000D01*
X113196000Y-89284000D01*
X113196000Y-89284000D01*
G37*
G36*
X120035048Y-85976929D02*
X120303993Y-86032136D01*
X120557099Y-86138531D01*
X120784712Y-86292058D01*
X120978177Y-86486878D01*
X121130110Y-86715557D01*
X121234735Y-86969395D01*
X121287960Y-87238204D01*
X121287960Y-87238217D01*
X121288060Y-87238723D01*
X121283681Y-87552316D01*
X121283567Y-87552817D01*
X121283567Y-87552834D01*
X121222857Y-87820047D01*
X121111187Y-88070865D01*
X120952923Y-88295217D01*
X120754098Y-88484556D01*
X120522282Y-88631670D01*
X120266314Y-88730954D01*
X119995926Y-88778631D01*
X119721427Y-88772881D01*
X119453282Y-88713925D01*
X119201692Y-88604008D01*
X118976237Y-88447313D01*
X118785518Y-88249817D01*
X118636789Y-88019036D01*
X118535719Y-87763763D01*
X118486157Y-87493717D01*
X118489990Y-87219186D01*
X118547073Y-86950633D01*
X118655232Y-86698279D01*
X118810346Y-86471741D01*
X119006508Y-86279644D01*
X119236242Y-86129311D01*
X119490809Y-86026459D01*
X119760503Y-85975012D01*
X120035048Y-85976929D01*
X120035048Y-85976929D01*
G37*
G36*
X99641796Y-85650896D02*
X99901136Y-85704131D01*
X100145203Y-85806727D01*
X100364686Y-85954770D01*
X100551242Y-86142632D01*
X100697749Y-86363144D01*
X100798637Y-86607916D01*
X100849958Y-86867108D01*
X100849958Y-86867120D01*
X100850058Y-86867626D01*
X100845835Y-87170019D01*
X100845721Y-87170520D01*
X100845721Y-87170537D01*
X100787184Y-87428188D01*
X100679500Y-87670050D01*
X100526892Y-87886386D01*
X100335166Y-88068965D01*
X100111629Y-88210825D01*
X99864803Y-88306563D01*
X99604072Y-88352537D01*
X99339376Y-88346992D01*
X99080808Y-88290142D01*
X98838203Y-88184151D01*
X98620802Y-88033054D01*
X98436890Y-87842606D01*
X98293475Y-87620070D01*
X98196015Y-87373915D01*
X98148223Y-87113513D01*
X98151919Y-86848786D01*
X98206963Y-86589825D01*
X98311259Y-86346483D01*
X98460834Y-86128036D01*
X98649990Y-85942800D01*
X98871519Y-85797836D01*
X99116994Y-85698657D01*
X99377058Y-85649047D01*
X99641796Y-85650896D01*
X99641796Y-85650896D01*
G37*
G36*
X158641796Y-85650896D02*
X158901136Y-85704131D01*
X159145203Y-85806727D01*
X159364686Y-85954770D01*
X159551242Y-86142632D01*
X159697749Y-86363144D01*
X159798637Y-86607916D01*
X159849958Y-86867108D01*
X159849958Y-86867120D01*
X159850058Y-86867626D01*
X159845835Y-87170019D01*
X159845721Y-87170520D01*
X159845721Y-87170537D01*
X159787184Y-87428188D01*
X159679500Y-87670050D01*
X159526892Y-87886386D01*
X159335166Y-88068965D01*
X159111629Y-88210825D01*
X158864803Y-88306563D01*
X158604072Y-88352537D01*
X158339376Y-88346992D01*
X158080808Y-88290142D01*
X157838203Y-88184151D01*
X157620802Y-88033054D01*
X157436890Y-87842606D01*
X157293475Y-87620070D01*
X157196015Y-87373915D01*
X157148223Y-87113513D01*
X157151919Y-86848786D01*
X157206963Y-86589825D01*
X157311259Y-86346483D01*
X157460834Y-86128036D01*
X157649990Y-85942800D01*
X157871519Y-85797836D01*
X158116994Y-85698657D01*
X158377058Y-85649047D01*
X158641796Y-85650896D01*
X158641796Y-85650896D01*
G37*
G36*
X132920789Y-84850763D02*
X133141708Y-84896111D01*
X133349618Y-84983508D01*
X133536584Y-85109618D01*
X133695503Y-85269650D01*
X133820305Y-85457493D01*
X133906246Y-85666002D01*
X133949949Y-85886719D01*
X133949949Y-85886731D01*
X133950049Y-85887237D01*
X133946452Y-86144831D01*
X133946338Y-86145332D01*
X133946338Y-86145349D01*
X133896490Y-86364753D01*
X133804760Y-86570783D01*
X133674759Y-86755072D01*
X133511440Y-86910598D01*
X133321016Y-87031444D01*
X133110759Y-87112998D01*
X132888654Y-87152161D01*
X132663171Y-87147438D01*
X132442911Y-87099010D01*
X132236247Y-87008721D01*
X132051051Y-86880006D01*
X131894390Y-86717779D01*
X131772219Y-86528208D01*
X131689198Y-86318520D01*
X131648486Y-86096696D01*
X131651634Y-85871188D01*
X131698524Y-85650590D01*
X131787367Y-85443302D01*
X131914784Y-85257215D01*
X132075917Y-85099422D01*
X132264628Y-84975933D01*
X132473733Y-84891450D01*
X132695272Y-84849188D01*
X132920789Y-84850763D01*
X132920789Y-84850763D01*
G37*
G36*
X146650000Y-87150000D02*
X144350000Y-87150000D01*
X144350000Y-84850000D01*
X146650000Y-84850000D01*
X146650000Y-87150000D01*
X146650000Y-87150000D01*
G37*
G36*
X103684789Y-84631363D02*
X103905708Y-84676711D01*
X104113618Y-84764108D01*
X104300584Y-84890218D01*
X104459503Y-85050250D01*
X104584305Y-85238093D01*
X104670246Y-85446602D01*
X104713949Y-85667319D01*
X104713949Y-85667331D01*
X104714049Y-85667837D01*
X104710452Y-85925431D01*
X104710338Y-85925932D01*
X104710338Y-85925949D01*
X104660490Y-86145353D01*
X104568760Y-86351383D01*
X104438759Y-86535672D01*
X104275440Y-86691198D01*
X104085016Y-86812044D01*
X103874759Y-86893598D01*
X103652654Y-86932761D01*
X103427171Y-86928038D01*
X103206911Y-86879610D01*
X103000247Y-86789321D01*
X102815051Y-86660606D01*
X102658390Y-86498379D01*
X102536219Y-86308808D01*
X102453198Y-86099120D01*
X102412486Y-85877296D01*
X102415634Y-85651788D01*
X102462524Y-85431190D01*
X102551367Y-85223902D01*
X102678784Y-85037815D01*
X102839917Y-84880022D01*
X103028628Y-84756533D01*
X103237733Y-84672050D01*
X103459272Y-84629788D01*
X103684789Y-84631363D01*
X103684789Y-84631363D01*
G37*
G36*
X110184789Y-84631363D02*
X110405708Y-84676711D01*
X110613618Y-84764108D01*
X110800584Y-84890218D01*
X110959503Y-85050250D01*
X111084305Y-85238093D01*
X111170246Y-85446602D01*
X111213949Y-85667319D01*
X111213949Y-85667331D01*
X111214049Y-85667837D01*
X111210452Y-85925431D01*
X111210338Y-85925932D01*
X111210338Y-85925949D01*
X111160490Y-86145353D01*
X111068760Y-86351383D01*
X110938759Y-86535672D01*
X110775440Y-86691198D01*
X110585016Y-86812044D01*
X110374759Y-86893598D01*
X110152654Y-86932761D01*
X109927171Y-86928038D01*
X109706911Y-86879610D01*
X109500247Y-86789321D01*
X109315051Y-86660606D01*
X109158390Y-86498379D01*
X109036219Y-86308808D01*
X108953198Y-86099120D01*
X108912486Y-85877296D01*
X108915634Y-85651788D01*
X108962524Y-85431190D01*
X109051367Y-85223902D01*
X109178784Y-85037815D01*
X109339917Y-84880022D01*
X109528628Y-84756533D01*
X109737733Y-84672050D01*
X109959272Y-84629788D01*
X110184789Y-84631363D01*
X110184789Y-84631363D01*
G37*
G36*
X118250000Y-86232000D02*
X116700000Y-86232000D01*
X116700000Y-84932000D01*
X118250000Y-84932000D01*
X118250000Y-86232000D01*
X118250000Y-86232000D01*
G37*
G36*
X116199000Y-85880000D02*
X114339000Y-85880000D01*
X114339000Y-83030000D01*
X116199000Y-83030000D01*
X116199000Y-85880000D01*
X116199000Y-85880000D01*
G37*
G36*
X113499000Y-85880000D02*
X111639000Y-85880000D01*
X111639000Y-84930000D01*
X113499000Y-84930000D01*
X113499000Y-85880000D01*
X113499000Y-85880000D01*
G37*
G36*
X118250000Y-84232000D02*
X116700000Y-84232000D01*
X116700000Y-82932000D01*
X118250000Y-82932000D01*
X118250000Y-84232000D01*
X118250000Y-84232000D01*
G37*
G36*
X107600000Y-84214000D02*
X106300000Y-84214000D01*
X106300000Y-82664000D01*
X107600000Y-82664000D01*
X107600000Y-84214000D01*
X107600000Y-84214000D01*
G37*
G36*
X109600000Y-84214000D02*
X108300000Y-84214000D01*
X108300000Y-82664000D01*
X109600000Y-82664000D01*
X109600000Y-84214000D01*
X109600000Y-84214000D01*
G37*
G36*
X113499000Y-83980000D02*
X111639000Y-83980000D01*
X111639000Y-83030000D01*
X113499000Y-83030000D01*
X113499000Y-83980000D01*
X113499000Y-83980000D01*
G37*
G36*
X117295005Y-80041576D02*
X117295016Y-80041580D01*
X117295078Y-80041586D01*
X117481516Y-80099298D01*
X117653193Y-80192123D01*
X117803571Y-80316527D01*
X117926921Y-80467769D01*
X118018546Y-80640091D01*
X118074955Y-80826927D01*
X118094000Y-81021161D01*
X118094000Y-81030962D01*
X118093925Y-81041750D01*
X118093924Y-81041758D01*
X118093903Y-81044801D01*
X118072148Y-81238751D01*
X118013135Y-81424781D01*
X117919113Y-81595806D01*
X117793663Y-81745312D01*
X117641563Y-81867603D01*
X117468607Y-81958023D01*
X117281381Y-82013126D01*
X117281326Y-82013131D01*
X117281309Y-82013136D01*
X117087023Y-82030817D01*
X116892995Y-82010424D01*
X116892984Y-82010420D01*
X116892922Y-82010414D01*
X116706484Y-81952702D01*
X116534807Y-81859877D01*
X116384429Y-81735473D01*
X116261079Y-81584231D01*
X116169454Y-81411909D01*
X116113045Y-81225073D01*
X116094000Y-81030839D01*
X116094000Y-81021038D01*
X116094075Y-81010250D01*
X116094076Y-81010242D01*
X116094097Y-81007199D01*
X116115852Y-80813249D01*
X116174865Y-80627219D01*
X116268887Y-80456194D01*
X116394337Y-80306688D01*
X116546437Y-80184397D01*
X116719393Y-80093977D01*
X116906619Y-80038874D01*
X116906674Y-80038869D01*
X116906691Y-80038864D01*
X117100977Y-80021183D01*
X117295005Y-80041576D01*
X117295005Y-80041576D01*
G37*
G36*
X107135005Y-80041576D02*
X107135016Y-80041580D01*
X107135078Y-80041586D01*
X107321516Y-80099298D01*
X107493193Y-80192123D01*
X107643571Y-80316527D01*
X107766921Y-80467769D01*
X107858546Y-80640091D01*
X107914955Y-80826927D01*
X107934000Y-81021161D01*
X107934000Y-81030962D01*
X107933925Y-81041750D01*
X107933924Y-81041758D01*
X107933903Y-81044801D01*
X107912148Y-81238751D01*
X107853135Y-81424781D01*
X107759113Y-81595806D01*
X107633663Y-81745312D01*
X107481563Y-81867603D01*
X107308607Y-81958023D01*
X107121381Y-82013126D01*
X107121326Y-82013131D01*
X107121309Y-82013136D01*
X106927023Y-82030817D01*
X106732995Y-82010424D01*
X106732984Y-82010420D01*
X106732922Y-82010414D01*
X106546484Y-81952702D01*
X106374807Y-81859877D01*
X106224429Y-81735473D01*
X106101079Y-81584231D01*
X106009454Y-81411909D01*
X105953045Y-81225073D01*
X105934000Y-81030839D01*
X105934000Y-81021038D01*
X105934075Y-81010250D01*
X105934076Y-81010242D01*
X105934097Y-81007199D01*
X105955852Y-80813249D01*
X106014865Y-80627219D01*
X106108887Y-80456194D01*
X106234337Y-80306688D01*
X106386437Y-80184397D01*
X106559393Y-80093977D01*
X106746619Y-80038874D01*
X106746674Y-80038869D01*
X106746691Y-80038864D01*
X106940977Y-80021183D01*
X107135005Y-80041576D01*
X107135005Y-80041576D01*
G37*
G36*
X109675005Y-80041576D02*
X109675016Y-80041580D01*
X109675078Y-80041586D01*
X109861516Y-80099298D01*
X110033193Y-80192123D01*
X110183571Y-80316527D01*
X110306921Y-80467769D01*
X110398546Y-80640091D01*
X110454955Y-80826927D01*
X110474000Y-81021161D01*
X110474000Y-81030962D01*
X110473925Y-81041750D01*
X110473924Y-81041758D01*
X110473903Y-81044801D01*
X110452148Y-81238751D01*
X110393135Y-81424781D01*
X110299113Y-81595806D01*
X110173663Y-81745312D01*
X110021563Y-81867603D01*
X109848607Y-81958023D01*
X109661381Y-82013126D01*
X109661326Y-82013131D01*
X109661309Y-82013136D01*
X109467023Y-82030817D01*
X109272995Y-82010424D01*
X109272984Y-82010420D01*
X109272922Y-82010414D01*
X109086484Y-81952702D01*
X108914807Y-81859877D01*
X108764429Y-81735473D01*
X108641079Y-81584231D01*
X108549454Y-81411909D01*
X108493045Y-81225073D01*
X108474000Y-81030839D01*
X108474000Y-81021038D01*
X108474075Y-81010250D01*
X108474076Y-81010242D01*
X108474097Y-81007199D01*
X108495852Y-80813249D01*
X108554865Y-80627219D01*
X108648887Y-80456194D01*
X108774337Y-80306688D01*
X108926437Y-80184397D01*
X109099393Y-80093977D01*
X109286619Y-80038874D01*
X109286674Y-80038869D01*
X109286691Y-80038864D01*
X109480977Y-80021183D01*
X109675005Y-80041576D01*
X109675005Y-80041576D01*
G37*
G36*
X112215005Y-80041576D02*
X112215016Y-80041580D01*
X112215078Y-80041586D01*
X112401516Y-80099298D01*
X112573193Y-80192123D01*
X112723571Y-80316527D01*
X112846921Y-80467769D01*
X112938546Y-80640091D01*
X112994955Y-80826927D01*
X113014000Y-81021161D01*
X113014000Y-81030962D01*
X113013925Y-81041750D01*
X113013924Y-81041758D01*
X113013903Y-81044801D01*
X112992148Y-81238751D01*
X112933135Y-81424781D01*
X112839113Y-81595806D01*
X112713663Y-81745312D01*
X112561563Y-81867603D01*
X112388607Y-81958023D01*
X112201381Y-82013126D01*
X112201326Y-82013131D01*
X112201309Y-82013136D01*
X112007023Y-82030817D01*
X111812995Y-82010424D01*
X111812984Y-82010420D01*
X111812922Y-82010414D01*
X111626484Y-81952702D01*
X111454807Y-81859877D01*
X111304429Y-81735473D01*
X111181079Y-81584231D01*
X111089454Y-81411909D01*
X111033045Y-81225073D01*
X111014000Y-81030839D01*
X111014000Y-81021038D01*
X111014075Y-81010250D01*
X111014076Y-81010242D01*
X111014097Y-81007199D01*
X111035852Y-80813249D01*
X111094865Y-80627219D01*
X111188887Y-80456194D01*
X111314337Y-80306688D01*
X111466437Y-80184397D01*
X111639393Y-80093977D01*
X111826619Y-80038874D01*
X111826674Y-80038869D01*
X111826691Y-80038864D01*
X112020977Y-80021183D01*
X112215005Y-80041576D01*
X112215005Y-80041576D01*
G37*
G36*
X114755005Y-80041576D02*
X114755016Y-80041580D01*
X114755078Y-80041586D01*
X114941516Y-80099298D01*
X115113193Y-80192123D01*
X115263571Y-80316527D01*
X115386921Y-80467769D01*
X115478546Y-80640091D01*
X115534955Y-80826927D01*
X115554000Y-81021161D01*
X115554000Y-81030962D01*
X115553925Y-81041750D01*
X115553924Y-81041758D01*
X115553903Y-81044801D01*
X115532148Y-81238751D01*
X115473135Y-81424781D01*
X115379113Y-81595806D01*
X115253663Y-81745312D01*
X115101563Y-81867603D01*
X114928607Y-81958023D01*
X114741381Y-82013126D01*
X114741326Y-82013131D01*
X114741309Y-82013136D01*
X114547023Y-82030817D01*
X114352995Y-82010424D01*
X114352984Y-82010420D01*
X114352922Y-82010414D01*
X114166484Y-81952702D01*
X113994807Y-81859877D01*
X113844429Y-81735473D01*
X113721079Y-81584231D01*
X113629454Y-81411909D01*
X113573045Y-81225073D01*
X113554000Y-81030839D01*
X113554000Y-81021038D01*
X113554075Y-81010250D01*
X113554076Y-81010242D01*
X113554097Y-81007199D01*
X113575852Y-80813249D01*
X113634865Y-80627219D01*
X113728887Y-80456194D01*
X113854337Y-80306688D01*
X114006437Y-80184397D01*
X114179393Y-80093977D01*
X114366619Y-80038874D01*
X114366674Y-80038869D01*
X114366691Y-80038864D01*
X114560977Y-80021183D01*
X114755005Y-80041576D01*
X114755005Y-80041576D01*
G37*
G36*
X120634000Y-82026000D02*
X118634000Y-82026000D01*
X118634000Y-80026000D01*
X120634000Y-80026000D01*
X120634000Y-82026000D01*
X120634000Y-82026000D01*
G37*
M02*
