M48
INCH,TZ
T1C0.020
T2C0.024
T3C0.030
T4C0.039
T5C0.040
T6C0.043
T7C0.047
T8C0.094
T9C0.138
%
G90
G05
T1
X40547Y-41567
X41143Y-43671
X41490Y-43589
X41709Y-42498
X42000Y-45475
X42087Y-45079
X42125Y-46025
X42323Y-43701
X42425Y-51200
X42520Y-44488
X43027Y-41764
X43110Y-47244
X43307Y-41024
X43346Y-47598
X43346Y-36378
X43677Y-44000
X44016Y-42324
X44370Y-37441
X44499Y-41482
X44617Y-44124
X44670Y-36694
X44950Y-44275
X45079Y-46024
X45195Y-42196
X45236Y-41816
X45236Y-40669
X45276Y-39252
X45276Y-41181
X45327Y-50169
X45327Y-50630
X45565Y-51850
X45945Y-43076
X46339Y-43076
X46614Y-40827
X46614Y-41220
X46614Y-41614
T2
X39476Y-49391
X39476Y-50791
X40200Y-44525
X40219Y-43158
X40276Y-50091
X40866Y-52165
X40868Y-42205
X41147Y-39314
X42600Y-51775
X43200Y-48050
X44500Y-51050
X44528Y-46457
X44843Y-40787
X44882Y-39331
X45197Y-42677
X45604Y-44803
X46496Y-35157
X47244Y-39291
X47913Y-38500
X47913Y-41220
T3
X40250Y-46613
X40250Y-47597
X40250Y-48581
X42854Y-52992
X43839Y-52992
X44823Y-52992
X45807Y-52992
X47041Y-44448
X47041Y-45235
X47041Y-46022
X47041Y-46810
X47041Y-47597
X47041Y-48385
X47041Y-49172
X47041Y-49959
X47730Y-44448
X47730Y-45235
X47730Y-46022
X47730Y-46810
X47730Y-47597
X47730Y-48385
X47730Y-49172
X47730Y-49959
T4
X39350Y-36850
X39350Y-37850
X39350Y-38850
X39350Y-39850
X39350Y-40850
X39350Y-41850
X39350Y-43600
X39350Y-44600
X39350Y-45600
X39350Y-46600
X42100Y-31900
X42244Y-54606
X43100Y-31900
X43244Y-54606
X44100Y-31900
X44244Y-54606
X45100Y-31900
X45244Y-54606
X46100Y-31900
X46244Y-54606
X47100Y-31900
T5
X52283Y-33858
X57283Y-33858
T6
X39250Y-47800
X40773Y-33772
X40773Y-35544
X43332Y-33772
X43332Y-35544
T7
X47200Y-34400
X47200Y-35750
T8
X39173Y-34252
X39173Y-52362
X62402Y-34252
X62402Y-52362
T9
X52264Y-43110
X57283Y-43110
T0
M30
